/* XPM */
static char *result[] = {
/* columns rows colors chars-per-pixel */
"50 50 117 2 ",
"   c #556D2D",
".  c #56702F",
"X  c #5D7E2B",
"o  c #566D31",
"O  c #5E7D33",
"+  c #607E28",
"@  c #617E34",
"#  c #72A41F",
"$  c #5D8226",
"%  c #5E812B",
"&  c #5F8032",
"*  c #618727",
"=  c #638B26",
"-  c #61852C",
";  c #658C2C",
":  c #688E2F",
">  c #669027",
",  c #6A9426",
"<  c #6E9D26",
"1  c #67902B",
"2  c #6B952D",
"3  c #6D992C",
"4  c #719E25",
"5  c #719E2D",
"6  c #638432",
"7  c #678D30",
"8  c #698E32",
"9  c #658738",
"0  c #6B8E38",
"q  c #6C9531",
"w  c #6E9931",
"e  c #6E9238",
"r  c #709734",
"t  c #729D33",
"y  c #73973C",
"u  c #759D3A",
"i  c #799E3E",
"p  c #6FA024",
"a  c #72A323",
"s  c #77AC26",
"d  c #73A32C",
"f  c #79A72E",
"g  c #76A92B",
"h  c #7AAC2E",
"j  c #7DB22C",
"k  c #75A332",
"l  c #79A534",
"z  c #77A832",
"x  c #7BAC33",
"c  c #77A13A",
"v  c #7AA43B",
"b  c #7DAA3C",
"n  c #7EB234",
"m  c #739542",
"M  c #7C9F43",
"N  c #7DA542",
"B  c #7FA941",
"V  c #7FA249",
"C  c #80AF37",
"Z  c #81AD3D",
"A  c #81B535",
"S  c #84BA35",
"D  c #88BF35",
"F  c #84B43C",
"G  c #86BB3A",
"H  c #88BD3C",
"J  c #89C236",
"K  c #8CC33A",
"L  c #839C5D",
"P  c #80A545",
"I  c #82AB44",
"U  c #81A44A",
"Y  c #86AD4B",
"T  c #88AF4C",
"R  c #86B343",
"E  c #8AB545",
"W  c #8CBB45",
"Q  c #87B049",
"!  c #8BB44B",
"~  c #8EBA4B",
"^  c #91BC4D",
"/  c #84A551",
"(  c #88AB52",
")  c #8CA75F",
"_  c #8CB451",
"`  c #8FB854",
"'  c #8FB659",
"]  c #93BC53",
"[  c #92B65A",
"{  c #95BD5A",
"}  c #8CA762",
"|  c #8CA863",
" . c #99BA65",
".. c #8EC242",
"X. c #91C445",
"o. c #94C44C",
"O. c #96C84D",
"+. c #99CA4F",
"@. c #96C254",
"#. c #99C655",
"$. c #97C850",
"%. c #9BCA54",
"&. c #9BC35C",
"*. c #9FCA5E",
"=. c #A2CE5F",
"-. c #9EC562",
";. c #9FCA62",
":. c #9EC06A",
">. c #A1C763",
",. c #A2CA64",
"<. c #A4C76C",
"1. c #A5CC6A",
"2. c #A9CE6D",
"3. c #A6D067",
"4. c #AAD06E",
"5. c #AACF70",
"6. c #ACD072",
/* pixels */
"L :.' 8 : , 3 1 7 : : : 7 8 7 X . - 8 y  .:.Y < 2 1 q V :. .6 X 7 7 y Y Q q : : : 1 - . 9 Y Y y ; : ",
"} 4.-.3 < a a < 3 q 2 3 3 3 1 - - ; , t 1.6.E a a 3 3 Q 4.1.- % 1 q t ^ ^ c 3 2 3 2 ; % q ^ ^ t , q ",
"/ %.] 3 3 < < k x b Y Q c 2 3 > 1 , 3 t #.%.F d < 1 : U 3.<.8 ; 3 < p I Z d < 5 v v ; X 7 Z Z Y ! N ",
"c K G 3 3 3 3 b ~ ^ ,.1.Q w 3 4 # < 3 3 K K b 3 q % % V 2.1.t 3 d a < 3 3 a a h W ! q X * 2 3 { 2.] ",
"y J n 3 2 q 2 b E ~ -.<.Q w < d a 3 3 w J J x 2 1 % X N ,.>.t < < a < 3 q a a x ^ ^ e - 6 q 2 { 1.{ ",
"9 k t a 4 3 2 w t u N i x x x 3 3 3 2 , g s 2 - % % X u O.X.x x 5 3 3 2 w 2 3 b &.>.v 1 ; * - [ 2.' ",
"6 , 3 # a , w 2 3 3 3 3 z n n 3 3 2 3 3 p a 1 % % % % t J J S A d 2 q 3 3 2 3 I 2.1.P 3 1 % X [ 5.{ ",
"& 3 3 a 5 l v w 1 ; 3 3 b ^ E 5 , t 3 3 j s 3 $ $ = 1 3 S A F F d q t c l t 3 v #.@.v 3 1 % % _ =.` ",
"= a p 3 k W ^ u + X , 2 _ 4.-.c 3 q 3 5 K K c - * 4 a 3 3 3 W ~ k 3 c ^ ^ k 3 k A n d q : X X B ^ F ",
"- < < 3 k ] ] i X - 2 5 I &.^ v k t w 3 S S 5 - ; f h t 1 q ] ^ c 1 t @.] l 2 d x x k k w ; - b R C ",
". & * # x >.3.U X - 2 2 d s a n n z 2 3 a s 4 , t E ~ c % 6 -.>.y % y 2.2.v 3 3 3 3 x n x w q p a d ",
"o + * a x ;.3.V X - 2 2 < a a n n z 3 2 a a 5 , t E ^ c X 6 >.>.m * y 4.2.v 3 2 q 3 x n x 2 w p a 4 ",
"o % * a g X.O.b ; ; 2 3 > ; = 5 5 d < < 5 3 4 < l ] &.U X - N I k c b 1.2.x 5 , ; ; 3 d t 2 3 2 5 5 ",
"o % * a s J K x w 2 2 3 ; + - : 3 < a a , 3 4 a h =.5.( % % 1 3 n n W 6.5.x a < % % 7 , 3 w 3 2 3 5 ",
"o % * a g S G z 3 3 , 1 ; * ; 5 3 < a p 3 3 < 4 f &.>.Y - - 3 < x x H ,.=.x a , % - 8 3 3 3 3 2 1 5 ",
"o % - 3 3 t d p a 4 $ X , # a A S z 3 3 a a < 5 5 E ^ Z 5 2 a a 4 2 k K K k 3 1 % % ; 3 p a a = % 1 ",
"o % - q w t k d # 4 % X , a a x A z 2 3 p a < w t E ^ B 3 3 a a 3 w k J K k 2 ; % % 1 3 3 p a $ % ; ",
"o % % 3 w , 3 < # 5 % X ; < l ] #.~ A n < 3 k I Z v c w 3 q 3 < < p p z k x x t % % w x b @.@.q X ; ",
"  % % < 3 w 3 4 # 4 - X : 2 l >.4.$.K J 3 w b ~ W t , 2 3 q 1 < p a p 3 3 n n z % - z A W 3.4.y X % ",
"O 7 ; 3 w 1 1 3 # 4 * * 1 3 k >.2.@.S F 3 3 B ] ~ t w q 1 1 2 3 3 p < 1 2 x n z ; - z n W *.;.y - ; ",
"0 x x a 4 * % 1 a p 2 2 < p x &.1.` 3 3 w 3 ! 1.-.t 3 ; % % 2 q 3 , 3 3 3 x n x w q x n G K K z q ; ",
"y A x # 3 * % 1 a # 3 2 p a x >.1.E w 3 w 2 Q 2.-.c 3 ; - X 2 3 3 w q w w n n n 3 3 x n S K K z 3 2 ",
"9 d d 4 2 - % ; p < 3 , 3 < 5 I Y x < < 3 3 b O.X.n x 2 X - b I t 3 < S n A n n 3 w w d z x z n n c ",
"@ 5 2 2 1 - % ; w q 2 3 w 3 q 2 3 < a a 3 q x J K S A t X - E ~ k 3 k K K S n x 3 2 3 w 2 3 2 n K n ",
"@ < , q 2 - % ; < 3 3 t 3 3 2 2 2 3 4 < q 2 x X...n n 3 % X ! ] c , k K K n n l c c t w 3 1 1 R X.n ",
"- a a 2 3 2 w 3 # a K K x w , q 3 ; % % 3 2 ! 1.-.c 3 ; X 6 >.>.b 3 k J K k < B ,.3.W A x % % ' 4.@.",
"- a a w 3 3 3 < # s K K x 3 2 2 2 7 X % 2 2 ! 2.;.c 2 7 % - >.1.b 3 d K K t 3 B 1.1.~ S l % X [ 4.{ ",
"6 < 2 - ; , w 5 a f %.=.W h z a a ; % % < a F o.X.n x w 1 q >.1.R x z j j d 3 B 2.1.E S l % % [ 1.&.",
"& 3 1 % % q w < a f ,.4.o.A n g a , % % a a j K J A A f 3 t >.2.W A n a p 3 q B 1.1.W S k % X [ 1.@.",
"& p , % * , q 3 < k ,.4.~ z k , , ; ; 1 3 < z A A z z d < d ,.1.Z t d j j d 2 x %.$.K n z % % E %.~ ",
"; p < % - 2 w 3 3 w 1.5.! 3 q % % ; 3 3 3 w 3 5 d 3 2 5 a a ,.<.m % 2 K K z 3 k K K S n x X % n K G ",
"; a < & % 2 w , 2 u ;.3.Q 2 1 % X ; q 3 , 3 3 5 5 3 3 5 a g >.>.m X 1 J J c 3 z ..K S n k % % x J F ",
"O 3 2 q 3 h A k 2 3 ....n p < $ X ; 2 3 2 2 2 w 3 n n z 3 3 W H q X - 3 t a a Z >.,.b 3 2 % X w k 3 ",
"6 2 2 3 5 A A l 3 3 K K j a < $ X ; q 3 2 5 2 3 3 n A k w 3 J J 2 X - 3 3 a a F 1.2.B w : % % q d t ",
"O 3 w b v 5 5 q w 3 J J x < < ; ; , 2 3 ! ! c 3 d n A z 3 w $.$.y X 6 3 2 , 1 l O.%.x 3 2 ; ; B ! R ",
"O 3 t ~ R - X ; 2 3 J J b q 2 t w 2 2 t <.1._ 2 3 n n z 3 w ;.:.m + * 3 3 - % 3 J J k q 3 w w { 2.=.",
"O 3 t W T - X ; 5 3 G H g 2 w c 5 w , r &.>.T 2 3 n n x w w -.-.y % % 3 w % X 2 H G v t w 2 3 ' >.] ",
"O q t W Y - X 0 t q k f 3 w c _ R v 2 q u u t 3 d n n z 2 w ..X.c , : 3 w ; X ; k z ] &.` 3 2 t c b ",
"& q t ^ Y 6 6 q u u t t q r c { ^ v 1 2 q 3 2 2 3 n n z 2 d J J z 3 2 2 2 - - ; t k { 2.&.2 3 , 3 t ",
"m Y Y ~ R , ; r u y t t 2 q c ] ! v 2 2 2 1 t c z z z w 2 2 x n 3 3 2 ; ; ; 7 ; 3 t { 1.&.2 w 3 3 < ",
"| 6.>.~ R g p < t u u u t q N ` ~ B 2 , 2 2 x ] E t 3 2 w 2 w k 3 w ; X - , r 3 3 3 { 5.&.q 3 p a a ",
"} 2.>.~ F d p , q t t c t q i ] { Y t c w w N ] ! w 3 2 2 3 d 5 3 t 1 $ X 1 3 2 3 t @.3.@.q 2 p a 4 ",
") 2.-.F x ; % ; q , l l l u N >.6.#.R E v u _ 1.&.c 3 q 3 q 3 t I W I q q 2 , 3 3 3 F X.F * - 3 a 4 ",
"} 5.-.n x * % 7 u w a g l t U 1.6.%.R H c w T 1.-.c 3 2 3 3 , r R o.R 3 3 2 5 , 2 w S J n % % , a a ",
"U %.@.d w : e e e 0 < 3 u u V <.1._ z c 7 ; N #.o.t 2 2 2 2 l b v Z c , q v v c , w z n k X + t Z d ",
"m K S 3 , t c e - X q q q t N 1.6._ q 1 % % t K H 3 3 2 2 r ~ W c 3 2 w 3 R ~ F t 3 3 k w % % I ~ I ",
"u J n q q u u 0 X X 1 3 , q N :.6.` w : % % w J S t w 3 3 5 R Y k 5 3 2 2 I E I 3 3 3 k 3 - % N R N ",
"& t w 2 w w c 0 X X 1 1 2 2 w o.$.F 1 q 1 q 2 d k 3 , 3 a 4 : ; 5 a 5 2 3 8 7 1 2 3 2 w w 1 2 7 0 : ",
"& q 2 2 q t u 0 + X 1 2 r u t D H x 2 w w 2 2 q 5 w , 5 # 4 X * , # 4 2 w - + - 2 2 2 3 q 3 2 - - * ",
"O w 3 < < g l r 9 - Y T I u t 5 d q - - , w 5 4 a Z R v t , * - = - 2 R R : + ; 4 a 5 2 k R R 8 + - "
};
