/* XPM */
static char *result[] = {
/* columns rows colors chars-per-pixel */
"50 50 173 2 ",
"   c #593802",
".  c #543503",
"X  c #4B3916",
"o  c #613E03",
"O  c #4E4019",
"+  c #5F4110",
"@  c #654708",
"#  c #624305",
"$  c #644C16",
"%  c #654E1B",
"&  c #595325",
"*  c #644F21",
"=  c #6D582D",
"-  c #56702F",
";  c #5D7E2B",
":  c #5E7D33",
">  c #607E28",
",  c #7B673B",
"<  c #61763E",
"1  c #62793E",
"2  c #6A662C",
"3  c #726647",
"4  c #6C6542",
"5  c #9C5B03",
"6  c #B66D02",
"7  c #BF6D02",
"8  c #BA7E0C",
"9  c #C77101",
"0  c #C87201",
"q  c #897956",
"w  c #72A41F",
"e  c #5D8226",
"r  c #5E812B",
"t  c #5F8032",
"y  c #618727",
"u  c #638B26",
"i  c #61852C",
"p  c #658C2C",
"a  c #688E2F",
"s  c #669027",
"d  c #6A9426",
"f  c #6E9D26",
"g  c #67902B",
"h  c #6B952D",
"j  c #6D992C",
"k  c #719E25",
"l  c #719E2D",
"z  c #638432",
"x  c #678D30",
"c  c #698E33",
"v  c #66853B",
"b  c #68853E",
"n  c #6B8D39",
"m  c #6C9531",
"M  c #6E9931",
"N  c #6E9238",
"B  c #709734",
"V  c #729D33",
"C  c #73973C",
"Z  c #759D3A",
"A  c #799E3E",
"S  c #6FA024",
"D  c #72A323",
"F  c #77AC26",
"G  c #73A32C",
"H  c #79A72E",
"J  c #76A92B",
"K  c #7AAC2E",
"L  c #7DB22C",
"P  c #75A332",
"I  c #79A534",
"U  c #77A832",
"Y  c #7BAC33",
"T  c #77A13A",
"R  c #7AA43B",
"E  c #7DAA3C",
"W  c #7EB234",
"Q  c #6B8540",
"!  c #6E8D43",
"~  c #7D8B4D",
"^  c #7C864D",
"/  c #739543",
"(  c #7A9B46",
")  c #7D8851",
"_  c #7E8854",
"`  c #7F9853",
"'  c #7DA542",
"]  c #7FA941",
"[  c #7FA249",
"{  c #BF8D16",
"}  c #BF9735",
"|  c #81AD3D",
" . c #81B535",
".. c #84BA35",
"X. c #84B43C",
"o. c #86BB3A",
"O. c #88BD3C",
"+. c #88BF35",
"@. c #C18D17",
"#. c #ED8C01",
"$. c #F6A411",
"%. c #FFBA1F",
"&. c #FFBC20",
"*. c #89C236",
"=. c #8CC33A",
"-. c #83954F",
";. c #849452",
":. c #869951",
">. c #86975D",
",. c #82895B",
"<. c #82AB44",
"1. c #81A44A",
"2. c #86AD4B",
"3. c #88AF4C",
"4. c #84A649",
"5. c #86B343",
"6. c #8AB545",
"7. c #8CBB45",
"8. c #87B049",
"9. c #8BB44B",
"0. c #8EBA4B",
"q. c #91BC4D",
"w. c #86A852",
"e. c #8CB451",
"r. c #8FB854",
"t. c #8FB659",
"y. c #93BC53",
"u. c #95BD5A",
"i. c #92B65A",
"p. c #BFA049",
"a. c #BFA358",
"s. c #869F61",
"d. c #8CA761",
"f. c #8FA966",
"g. c #96AA68",
"h. c #9DB66A",
"j. c #9AB866",
"k. c #BFA76C",
"l. c #A3BD6E",
"z. c #C1A04B",
"x. c #C1A76D",
"c. c #C0A564",
"v. c #8EC242",
"b. c #91C445",
"n. c #96C84D",
"m. c #94C44C",
"M. c #96C254",
"N. c #99C655",
"B. c #97C850",
"V. c #9BCA54",
"C. c #9BC35C",
"Z. c #A2CE5F",
"A. c #9EC562",
"S. c #9FCA62",
"D. c #9EC06A",
"F. c #A1C763",
"G. c #A2CA64",
"H. c #A4C66C",
"J. c #A5CC6A",
"K. c #A9CE6D",
"L. c #A6D067",
"P. c #AAD06E",
"I. c #AACF70",
"U. c #A3C173",
"Y. c #ACD072",
"T. c #FFC84B",
"R. c #FFD569",
"E. c #FDD775",
"W. c #AAB184",
"Q. c #FFDB85",
"!. c #FFDD8E",
"~. c #FEDE9A",
"^. c #FEE09B",
/* pixels */
"j.D.2.f h g m [ D.j.z ; a x C 2.8.m a a a p i - v 2.2.C p a >.D.t.x m d h g a a a a a x a ; - i x C ",
"J.Y.6.D D j j 8.P.J.i r g m V q.q.T j h l h p i h q.q.V d m d.P.A.j f D D f j m h j j j g i i p d V ",
"N.V.X.G f g a 1.L.H.x a j f S <.| G f l T R p ; p | | 2.9.' w.V.y.j j f f P Y E 3.8.T h j s a d j V ",
"=.=.E j m r r [ K.J.V j G D f j j D D K 7.9.m ; i h j u.K.y.T =.o.j j j j E 0.q.G.J.8.M j k w f j j ",
"*.*.Y h g r ; ' G.F.V f f D f j m D D Y y.q.B i z M g u.J.u.C *.W j h m h E 6.0.A.H.8.M f G D j j M ",
"J F h i r r ; Z n.b.Y Y l j j h M h j E C.G.R p g e r j.K.t.z P V D k j h j V C ' A Y Y Y j j j h d ",
"S D g r r r r V *.*... .G h h j j h j <.K.J.<.j g ` d.l.Y.u.z d j w D d M h j j j j P W W j j h j j ",
"L F j e e u g j .. .X.X.G m V T U V j T N.M.T j N 4 3 3 g.u.t j j D l I R M d p j j E q.6.G d V j j ",
"=.=.T i y k D j j j 7.0.P j T q.0.P j P W W G m ` , , , q j.e S S j P 7.q.Z ; ; d h e.P.A.T j m j l ",
"....l i a H K V p h y.q.T g V M.y.I h G W Y P ( 2 ^.~.~.k.O c S f j P y.y.A ; i h l <.C.q.R P V M j ",
"D F k d V 6.0.T r z A.G.C r C K.P.R j j j j Y ;.= ^.~.~.k.X 4 t y w Y F.L.1.; i h h G F D W W U h j ",
"D D l d V 6.q.T ; z F.F./ y C P.K.R j h m j W :.* E.E.E.a.X v e y D Y S.L.[ ; i h h f D D W W U j h ",
"l j k f U y.C.1.; i ' <.P T E J.K.Y j d g p M ~ + R.R.R.p.X < t y D J b.m.E p p h j g p u l l G f f ",
"d j k D K Z.P.w.r r g j W W 7.Y.Y.Y D S r r x ^ * R.R.R.p.X < r y D F *.=.Y j j h j p ; i x j f D D ",
"j j f k H C.F.2.i i j f Y Y O.G.L.Y D d r r c ) * ^.~.~.k.X : t y D J ..o.Y j j d p p u a f j f D S ",
"D D f l l 6.q.| l h D D k h P =.*.P j g r r x ) * ^.^.~.k.X < r i j j V G f D k e ; d w D  ...U j j ",
"S D f M V 6.0.] j j D D j M P *.=.P d a r r g ^ % !.!.!.k.X : ; i h M V P G w k r ; d D D Y  .U h j ",
"f j P <.| R T M j m j f f S S U P Y Y V r r V ;.% R.R.R.p.X < ; r j M d j f w l r ; a f I y.N.0. .W ",
"j M E 0.7.V d h j m g f S D S j j W W U r i U ;.% R.R.R.p.O : ; r f j M j k w k i r a h I F.P.B.=.*.",
"j j ] y.0.V M h g g h j j S f g h Y W U a z U ;.$ R.R.R.p.O 4 x a j M g g j w k u e g j P F.K.M...X.",
"M j 9.J.A.V j p r r h m j d j j j Y W Y M m Y ;.$ R.R.R.p.X / Y Y D k e r g D S h h f S Y C.J.r.j j ",
"M h 8.K.A.T j a i ; h j j j m M M W W W j j W :.$ R.R.R.p.X ' W Y D j u r g D w j h f D Y F.J.6.m j ",
"j j E n.b.W Y h ; i E <.V j f ..W W W W j M M ~ $ R.R.R.p.X ! G G k h i r a S f j d j f l <.2.Y f f ",
"j m Y *.=... .V ; i 6.0.P j P =.=...W Y j h j _ % Q.Q.Q.k.X Q j h h g e r p M m h j M j h h j f D D ",
"m h Y b.v.W W j r ; 9.y.T d P =.=.W W U T T V _ * ^.!.^.x.X b k d m h i r a f j j V j j h h h j k f ",
"j h 9.J.A.T j a ; z F.F.E j P *.=.P f ] G.L.7.;.* ^.^.^.x.X n D D h j h M j w D =.=.Y M d m j p r r ",
"h h 9.K.S.T h a r i F.J.E j G =.=.V j ] J.J.q.:.* ^.^.^.x.X n D D M j j j f w F =.=.Y j h h h a ; r ",
"f D X.m.v.W Y M g m F.J.5.Y U L L G j <.P.J.9.:.$ T.T.T.} X b k h e a d M l D H V.Z.7.K U D D p r r ",
"D D L =.*. . .H j V F.K.7. .W D k j m ] J.J.7.;.@ %.%.%.@.X b j g r r m M f D K G.P.m.W W J D d r r ",
"j f U  . .U U G f G G.J.| V G L L G h Y V.n.=.;.@ &.%.%.@.X v S d r y d m h f P G.P.0.U P d d a p g ",
"j M j l G j h l D D G.H./ r h =.=.U j P =.=...;.@ &.%.%.{ X N D f r i h M j j M J.P.9.j h r r p j j ",
"d j j l l j j l D J F.F./ ; g *.*.T j U v.=.o.-.# $.$.$.8 X N D f t r h M d h Z S.L.8.h p r ; a h j ",
"h h h M j W W U j j 7.O.m ; i j V D D | G.G.| ^ o #.#.#.6 X b l h m l K  .P h j b.v.W k f e ; a h j ",
"h l h j j W  .P M j *.*.h ; i j j D D X.J.K.<.) o #.#.#.6 X n h h h l  . .U j j =.=.L D f e ; p m j ",
"9.9.T j G W  .U j M B.B.C ; z j g d p I n.V.Y ^ # #.#.#.6 X v j m E T l l m M j *.*.Y f f p p d h j ",
"H.J.e.h j W W U j M S.D./ ; y j j i i j *.*.U ) o #.#.#.6 X 1 l V q.5.i ; p h j *.*.E h h V M d h V ",
"C.G.3.h j W W Y M M A.A.C r r j m i ; h O.o.A -.o #.#.#.6 X v h V 7.2.i > a l j o.O.J h M T l M d V ",
"Z Z V j G W W U h M v.b.T d a j m p ; p P H y.d.  0 9 9 5 X v m V 7.2.i ; n V m P H j j T e.5.T h m ",
"m j h h j W W U h G *.*.P j j h h i i p V P u.l.  0 0 9 5 X 1 m V q.2.z z m Z Z V V m B T u.q.R g h ",
"h g V T U U U M h h Y W j j h p p p a p j V u.j.  0 0 9 5 X ( 2.2.0.5.d p m Z C V V h m T u.9.R h h ",
"h h Y y.6.V j h M h M P j j a ; i d m j j j u.l.  9 9 9 5 X f.Y.F.0.5.J D f V Z Z Z V m ' r.0.] h d ",
"m V ' y.9.m j h h j G l j V p e ; h j h j V M.l.o 7 7 9 5 & f.K.F.0.X.G S d m V V T V m A y.u.3.V T ",
"R Z e.J.C.T j m j m j V <.7.<.m m h d j j j X.m.W..   . 3 j.d.K.A.X.Y a r a m d I I I Z ' F.Y.N.5.6.",
"T M 8.J.A.T j h j j d B 5.m.5.j j h l d h M ..=.e._ ,.>.4.H d.P.A.W Y e r x Z M D J I V 1.J.Y.V.5.O.",
"a p ' N.m.V h h h h U E R | T d m R R T d M U W T r ; V | G 1.V.M.G M a N N N n f j Z Z [ H.J.e.U T ",
"r r V =.O.j j h h B 9.7.T j h M j 5.0.X.V j j P M r r <.0.<./ =...j d V T m i ; m m m V ' J.Y.e.m g ",
"r r M *...V V j j l 5.2.P l j h h <.6.<.j j j P j i r ' 5.' Z *.W m m Z Z n ; ; g j d m ' D.Y.r.M a ",
"g m h G P j d j D k a p l D G h j x x g h j h M M g m x n a : V M h M M T n ; ; g g h h M m.B.X.g m ",
"M h h m l M d l w k ; y d w k h M i > i d h h j m j h i i i z m h h m V Z n > ; g h B Z V +.O.Y h M ",
"d M l k D | 5.R V d y i u i h 5.5.a > p k D l h I 5.5.x ; i : j j f f J U B v i 2.8.<.Z V l G m i i "
};
