/* XPM */
static char *result[] = {
/* columns rows colors chars-per-pixel */
"50 50 218 2 ",
"   c #3A2B05",
".  c #49350C",
"X  c #503C0E",
"o  c #4D4518",
"O  c #5D4916",
"+  c #5F4E18",
"@  c #4E5019",
"#  c #585914",
"$  c #775106",
"%  c #785308",
"&  c #62561E",
"*  c #5E661A",
"=  c #68671B",
"-  c #6C771D",
";  c #75600E",
":  c #555622",
">  c #725A24",
",  c #5D7E2B",
"<  c #59702F",
"1  c #5E7D33",
"2  c #626621",
"3  c #796126",
"4  c #706A26",
"5  c #687D24",
"6  c #617D29",
"7  c #647924",
"8  c #7A6A34",
"9  c #657A32",
"0  c #79792A",
"q  c #6B6940",
"w  c #875B09",
"e  c #8A6213",
"r  c #A8730C",
"t  c #A77711",
"y  c #847C2A",
"u  c #8C7837",
"i  c #91752F",
"p  c #72A41F",
"a  c #5D8226",
"s  c #5E812B",
"d  c #5F8032",
"f  c #618727",
"g  c #61842C",
"h  c #658C2C",
"j  c #688E2F",
"k  c #678926",
"l  c #6A9426",
"z  c #6E9D26",
"x  c #67902B",
"c  c #6B952D",
"v  c #6D992C",
"b  c #669027",
"n  c #719E25",
"m  c #719E2D",
"M  c #648532",
"N  c #678D30",
"B  c #6A8E32",
"V  c #658738",
"C  c #6B8E38",
"Z  c #6D8534",
"A  c #6C9531",
"S  c #6E9931",
"D  c #6E9238",
"F  c #709734",
"G  c #729D33",
"H  c #73963B",
"J  c #759D3A",
"K  c #799E3E",
"L  c #7C9730",
"P  c #7C8532",
"I  c #6FA024",
"U  c #72A323",
"Y  c #77AC26",
"T  c #73A32C",
"R  c #79A72E",
"E  c #76A92B",
"W  c #7AAC2E",
"Q  c #7DB22C",
"!  c #75A332",
"~  c #79A534",
"^  c #77A832",
"/  c #7BAC33",
"(  c #77A13A",
")  c #7AA43B",
"_  c #7DAA3C",
"`  c #7EB234",
"'  c #738E48",
"]  c #779744",
"[  c #7DA442",
"{  c #7FA941",
"}  c #7FA249",
"|  c #B78618",
" . c #A28C1F",
".. c #8D963D",
"X. c #81AD3D",
"o. c #8AA43E",
"O. c #81B535",
"+. c #84BA35",
"@. c #84B43C",
"#. c #88BD3C",
"$. c #87BB3A",
"%. c #C6850D",
"&. c #CD8C0F",
"*. c #D6930F",
"=. c #D09116",
"-. c #ED8D02",
";. c #F08F04",
":. c #EF9306",
">. c #EE930C",
",. c #F19407",
"<. c #F49B0B",
"1. c #F99F0C",
"2. c #F0960C",
"3. c #EE9411",
"4. c #EC9B15",
"5. c #F19D12",
"6. c #F19E18",
"7. c #EEA00F",
"8. c #FBA40E",
"9. c #F8A50F",
"0. c #EEA414",
"q. c #EBA71B",
"w. c #F3A412",
"e. c #FEAB12",
"r. c #F3A419",
"t. c #F4AB1A",
"y. c #FCAE19",
"u. c #F8A913",
"i. c #FDB41B",
"p. c #FEBA1F",
"a. c #FAB219",
"s. c #CA9524",
"d. c #F19F20",
"f. c #F3A423",
"g. c #F5AC24",
"h. c #F9AD24",
"j. c #F9B622",
"k. c #FCBA23",
"l. c #FDB62B",
"z. c #FDBD2A",
"x. c #F7B522",
"c. c #F6B134",
"v. c #FCBD32",
"b. c #F7B739",
"n. c #F4AB30",
"m. c #89C236",
"M. c #8CC33A",
"N. c #FEC02D",
"B. c #FDC134",
"V. c #FDC43C",
"C. c #889A55",
"Z. c #888546",
"A. c #A79A48",
"S. c #BB9A48",
"D. c #82AB44",
"F. c #82A44B",
"G. c #86AD4B",
"H. c #89AD4D",
"J. c #80A545",
"K. c #86B343",
"L. c #8AB545",
"P. c #87B049",
"I. c #8BB44B",
"U. c #8EBA4B",
"Y. c #8CBB45",
"T. c #91BC4D",
"R. c #8BA953",
"E. c #84A551",
"W. c #8CB352",
"Q. c #8FB854",
"!. c #8FB659",
"~. c #93BC53",
"^. c #95BD5A",
"/. c #94B55B",
"(. c #8DA762",
"). c #9EAF6E",
"_. c #9AB864",
"`. c #C7A74D",
"'. c #D8B858",
"]. c #D6AF49",
"[. c #ECBC49",
"{. c #8EC243",
"}. c #91C445",
"|. c #96C84D",
" X c #94C44C",
".X c #96C254",
"XX c #99C655",
"oX c #97C850",
"OX c #9BC659",
"+X c #A1CC5F",
"@X c #9EC563",
"#X c #9EC06A",
"$X c #9FCA62",
"%X c #A1C763",
"&X c #A4C76C",
"*X c #A5CC6A",
"=X c #A9CE6D",
"-X c #A2C965",
";X c #A6D067",
":X c #AAD06E",
">X c #AACE71",
",X c #ACD072",
"<X c #FCC543",
"1X c #FEC846",
"2X c #FCC54C",
"3X c #FDC94C",
"4X c #FDCD54",
"5X c #F2C95C",
"6X c #FCCD5B",
"7X c #F8C65A",
"8X c #FDD05C",
"9X c #EFC759",
"0X c #FDCC61",
"qX c #F2CC63",
"wX c #FDD364",
"eX c #FDD469",
"rX c #FCD96B",
"tX c #EDC861",
/* pixels */
"_.#XG.z c x A } #X_.M s N N H G.P.A j j j x g < V G.G.H j j C.#X!.N N l v x j j j j N N j , < s A H ",
"*X,XY.U U v v P.:X*Xg s x A G U.T.( v c v c j s A U.~.G l A (.:X@Xv z U U z v A c v v v x g s h c G ",
"XXXX@.T z x j F.;X&XN j v z I D._ T I v ) ) j , j X._ G.I.[ } OX~.v v z z ^ ^ _ G.P.( c v b x l v S ",
"M.M._ v A s s } =X*XG v T U z v v U U ` U.L.c , a c v .X*X.X( {.$.v v v v _ T.T.-X*XP.S v n p z v v ",
"m.m./ c x s , [ -X-XG z z U n v A U U / T.T.D g M S A .X*X.X] m.` v c A c _ L.U.@X*XG.S z T U v v S ",
"E Y c f s s , J |.}.^ / m v v c S c v _ OX%X) x h a s /.:X!.d ! G U n v c S G G [ K / / / v v v v l ",
"I U x s s s s G m.m.+.O.T c A v v c v D.=X*X} v x s s !.:X.Xd v v p U l S c v v v v ^ ` ` v v c v v ",
"Q Y v a a f x v +.O.@.@.T A G ( ~ G v ) XX.X( v N 9 9 E.$XQ.d v v U m ~ ) S x h v v _ T.L.m l G v v ",
"M.M.( g f n U v v v Y.U.! v ( T.T.) ] F...0 3 3 3 3 3 3 u R.k U n c ! Y.T.J 6 , l c W.=X@X( v c v T ",
"+.+.T g j ^ W G x A ~.U.( x G .X@X:   X rXrXrXrXrXrXrXrX'.3 . 9 n v ! ~.~.K , g c m D.OXT.) ! G S v ",
"U Y z l G L.U.( s M @X%XH g H C.o '.qX5Xp.a.<X6Xz.y.i.k.p.u.<.&.X # / %X;XF., g c c T Y U ` ` ^ c v ",
"U U m l G L.U.( , M %X%X] g Z.`.`.b.B.N.u.V.<XB.k.p.p.k.p.p.i.t.%.%.i /.;XF., g c c z U U ` ` ^ v c ",
"m v n z ~ ~.OX} , g { G.F.u S.eX3Xi.i.i.v.1XB.p.p.p.p.p.p.p.p.p.a.l.s.w )._ h h c v x h f T m T z z ",
"l v n U W +X,XR.s s x ] @ '.eXwXk.e.e.a.eXB.k.p.p.p.p.p.p.p.p.k.k.6X2Xu.. W.S v c v h , g j v z U I ",
"v v z n R OX@XG.g g S = qXeX3Xk.e.8.[.8Xk.2.-.-.-.-.-.:.p.p.p.N.eXwXeXeXh.; v v l x h f j m v z U I ",
"U U z m T L.T.X.m A L `.eX<Xz.y.a.2Xb.h.<.1.1.1.1.1.1.9.<.7.c.4XeXeX6XV.l.| n n a , l p U O.+.^ v v ",
"I U z v G L.T.D.G A 0 wX6Xk.a.y.N.2Xn.,.,.e.e.e.e.e.e.e.<.6.b.7XwX8X<Xx.N.k.t m s , c U U / O.^ c v ",
"z v ! D.X.( ( G ] Z i 4Xk.e.i.z.0X2.1.e.e.i.p.p.p.a.i.p.N.4Xb.6.6Xv.i.x.k.t.r # g , h z ~ ~.XXU.O.` ",
"v S _ U.Y.G x c F A.[.k.e.e.v.4X6.8.e.p.p.p.p.p.p.p.p.z.4XwX0X[.6.h.x.i.i.a.q.s.< , j c ~ %X:X|.M.M.",
"v v D.~.U.G S S 5 `.3Xp.8.<Xb.f.1.a.p.p.p.p.p.p.p.p.B.4XeXeX4Xv.x.r.h.z.k.k.a.4.  f x v ! %X=X.X+.@.",
"S v L.*XOXG m Z y ].V.j.z.3Xc.;.8.p.p.p.p.p.p.p.k.B.3XeXeX6XV.j.z.4.r.k.k.i.a.7.% H n I / OX*XQ.v v ",
"S c G.>X@X( A 2 9Xv.p.l.wXk.9.,.e.p.p.p.p.p.p.k.N.8XwXeX6Xv.k.x.z.r.5.j.z.k.p.8.e.k m U / %X*XL.S v ",
"v v _ |.}.O._ O 7Xl.l.4XN.,.<.8.p.p.p.p.p.p.p.B.4XwXwXwXB.z.z.z.l.z.g.4.j.4XV.p.8.- L v m D.G./ z z ",
"v A / m.M.+.X.O 9X2X<XV.p.,.<.e.p.p.p.p.p.k.B.3XeXrX5X<Xv.z.k.x.z.x.r.-.<X<XB.p.e.; H J A c v z U U ",
"A c / }.{.` X.O 5X8X1Xp.p.,.<.e.p.p.p.p.k.z.4XeXwX8X<Xx.x.N.x.x.z.x.t.-.4Xz.p.k.e.$ H J c c c v z z ",
"v c I.*X@X( H + 5XB.k.p.p.,.<.e.p.p.p.p.N.4XwXeXwXz.x.z.N.x.N.N.N.x.t.-.k.k.p.p.8.$ ) G x A v h s s ",
"c c L.>X-X( H = 5XB.p.p.p.,.1.e.p.p.p.z.8XwXeX8Xv.z.z.z.z.z.z.z.k.2Xb.-.p.k.p.p.e.$ J.m c c c N , s ",
"z U @. X}./ ) 7 5XB.p.p.p.,.,.e.p.p.V.4XwXeX4XV.l.x.z.a.x.N.k.x.3X<Xg.-.p.p.B.3Xe.$ I.W ^ U U h s s ",
"U U Q M.m.O.@.k 5XB.k.p.k.<.1.8.p.N.4XrXrX6XV.z.z.x.N.x.k.z.z.V.4Xl.9.2.k.N.<X4X8.%  X+.` E U l s s ",
"v z ^ O.O.^ ^ 4 9XB.p.p.p.p.w.-.p.wXwXrXrXB.x.N.z.N.x.z.z.k.<X6Xk.2.9.p.p.4X3Xp.e.y T.~ ^ l l h h x ",
"v S v m T v c R.> ].1Xp.p.p.r.>.wXwXwXwXx.x.z.k.x.N.N.p.x.3X<Xz.k.2.9.p.8XB.i.w.X >XP.v A s s f v v ",
"l v v m m v v G 2 `.3Xp.k.p.x.n.c.wX6X<Xx.a.z.z.x.z.N.x.<X<XB.i.9.w.x.1X1XN.a.9.9 :XP.c x s , j c v ",
"c c c S v ` ` ^ A A.[.l.k.k.[.4X3.7X<Xz.z.l.x.z.z.z.z.v.4XB.k.y.,.j.<XwXk.p.0.&.@.}.` I z a , j c v ",
"c m c v v ` O.^ K Z y 6Xk.4X0X0X0X>.r.z.x.z.z.z.k.k.<X8Xk.k.w.,.p.4X3Xp.p.y.r @ }.M.Q U z a , h A v ",
"I.L.( v T ` O.^ G B ..0X0X0X0X7Xk.i.0.>.4.x.l.z.z.6X1Xx.,.-.w.N.8XB.k.p.k.e.r 6 |.m./ z z h h l c v ",
"&X*XW.c v ` ` ^ v G @XA.0X0X2Xv.p.p.t.t.g.0.5.<.5.g.f.7.u.w.v.3XV.N.p.p.a.t P J |.m._ S c G v c c G ",
"OX%XP.c v ` ` / A G %X/.`.7X<Xj.p.p.p.p.z.0.>.3.:.:.,.<.p.z.1X3XN.p.p.p.*.4 G G $.#.E A S ( v S l S ",
"J J G v T ` ` ^ c v }. X: '.<Xp.p.p.p.p.k.z.3X8Xz.p.p.p.N.3X1Xp.p.p.a.<.@ ] G A ! R v S ( W.K.) c A ",
"A v c c v ` ` ^ c T m.M./.8 t y.e.p.p.k.p.3X1XN.k.p.p.N.3XV.N.p.e.a.| 7 ' H J J G G A S ( .XT.) x c ",
"A j S ( ^ ^ ^ S c c / / F ] u r r t.a.j.V.<XB.p.p.p.N.V.3Xz.i.0.r  .o.v H F J H G G A A ( ~.I.) c c ",
"c c / ~.L.G v c S c S ! v S D 9 q t &.&.4Xl.i.i.i.p.B.2Xj.*.%.| C.G.W.` I z G J J J G A [ Q.U.{ c l ",
"S S [ ~.L.S v c c v T m v G j M ' g 5 4 q.w.7.0.7.7.r.r.4.e + _.%XQ.@.T I l A G G ( G A J ~.^.G.G ( ",
") J W.=XOXJ v A v A v G D.Y.D.A A F F G - = - 0 - & * 5 l m (.=X%X@./ j s j A l ~ ~ ~ J [ -X,XXXK.L.",
"( S G.=X@X( v c v v l F K. XK.v m c m v D H $.M.` f 6 c U U (.,X%X/ / a s N J S U E ~ G F.*X,XXXK.#.",
"N h [ XX XG c c A x ~ _ ( X.( l A ) ) ( c ( ) O.~ s g G X.T } oX.XT v N D D D C z v J J } &X*XW.^ ( ",
"s s S M.$.v v c c S U.Y.( v c S v K.U.@.G v v ^ S s g D.U.D.] M.+.v l G ( D s s A A A G { *X,XW.A x ",
"s s S M.+.G G v v m K.G.^ m v c c D.L.D.v v v ! v g , [ K.[ J m.` A A J J C , , x v l A [ #X,XQ.S j ",
"x A v T ! v l v U n j h m U m c v N j x c v c S S j c N C j 1 G S c A G ( C , s x x c c S  X|.@.x A ",
"S c v A T S l m U n , f l p U c S s 6 g c c c v A c c g g f M A c c A G J C 6 , x c F J G m.#./ c S ",
"l S v z U _ K.) G l f g f g v K.K.x , j n U m c ^ K.K.N g g 1 c v z z E ~ F V g G.P.D.J G m T c g g "
};
