/* XPM */
static char *result[] = {
/* columns rows colors chars-per-pixel */
"50 50 216 2 ",
"   c #382601",
".  c #3C2A06",
"X  c #3A2805",
"o  c #432F06",
"O  c #483509",
"+  c #5C3F05",
"@  c #513908",
"#  c #443311",
"$  c #453912",
"%  c #523B11",
"&  c #5D4508",
"*  c #584215",
"=  c #525417",
"-  c #6B4908",
";  c #734805",
":  c #6B4C16",
">  c #63671D",
",  c #5B512A",
"<  c #6E5620",
"1  c #755D27",
"2  c #645E31",
"3  c #5D7E2B",
"4  c #59712A",
"5  c #5E7D33",
"6  c #7A6024",
"7  c #776626",
"8  c #607E28",
"9  c #6F7037",
"0  c #797B4C",
"q  c #8D5404",
"w  c #985C05",
"e  c #9A6307",
"r  c #906910",
"t  c #A9720A",
"y  c #AA770E",
"u  c #AB6F0B",
"i  c #8B7637",
"p  c #95752F",
"a  c #D17C03",
"s  c #967E47",
"d  c #877A51",
"f  c #72A41F",
"g  c #5D8226",
"h  c #5E812B",
"j  c #5F8032",
"k  c #618727",
"l  c #61852C",
"z  c #658C2C",
"x  c #688E2F",
"c  c #638B26",
"v  c #6A9426",
"b  c #6E9D26",
"n  c #67902B",
"m  c #6B952D",
"M  c #6D992C",
"N  c #669027",
"B  c #719E25",
"V  c #719E2D",
"C  c #72912C",
"Z  c #638333",
"A  c #678C31",
"S  c #6A8E33",
"D  c #6B8D39",
"F  c #69853A",
"G  c #6C9531",
"H  c #6E9931",
"J  c #6E9238",
"K  c #709734",
"L  c #729D33",
"P  c #73973C",
"I  c #759D3A",
"U  c #799E3E",
"Y  c #778135",
"T  c #6FA024",
"R  c #72A323",
"E  c #73A32C",
"W  c #76A92B",
"Q  c #79AB2B",
"!  c #7DB22C",
"~  c #75A332",
"^  c #79A534",
"/  c #77A832",
"(  c #7BAC33",
")  c #77A13A",
"_  c #7AA43B",
"`  c #7DAB3B",
"'  c #7EB234",
"]  c #708B41",
"[  c #779743",
"{  c #7D8751",
"}  c #7B9354",
"|  c #7DA542",
" . c #7FA249",
".. c #7FA941",
"X. c #B88416",
"o. c #9D833A",
"O. c #A28539",
"+. c #81AD3D",
"@. c #82A43F",
"#. c #81B535",
"$. c #88BD3C",
"%. c #84B838",
"&. c #C9880E",
"*. c #D3880A",
"=. c #CF9113",
"-. c #ED8C02",
";. c #E98B06",
":. c #F29507",
">. c #F19708",
",. c #F39B0C",
"<. c #F99F0C",
"1. c #F49D15",
"2. c #F09006",
"3. c #DCA11B",
"4. c #FAA20D",
"5. c #EEAE1C",
"6. c #F3A313",
"7. c #FEAB13",
"8. c #F2A21A",
"9. c #FBAD1A",
"0. c #F6AC18",
"q. c #FEB016",
"w. c #FEB41B",
"e. c #FEBA1F",
"r. c #F5B51F",
"t. c #EEA917",
"y. c #D3A432",
"u. c #F5AA2D",
"i. c #F4A725",
"p. c #FEBB22",
"a. c #FEBD2B",
"s. c #FFB325",
"d. c #F5AE32",
"f. c #FEBE33",
"g. c #F5B138",
"h. c #EDB635",
"j. c #CD9926",
"k. c #89C236",
"l. c #8CC33A",
"z. c #FEC02E",
"x. c #FDC234",
"c. c #FDC43B",
"v. c #869C57",
"b. c #90924E",
"n. c #B3984B",
"m. c #82AB44",
"M. c #81A44A",
"N. c #86AC4B",
"B. c #88AE4A",
"V. c #86B343",
"C. c #8AB545",
"Z. c #87B049",
"A. c #8EBA4B",
"S. c #8BB748",
"D. c #91BC4D",
"F. c #89A757",
"G. c #94AB5D",
"H. c #8CB451",
"J. c #8FB855",
"K. c #93BC53",
"L. c #92B45A",
"P. c #95BC5B",
"I. c #91B357",
"U. c #909066",
"Y. c #8DA862",
"T. c #94AC64",
"R. c #99BB64",
"E. c #98B263",
"W. c #9BAA79",
"Q. c #A3BA72",
"!. c #D9B75A",
"~. c #C9A74E",
"^. c #F8BA44",
"/. c #F7BB45",
"(. c #E1BE5B",
"). c #D3B875",
"_. c #8EC242",
"`. c #94C54A",
"'. c #97C850",
"]. c #9AC558",
"[. c #A2CE5F",
"{. c #9EC562",
"}. c #9EC06A",
"|. c #9FCA62",
" X c #A1C763",
".X c #A4C66D",
"XX c #A5CC6A",
"oX c #A9CE6D",
"OX c #A3CB64",
"+X c #A6D067",
"@X c #AAD06E",
"#X c #AACE71",
"$X c #A6C173",
"%X c #ACD072",
"&X c #FDC743",
"*X c #FDC845",
"=X c #FDCA4B",
"-X c #FCC549",
";X c #E2C05C",
":X c #FECD55",
">X c #FCCD5A",
",X c #FDD15D",
"<X c #E9C763",
"1X c #FED363",
"2X c #FDD66A",
"3X c #F3CF6E",
"4X c #A29980",
"5X c #A3A380",
"6X c #DABF80",
"7X c #B8D589",
"8X c #DBC081",
"9X c #EBD18D",
"0X c #FDDF9A",
"qX c #FDDC92",
"wX c #F6D78D",
"eX c #FEE09B",
/* pixels */
"R.}.N.b m x G  .}.R.Z 3 A x P N.Z.G A G x z l 4 F N.B.P x x v.}.L.G x v M n A x x x x A x 3 4 h J P ",
"XX%XS.R R M M B.@XXXl h n G ~ A.A.) M m M M z l G A.A.L v G Y.@X{.M b T R b M G m M M M n l h x v H ",
"].'.%.E b n x M.+X.XA x M b T m.+.E b M _ _ z 3 x +.+.Z.S.|  .].K.M M b b ~ ( ` B.Z.) m M N n v M ~ ",
"l.l.` M G h h  .XXXX~ M E R b M M R R Q C.H.G l l m M P.#XK._ l.%.M M M M ` A.D.OXXXZ.H M b f b M M ",
"k.k.( m n h 3 | OX XL b b R b M G R R ' D.D.[ Z F H G P.XXP.[ k.' M m G m ` C.A.{..XZ.H M E R M M H ",
"W W m l h h 3 I `.`.( ( V M M m H M M ` ].OXm.P J D Z L.#XP.F ~ L R B M m H L I | ) ( ( ( M M M m v ",
"f R n h h h h L k.k.%.#.E m G M M m M V.$XQ.F.P [ F ] Y.Q.R.] M M f R v H m M M M M / ' ' M M m M M ",
"! W M g g c n M %.' %.%.E G L ) ^ I I 9 & + + + + + & o o 9 } I L R V ^ _ H x z M M ` D.C.E v L M M ",
"k.k.^ l k B R M M M S.A.~ M ) D.P.B.> =.6.6.8.6.6.6.6.- ; w = C.E K ~ S.D.~ 8 3 v m H.@X{.) M G M M ",
"%.%.E l z ^ Q L n G K.`.) n L XXE.9 &.t.w.f.-Xp.w.q.7.*.e ; w 9 F.} ~ K.K.U 3 l m E m.].D._ ~ L H M ",
"R W R v L C.A.) h Z {. XP h [ $Xn.X.w.e.x.*Xc.p.p.e.q.w.=.r ; q i b.` OX+XM.3 l m m E W R ' ' / m M ",
"R R M v L C.D.) 3 Z  X X[ z [ G.X.7.p.z.*X*Xp.p.e.e.w.p.9.a   a e : L.|.+XM.3 l m m b R R ' ' / M M ",
"E M B b ^ K.].M.3 l | m.~ ) Z.0 t 7.r.,X*Xp.p.e.p.w.7.e.w.&.X a -.a * ].'.` z z m M N z c E M E b b ",
"v M B R Q [.oXF.h h n M ' ' m.X.t.z.,Xx.9.>.>.>.>.,.w.e.p.0.=.- w -.a 1 _.( G M m M z 3 h x M b R T ",
"M M b B Q ]. XN.l l M b ( ` > *.a.&X*Xr.i.u.d.u.8.,.0.w.e.a.f.@ w -.-.o G.` M M v N z k z E M b R T ",
"R R b V V C.K.+.V m R R R F.O =.-X>Xw.>.g.2X1X2Xf.4.-.q.p.x.2X% w a -.@ W.J.R B g 3 v f R #.%./ M M ",
"T R b H L C.D...M M R B L & 7.>Xc.q.2.>X*Xe.p.e.p.w.7.:.d.2X2Xs.e @ p.e.r 2 Q B k 3 v R R ( ' / m M ",
"b M ~ m.+._ ) H M G V B } * ,Xx.8.8.>Xc.p.e.e.e.e.e.e.7.<.1.a.7.t @ e.e.r , P.V 8 3 z B ^ K.].A.#.' ",
"M H ` A.S.~ v m M G z V p y &Xa.1.8.1Xf.w.w.e.e.e.z.c.9.,.>.e.q.j.p r p.X.p v.E l 3 x m ^  XXX'.l.k.",
"M M ..K.A.L M G z z K 8 y 9.e.w.8.i.,Xa.w.q.e.e.z.x.2Xp.<.,.r.e.*X;X  5.r.3.o ^ k k z M ~ OXoX].%.%.",
"H M S.XX{.L M x l Z M.$ t 7.w.>./.>Xr.e.p.e.e.e.=X2X2Xz.q.<.-.w.&X;X  5.p.3.. m.M m b b ( ].XXJ.M M ",
"H m N.XX{.) M S A Z G.# t 7.e.>./.:Xe.e.e.e.z.=X1X,Xx.p.w.4.-.w.&X;X  5.p.3.. I.I G B R (  XXXC.H M ",
"M M ` '.`.' ( H Z S R.# t 7.e.>./.:Xw.e.e.z.c.,X,X*Xp.e.w.4.-.w.&X;X  5.p.3.. T.m.M M b V m.B.( b b ",
"M G ( k.l.%.#.I Z Z {.# t 7.e.>./.=X7.e.z.&X1X,Xc.e.e.e.w.4.-.w.*X(.  h.x.y.. T.M.K M M G m M b R R ",
"G m ( `._.' ' L Z Z R.# t 7.e.>.&X:Xw.z.c.,X,Xz.p.p.e.e.w.4.-.w.*X;X  3XqX).. Y.| L M M m m m M B b ",
"M m Z.oX{.I m G Z F oX# t 7.e.>.^.:Xp.=X1X,Xx.p.e.e.e.e.w.4.:.w.&X;X  9XeX8X. I.`.l.( M v G M z h h ",
"m m S.#X|.) m J Z Z oX# t 7.e.>.^.,X*X1X,Xc.p.e.e.p.e.e.w.4.-.w.&X;X  9XeX8Xo L.`.l.' M m m m x 3 h ",
"b R %.`.`.' ( H G K XX# t 7.e.>./.1X1X,Xc.z.e.e.e.e.e.e.w.4.-.w.&X;X  9XqX).. L.[.+XS.Q / R R z h h ",
"R R ! l.k.#.#.Q L I XX# t 7.e.,.^.2X1Xx.z.e.e.e.e.e.w.e.q.4.-.w.&X;X  <X2X!.. L.%X@X`.#.' W T v h h ",
"M b / #.' / / ~ R ^ XX# t 7.e.q.i.i.a.p.e.e.q.w.e.e.e.w.4.,.7.=X:X(.  <X2X!.# F.#X@XA./ ~ m v z x n ",
"M H M V E M m V R E $X0 p *.w.z.8.>.7.w.e.w.q.e.p.e.e.7.,.1.x.1X(.n.< <X!.n.0 I XX#XS.M G g h z M M ",
"v M M V V M M V R W .X7XU.+ 7.>Xu.,.4.w.e.e.e.p.e.e.e.4.6.i.,X2XO.% 2X3Xs 2 F.I |.+XB.G n h 3 z m M ",
"m m m H M ' ' / M M S._.{ & 7.:Xc.0.2.4.w.e.e.e.e.w.7.>.d.:Xa.1XO.% 2X2Xp J G M A.l.' b b g 3 z m M ",
"m V m M M ' #.~ H M k.k.| 5X; y.p.e.0.,.4.q.7.7.7.7.>.f.*Xc.:X6 i ).qX1 U._ M M l.l.! R b g 3 z G M ",
"Z.S.) M E ' ' / M H '.'.[ } o =.e.e.e.6.4.4.,.4.<.1.u.-Xc.x.2X% s 0X0X$ M.G H M k.k.( B b x z v m M ",
"oXXXH.m M ' ' / M H |.}.[ A = &.w.e.e.e.6.-.-.-.;.1.2Xf.p.x.2X% s 0XqX= Z x m M k.k.+.G m L M m m L ",
"]. XB.m M ' ' ( H H {.|.I h ] 9 y q.p.e.e.e.e.e.-X>Xp.p.&X~.o !.3X;X# } h x V M $.$.E M H ) V H v H ",
"I P L M E ' ' / m H _.`.) v J  .i y p.w.w.e.p.&X*Xx.e.c.y.i O.3X~.i G.S 3 J L G ~ Q M G ) H.V._ m G ",
"H M m m M ' ' / m E k.k./ M G | { - w.q.w.a.c.:Xx.p.x.,Xo.< 2X~.b.v.I.Z Z G I I L L G H ) P.D._ n m ",
"G x L ) / / / H m m ( ' M M H h ] - 6.r.p.c.,Xz.p.x.2X3Xo.2 9X, v.K.B.v z H I P L L m G ) K.S._ m m ",
"m m ( K.C.L M m H m H ~ M H z h A T.# !.2X2X1X2X2X2X2X: d ).$ 7X{.A.V.W T b L I I I L G | J.A...m v ",
"H H | K.S.H M m m M ~ V M V n g 3 x U 9 7 7 1 1 7 6 7 $ % d W.oX XA.%.E T v G L L ) L G U K.P.B.L ) ",
"_ I H.XX].I M G M m M H ..S...G G G M G C G @.B.[ 9 9 9 x B Y.oX{.%.( z h x G v ^ ^ ^ I | OX%X].V.C.",
") H N.oX{.) M m M M v H V.`.V.H M M V M I I $.l.#.3 8 v R R Y.%X{.' ' g h A I H R W ^ L M.XX%X'.V.$.",
"A x | '.`.L m m m G ( ` ` ..) v m _ _ I m H / ' ~ 3 8 L +.E M.'.].E H A J J J D b M I I  .oXXXH./ ) ",
"h h L l.$.M M m m H A.S.) M M H M V.A.%.L M M ~ H h h m.A.m.[ k.#.M v L I H l 3 G H G L | XX#XH.G n ",
"3 g H l.#.~ G M M V V.Z.~ E M m m m.C.m.M M M ~ M l h | V.| I k.' G G I I D 3 3 n M v G  .R.#XJ.H A ",
"n G m E ~ M m M R B A n M R M m M S x n m M m H H n m A D x j K H m H H ) D 3 3 n n m G H `.'.%.n G ",
"H m m m V H v V f B 3 k v f B m H l 3 k m m M M G M M l l k Z m m m G L I D 8 3 n m H I L k.$.( m H ",
"m H V b R +.V._ L v k l k l M V.V.x 3 x B R V n ~ V.V.A 8 l 5 K M b b W ^ H F l N.Z.m.I L V E G l l "
};
