/* XPM */
static char *result[] = {
/* columns rows colors chars-per-pixel */
"50 50 191 2 ",
"   c black",
".  c #2F2902",
"X  c #362F01",
"o  c #563400",
"O  c #7B4A00",
"+  c #765502",
"@  c #804E01",
"#  c #865302",
"$  c #8C5802",
"%  c #935E04",
"&  c #875B1B",
"*  c #8A5E1D",
"=  c #805417",
"-  c #9B6405",
";  c #9F6805",
":  c #946703",
">  c #807104",
",  c #9F7502",
"<  c #946417",
"1  c #A36C06",
"2  c #A96E07",
"3  c #AC7206",
"4  c #A17802",
"5  c #AC7B05",
"6  c #A57505",
"7  c #B57A07",
"8  c #B67C0A",
"9  c #B87B09",
"0  c #B47608",
"q  c #A06E18",
"w  c #A57D15",
"e  c #B47A13",
"r  c #885E21",
"t  c #936D38",
"y  c #9A733B",
"u  c #96713A",
"i  c #A4782F",
"p  c #A57C39",
"a  c #957141",
"s  c #977752",
"d  c #808004",
"f  c #928C05",
"g  c #AB8604",
"h  c #BC8507",
"j  c #BE8A07",
"k  c #B68907",
"l  c #B99305",
"z  c #BF9805",
"x  c #B98113",
"c  c #B58F11",
"v  c #A69E13",
"b  c #AA9904",
"n  c #A9A106",
"m  c #BDA404",
"M  c #AC833C",
"N  c #BF8F33",
"B  c #C78709",
"V  c #C18C09",
"C  c #C6930B",
"Z  c #CA9A08",
"A  c #C09C05",
"S  c #D8940C",
"D  c #D18E11",
"F  c #C49012",
"G  c #E59D0E",
"H  c #CBA207",
"J  c #CDAB07",
"K  c #D3A70A",
"L  c #D5AE08",
"P  c #D8AD08",
"I  c #D2B205",
"U  c #DAB20A",
"Y  c #DABA08",
"T  c #DEBD07",
"R  c #D3A913",
"E  c #E8A70D",
"W  c #F0A60F",
"Q  c #F1AD0E",
"!  c #E7BC09",
"~  c #F3B40E",
"^  c #F3B80E",
"/  c #C19135",
"(  c #C4963C",
")  c #C6993E",
"_  c #C9BF2B",
"`  c #D5B239",
"'  c #DFC206",
"]  c #C8C506",
"[  c #EACD07",
"{  c #E7C709",
"}  c #F5C20C",
"|  c #F5CD09",
" . c #F1D507",
".. c #F6DD07",
"X. c #F6D30A",
"o. c #F6DB08",
"O. c #F8D30C",
"+. c #EBD316",
"@. c #F8E207",
"#. c #FAEA07",
"$. c #F9E008",
"%. c #FBED08",
"&. c #F7EB08",
"*. c #FDF408",
"=. c #FFFE08",
"-. c #F8E212",
";. c #FEFD1F",
":. c #FFFF16",
">. c #F9E620",
",. c #FFFF24",
"<. c #FCF937",
"1. c #A48454",
"2. c #AA8A5D",
"3. c #A98856",
"4. c #AC8F65",
"5. c #A68B6F",
"6. c #AE9067",
"7. c #AF926A",
"8. c #B0936C",
"9. c #AA9073",
"0. c #B49974",
"q. c #B09675",
"w. c #C39744",
"e. c #D5B440",
"r. c #D9BE57",
"t. c #CFAF6E",
"y. c #D2B26A",
"u. c #D3B67C",
"i. c #DABC7F",
"p. c #D5B576",
"a. c #DDC24F",
"s. c #EBDD48",
"d. c #FAEE4C",
"f. c #F9EF4A",
"g. c #FEFD44",
"h. c #FBF14F",
"j. c #FFFE4B",
"k. c #FBF150",
"l. c #DCC27A",
"z. c #E5D260",
"x. c #E2C969",
"c. c #EEE068",
"v. c #F2E96C",
"b. c #FDF769",
"n. c #FEFB6C",
"m. c #FFFE63",
"M. c #FEFB73",
"N. c #F6F078",
"B. c #FFFD7A",
"V. c #F6F077",
"C. c #AD998C",
"Z. c #B9A287",
"A. c #B2A29E",
"S. c #AE9EA0",
"D. c #ACA1AE",
"F. c #B4A8AE",
"G. c #AAA2BD",
"H. c #BFB4B7",
"J. c #B4ABB9",
"K. c #C7B08E",
"L. c #D7BA82",
"P. c #D9BC83",
"I. c #D5B780",
"U. c #C0AB95",
"Y. c #C4B4A6",
"T. c #EDDF84",
"R. c #FFFF86",
"E. c #FFFF8D",
"W. c #EDE096",
"Q. c #FFFF90",
"!. c #D4C1A4",
"~. c #FFFFAA",
"^. c #EFE3B4",
"/. c #FFFFBB",
"(. c #A49FC6",
"). c #A6A0C7",
"_. c #A9A3C6",
"`. c #AFA9C6",
"'. c #A7A3C8",
"]. c #AAA5C9",
"[. c #ADA9CB",
"{. c #B3ACC4",
"}. c #B0ACCD",
"|. c #BBB5CA",
" X c #ECDFC4",
".X c #F3E9C2",
"XX c #FFFFC8",
"oX c #FFFFC1",
"OX c #F1E7D0",
"+X c #FFFFEB",
"@X c #FFFFFE",
/* pixels */
"(.(.(.(.(.(.(.(.(.(.(.(.(.(.(.(.(.(.(.(.(.(.(.(.(.(.(.(.(.(.(.(.(.(.(.(.(.(.(.(.(.(.(.(.(.(.(.(.(.(.",
"(.(.(.(.(.(.(.(.(.(.(.(.(.(.(.(.(.(.(.(.(.(.(.(.(.(.).).(.(.(.(.(.(.(.(.(.(.(.(.(.(.(.(.(.(.(.(.(.(.",
"(.(.(.(.(.(.(.(.(.(.(.(.(.(.(.(.(.(.(.(.(.(.).).).).).).(.(.(.(.(.(.(.(.(.(.(.(.(.(.(.(.(.(.(.(.(.(.",
"(.(.(.(.(.(.(.(.(.(.(.(.(.(.(.(.(.(.(.(.).).).p.t.t.t._.(.(.(.(.(.(.(.(.(.(.(.(.(.(.(.(.(.(.(.(.(.(.",
"(.(.(.(.(.(.(.(.(.(.(.(.(.(.(.(.(.(.(.(.(.(.{.7 7 7 7 K.(.(.(.(.(.(.(.(.(.(.(.(.(.(.(.(.(.(.(.(.(.(.",
"(.(.(.(.(.(.(.(.(.(.(.(.(.(.(.(.(.(.(.(._.`.!.C Z C C y.`.).(.(.(.(.(.(.(.(.(.(.(.(.(.(.(.(.(.(.(.(.",
"(.(.(.(.(.(.(.(.(.(.(.(.(.(.(.(.(.(.(.(.i.7 V @.....@.L 7 N (.(.(.).(.(.(.(.(.(.(.(.(.(.(.(.(.(.(.(.",
"(.(.(.(.(.(.(.(.(.(.(.(.(.(.(.(.(.(.(.(.i.7 V @...@.@.L 7 N (.(.(.(.(.(.(.(.(.(.(.(.(.(.(.(.(.(.(.(.",
"(.(.(.(.(.(.(.(.(.(.(.(.(.(.).).(.(.(.(.i.7 C *.*.*.*.Y 7 / ).).(.(.(.(.(.(.(.(.(.(.(.(.(.(.(.(.(.(.",
"(.(.(.(.(.(.(.(.(.(.(.(.).).(.(.(.(.(.[.u.7 C =.=.=.=.T 7 N ].).(.(.(.(.(.(.(.(.(.(.(.(.(.(.(.(.(.(.",
"(.(.(.(.(.(.(.(.(.(.(.(.(.(.).).(.).u.P.L.P.x.=.=.=.=.s.P.L.L.P.).(.(.(.(.(.(.(.(.(.(.(.(.(.(.(.(.(.",
"(.(.(.(.(.(.(.(.(.(.).(.(.(.).).(.).7 7 P.@XXX=.=.=.=.B.@XOX8 8 ).(.(.(.(.(.(.(.(.(.(.(.(.(.(.(.(.(.",
"(.(.(.(.(.(.(.(.(.(.(.(.)._._._.).|.j j l.+X/.=.=.=.=.B.+X.XV j {.(.(.(.).(.(.(.(.(.(.(.(.(.(.(.(.(.",
"(.(.(.(.(.(.(.(.(.(.(.(.(.I.x x x x o.o.f.R.M.=.=.=.=.j.E.M.o.X.F x x x w.(.(.(.(.(.(.(.(.(.(.(.(.(.",
"(.(.(.(.(.(.].).).'.).(.[.p.0 x 7 7 ....f.R.n.=.=.=.=.j.R.M.o.o.V 7 5 7 N [.).).).).).).).).(.(.(.(.",
"(.(.(.(.(.).Z.y p ( w.) ( r.z.T. X Xb.b.j.,.;.=.=.=.=.:.,.<.b.n.^. XW.c.z.) ( ) ) M u y ).(.(.(.(.(.",
"(.(.(.(.(.'.4.O $ 8 7 7 8 a.R.~.@X@XR.R.j.=.=.=.=.=.=.=.=.;.R.R.+X@XoXR.c.8 7 7 7 : O O '.).(.(.(.(.",
"(.(.(.(.(.'.4.O : K K ` e.s.j.m.R.Q.h.k._ f n =.=.=.=.] f v h.h.R.E.n.j.h.e.e.R K 6 O O ].(.(.(.(.(.",
"(.(.(.(.(._.9.O , ..-.M.R.g.=.=.=.=.....d   X =.=.=.=.d   . o...*.=.=.=.,.R.R.>.$.k O O ].).(.(.(.(.",
"(.(.(.(.(.(.C.& w [ +.v.N.<.=.*.=.=.....+   X =.=.=.=.d   . o...=.=.=.=.;.V.N.+.[ c r r _.(.(.(.(.(.",
"(.(.(.(.(.(.'.[.H.O O 3 7 U ..#.=.=.....>   X =.=.=.=.f   . o...*.=.%...[ 7 7 # O Z.[.).(.(.(.(.(.(.",
"(.(.(.(.(.(.(.(._.O @ 3 8 U ..#.=.=.....>   X =.=.=.=.+   . o.@.=.=.%.@.[ 7 7 $ = D.(.(.(.(.(.(.(.(.",
"(.(.(.(.(.(.(.(.(.J.Y.< $ 5 Z Y =.=...@.g o + =.=.=.=.b o + o...*.=.[ Z V $ $ A._.(.(.(.(.(.(.(.(.(.",
"(.(.(.(.(.(.(.(.(.(.[.* O - 8 Z *.=.....z O : =.=.=.=.m O : ....=.=.Y 7 3 O O `.).).(.(.(.(.(.(.(.(.",
"(.(.(.(.(.(.(.(.(.(.(.0.8.p ; l #.*.#.#.L 2 j =.=.=.=.I 2 k &.%.%.*.J - q 6.7.).(.(.(.(.(.(.(.(.(.(.",
"(.(.(.(.(.(.(.(.(.(.(.).].0.O 4  ...=.=.X.W ^ =.=.=.=.X.W ^ =.=.@.@.l O a ].).(.(.(.(.(.(.(.(.(.(.(.",
"(.(.(.(.(.(.(.(.(.(.(.(.(.q.O 4  ...=.=.X.W ^ =.=.=.=.X.W ^ =.=.@.@.l O a ).(.(.(.(.(.(.(.(.(.(.(.(.",
"(.(.(.(.(.(.(.(.(.(.(.(.(.0.O 4  ...=.=.=.=.=.=.=.=.=.=.=.*.=.=.@...l O t ).(.(.(.(.(.(.(.(.(.(.(.(.",
"(.(.(.(.(.(.(.(.(.(.(.(.].0.O 4  ...=.=.=.=.=.=.=.=.=.=.=.=.=.=.@...l O t }.).).(.(.(.(.(.(.(.(.(.(.",
"(.(.(.(.(.(.(.(.(.(.'.q.4.i ; l *.*.=.=.*.#.#.#.#.#.#.#.#.%.=.=.*.*.J ; q 2.2._.(.(.(.(.(.(.(.(.(.(.",
"(.(.(.(.(.(.(.(.(.(.).* O - 7 H *.=.=.=.*...........$.....#.=.=.=.=.T 7 2 O O ).(.(.(.(.(.(.(.(.(.(.",
"(.(.(.(.(.(.(.(.(.(.).& O 1 B L =.=.*.*.$.| { I I I I ! | X.*.*.=.=.{ B 7 O O _.(.(.(.(.(.(.(.(.(.(.",
"(.(.(.(.(.(.(.(.(.(._.* O 9 W ^ =.=.....} W S O O O O 0 W Q o...=.=.O.W S O O ).).(.(.(.(.(.(.(.(.(.",
"(.(.(.(.(.(.(.(.(.(.(.r O 9 Q } *.*. . .! G D r r & & e G E  . .%.*.| Q S O O _.(.(.(.(.(.(.(.(.(.(.",
"(.(.(.(.(.(.(.(.(.(.(.* O A o.| ~ Q h h 1 # y `._._.[.0.# % h h E Q } o.T O O ).(.(.(.(.(.(.(.(.(.(.",
"(.(.(.(.(.(.(.(.(.(.(.* O A ..| W W 7 8 - O s (.(.(.(.S.O # 8 8 E W } ..' O O _.(.(.(.(.(.(.(.(.(.(.",
"(.(.(.(.(.(.(.(.(.(.).* O : g 5 2 2 % % 3.F._.(.(.(.(.(.G.Z.% % 1 2 3 g 6 O O ).(.(.(.(.(.(.(.(.(.(.",
"(.(.(.).(.(.(.(.(.(.'.r O O O O O O O O S.(.(.(.(.(.(.(.(.'.O O O O O O O O O _.(.(.(.(.(.(.(.(.(.(.",
"(.(.(.'.(.(.(.(.(.(.).6.1.1.1.1.1.1.1.1.G.).(.(.(.(.(.(.(.(.3.3.s 1.1.1.1.1.5.).(.(.(.(.(.(.(.(.(.(.",
"(.(.(.(.(.(.(.(.(.(.(.).'._.)._.'.'._.'._.(.(.(.(.(.(.(.(.(.].].}.[.[.[.].[.).(.(.(.(.(.(.(.(.(.(.(.",
"(.(.(.(.(.(.(.(.(.(.(.(.(.(.(.(.(.(.(.(.(.(.(.(.(.(.(.(.(.(.(.(.(.(.(.(.(.(.(.(.(.(.(.(.(.(.(.(.(.(.",
"(.(.(.(.(.(.(.(.(.(.(.(.(.(.(.(.(.(.(.(.(.(.(.(.(.(.(.(.(.(.(.(.(.(.(.(.(.(.(.(.(.(.(.(.(.(.(.(.(.(.",
"(.(.(.(.(.(.(.(.(.(.(.(.(.(.(.(.(.(.(.(.(.(.(.(.(.(.(.(.(.(.(.(.(.(.(.(.(.(.(.(.(.(.(.(.(.(.(.(.(.(.",
"(.(.(.(.(.(.(.(.(.(.(.(.(.(.(.(.(.(.(.(.(.(.(.(.(.(.(.(.(.(.(.(.(.(.(.(.(.(.(.(.(.(.(.(.(.(.(.(.(.(.",
"(.(.(.(.(.(.(.(.(.(.(.(.(.(.(.(.(.(.(.(.(.(.(.(.(.(.(.(.(.(.(.(.(.(.(.(.(.(.(.(.(.(.(.(.(.(.(.(.(.(.",
"(.(.(.(.(.(.(.(.(.(.(.(.(.(.(.(.(.(.(.(.(.(.(.(.(.(.(.(.(.(.(.(.(.(.(.(.(.(.(.(.(.(.(.(.(.(.(.(.(.(.",
"(.(.(.(.(.(.(.(.(.(.(.(.(.(.(.(.(.(.(.(.(.(.(.(.(.(.(.(.(.(.(.(.(.(.(.(.(.(.(.(.(.(.(.(.(.(.(.(.(.(.",
"(.(.(.(.(.(.(.(.(.(.(.(.(.(.(.(.(.(.(.(.(.(.(.(.(.(.(.(.(.(.(.(.(.(.(.(.(.(.(.(.(.(.(.(.(.(.(.(.(.(.",
"(.(.(.(.(.(.(.(.(.(.(.(.(.(.(.(.(.(.(.(.(.(.(.(.(.(.(.(.(.(.(.(.(.(.(.(.(.(.(.(.(.(.(.(.(.(.(.(.(.(.",
"(.(.(.(.(.(.(.(.(.(.(.(.(.(.(.(.(.(.(.(.(.(.(.(.(.(.(.(.(.(.(.(.(.(.(.(.(.(.(.(.(.(.(.(.(.(.(.(.(.(."
};
