/* XPM */
static char *result[] = {
/* columns rows colors chars-per-pixel */
"50 50 216 2 ",
"   c #382601",
".  c #3C2A06",
"X  c #3B2A06",
"o  c #3F370A",
"O  c #432F06",
"+  c #483509",
"@  c #5C3F05",
"#  c #513908",
"$  c #443310",
"%  c #493D14",
"&  c #523B11",
"*  c #584215",
"=  c #564C10",
"-  c #6B4908",
";  c #734805",
":  c #684D14",
">  c #5B601C",
",  c #667B1F",
"<  c #5B5229",
"1  c #6E5620",
"2  c #755D27",
"3  c #5D7E2B",
"4  c #59712A",
"5  c #5E7D33",
"6  c #7A6024",
"7  c #796827",
"8  c #607D29",
"9  c #6A7637",
"0  c #726D34",
"q  c #757648",
"w  c #8D5404",
"e  c #975C05",
"r  c #9A6307",
"t  c #906910",
"y  c #A06B0A",
"u  c #A9720A",
"i  c #AA770D",
"p  c #B2770E",
"a  c #8D7738",
"s  c #957A36",
"d  c #957029",
"f  c #D17C03",
"g  c #967E47",
"h  c #8B7A49",
"j  c #72A41F",
"k  c #5D8226",
"l  c #5E812B",
"z  c #5F8032",
"x  c #618727",
"c  c #61852C",
"v  c #658C2C",
"b  c #688E2F",
"n  c #638B26",
"m  c #6A9426",
"M  c #6E9D26",
"N  c #67902B",
"B  c #6B952D",
"V  c #6D992C",
"C  c #669027",
"Z  c #719E25",
"A  c #719E2D",
"S  c #638433",
"D  c #678D30",
"F  c #698E32",
"G  c #6C8D3B",
"H  c #678738",
"J  c #6C9531",
"K  c #6E9931",
"L  c #6E9238",
"P  c #709734",
"I  c #729D33",
"U  c #73963C",
"Y  c #759D3B",
"T  c #7A9D3C",
"R  c #6FA024",
"E  c #72A323",
"W  c #73A32C",
"Q  c #79A72E",
"!  c #76A92B",
"~  c #7AAB2D",
"^  c #77AC26",
"/  c #7DB22C",
"(  c #75A332",
")  c #79A534",
"_  c #77A832",
"`  c #7BAC33",
"'  c #77A13A",
"]  c #7AA33C",
"[  c #7DAB3C",
"{  c #7EB234",
"}  c #6E8741",
"|  c #7C8748",
" . c #789648",
".. c #7F8C53",
"X. c #7DA542",
"o. c #7FA249",
"O. c #7FA941",
"+. c #988A39",
"@. c #A28539",
"#. c #81AD3D",
"$. c #81B535",
"%. c #84B43C",
"&. c #86BB37",
"*. c #B88519",
"=. c #C9880E",
"-. c #D3880A",
";. c #C38910",
":. c #D19213",
">. c #ED8C02",
",. c #E98B06",
"<. c #F29507",
"1. c #F19708",
"2. c #F39B0C",
"3. c #F99F0C",
"4. c #F49D15",
"5. c #F09006",
"6. c #DCA11B",
"7. c #FAA20D",
"8. c #EEAE1C",
"9. c #F3A313",
"0. c #FEAB13",
"q. c #F2A21A",
"w. c #FBAD1A",
"e. c #F6AC18",
"r. c #FEB016",
"t. c #FEB41B",
"y. c #FEBA1F",
"u. c #F5B51F",
"i. c #EEA917",
"p. c #D3A432",
"a. c #F5AA2D",
"s. c #F4A725",
"d. c #FEBB22",
"f. c #FEBD2B",
"g. c #FFB325",
"h. c #F5AE32",
"j. c #FEBE33",
"k. c #F5B138",
"l. c #EDB635",
"z. c #CD9926",
"x. c #89C236",
"c. c #8CC33A",
"v. c #FEC02E",
"b. c #FDC234",
"n. c #FDC43B",
"m. c #859D57",
"M. c #8D8A4F",
"N. c #B3984B",
"B. c #82AB44",
"V. c #82A44C",
"C. c #86AD4B",
"Z. c #88AF4B",
"A. c #80A545",
"S. c #86B343",
"D. c #8AB545",
"F. c #87B049",
"G. c #8EBA4B",
"H. c #8BB748",
"J. c #91BC4D",
"K. c #89A854",
"L. c #8CB351",
"P. c #8FB756",
"I. c #95BC5A",
"U. c #94BB55",
"Y. c #8C8965",
"T. c #95AA68",
"R. c #99BA64",
"E. c #91A56A",
"W. c #A1BB72",
"Q. c #D9B75A",
"!. c #C9A74E",
"~. c #F8BA44",
"^. c #F7BB45",
"/. c #E1BE5B",
"(. c #CBB374",
"). c #DABD76",
"_. c #8EC242",
"`. c #91C443",
"'. c #95C64C",
"]. c #97C850",
"[. c #9AC557",
"{. c #A2CE5F",
"}. c #9EC562",
"|. c #9EC06A",
" X c #9FCA62",
".X c #A1C763",
"XX c #A5CC6A",
"oX c #A9CE6D",
"OX c #A3C869",
"+X c #A6D066",
"@X c #AAD06E",
"#X c #ABCF71",
"$X c #A9C575",
"%X c #ACD173",
"&X c #FDC743",
"*X c #FDC845",
"=X c #FDCA4B",
"-X c #FCC549",
";X c #E2C05C",
":X c #FECD55",
">X c #FCCD5A",
",X c #FDD15D",
"<X c #E9C763",
"1X c #FED363",
"2X c #FDD66A",
"3X c #F3CF6E",
"4X c #A19880",
"5X c #A8AB82",
"6X c #DABF80",
"7X c #B2C985",
"8X c #DBC081",
"9X c #EBD18D",
"0X c #FDDF9A",
"qX c #FDDC92",
"wX c #F6D78D",
"eX c #FEE09B",
/* pixels */
"R.|.C.M B N J V.|.R.S l D D U C.F.J D F b N c 4 H C.C.U b D m.|.P.F F m V v D b b b D F D 3 4 l J U ",
"XX%XD.E E V V F.oXoXl l N J I G.J.' V B V B b l J G.J.I m J E.#X}.V M E E M V J B V V V N c l b m K ",
"[.].%.W M N b V.+XOXD b V M R B.[ ! M W ] ) v 3 D #.#.C.F.X.o.].U.V V M M ( ` [ C.F.' B V C N m K I ",
"c.c.[ V B l l o.oXXXI V ! R M V V E E Q G.Z.B 3 x B V I.oX[.] c.&.V V V V [ G.J..XXXF.K V E E M V V ",
"x.x.` B N l 3 X..X.XI M M E M V J E E ` G.U.U c S J B I.XXI.U x.{ V B J m [ D.J.}.XXS.K M W E V V K ",
"! ^ B c l l 3 Y ].`.` ` V V V B K B V [ [. X] b v n l P.oXP.H ( I E E V B P I I X.T ` ` ` V V V B m ",
"R E N l l l l I x.x.&.{ ! B K V V B V B.oXXXA.I N z l R.%X}.H N V E E m K B V V V V _ { { V V B V V ",
"/ ^ V k k n N V &.{ %.%.! J K ' ) I V ] I.K.G 0 9 9 9 K.I.K.z I V E A ) ] K b v V V [ U.D.V m I V V ",
"c.c.' x k E E V V V H.G.( V ' G.G.( V T.h * + 6 6 6 6 6 6 7 9 #.W V Q D.J.Y 8 3 m B L.oX}.' V J V W ",
"&.$.A c b Q ~ I N J U.J.' N I [.U.( o.$ (.g = 2X2X2X2X2X2X2XQ.+ T.P I U.U.] 3 c B A B.[.J.] ( I K V ",
"E ^ Z m I D.G.' l S  X}.K l U oX%Xm.< 9X2 M.3X1Xb.d.v.,Xn.d.t.9.: #.{ .X+XV.3 c B B ! ! E { { _ B V ",
"E E A m I D.J.' l S .X.X .k  .%XT.M.!.2X1 s ,Xb.d.n.:Xn.v.t.r.t.- | S..X+XA.3 c B B R E E { { ( V B ",
"A V Z M ) U.[.V.3 x X.B.( ' C.$Xa !.<X@.a p.-Xu.n.&X*Xd.y.t.r.y.i a L.'.'.[ b b B V N v n W A W M M ",
"m V Z E ~ {.@XK.l l b V { { }.% ;X1XQ.O !.&Xu.d.:X*Xu.y.y.y.y.y.r.p 9 `.c.` K m B V v 3 l b V M E E ",
"V V M Z ! [..XC.c c V M ` [ > 0X0Xg & 2Xb.d.f.2Xq.>.,.>.>.9.y.y.d.u.;., D._ V V m N v x v W V R E M ",
"E E M A A D.J.B.A B E E Z m.+ 0X0XM.& 2Xb.n.-Xs.9.7.7.7.7.2.9.y.d.y.:.O L.W E Z k 3 m j E { &._ V V ",
"R E R K I D.G.O.V V E E I Y.2 qX(.M.t >Xn.&X~.<.0.0.0.r.0.7.1.w.t.d.p.; 5XB.j Z 8 8 V E E ` { _ B V ",
"M K ( O.[ ] ] K V J V M b a 2X2X& s 1Xg.:Xa.<.0.t.y.d.y.y.t.7.5.w.n.:X0.-  .^ A 8 8 v M ) U.[.G.$.{ ",
"V K [ G._.I N V V J B C.2 a 2X2X& @.2X>Xa.4.7.y.y.y.y.y.y.y.t.7.2.h.>Xr.# Y.R.Z c 8 D B ) .X@X].c.c.",
"V V O.U.G.I K J N N  .q N.Q.<X1 N./.1Xb.2.7.0.y.y.y.y.r.t.y.y.0.<.9.v.t.=.d q Q v x N B ( .XoX[.&.%.",
"K V H.XX}.I V v z L K.o Q.2X<X  /.>X=X0.2.7.t.y.d.y.y.r.y.y.y.f.a.s.w.y.0.u $ W P J M R ` [.XXL.m V ",
"K B F.oX}.' V v c } m.. Q.3X<X  ;X&Xt.>.7.t.y.y.y.y.y.y.y.v.v.1X2X~.<.t.0.u $ ! I I W E ` .XXXD.K V ",
"V V [ '.`.{ ` V l } R.. 6X0X9X  ;X&Xt.>.7.r.y.y.y.y.d.y.d.n.,X2X1X~.1.t.0.u $ ( I B P Z A B.C.` M M ",
"V J ` x.c.&.{ I l } W.. 6X0X9X  ;X&Xy.>.7.t.y.y.y.y.y.d.n.>X1X*X1X~.1.d.0.u $ Y P I I V J B V M E E ",
"J J ` `.`.{ { V l H W.X 8XeX9X  ;X&Xt.<.7.t.y.y.y.d.d.b.:X1X:Xd.:X~.1.y.0.u + X.I ' I V B B B V M M ",
"V B H.XX}.Y V v 5  .7XX ).wX3X  ;X&Xt.>.7.t.y.y.y.d.b.,X1Xn.y.y.:X~.1.y.0.u $ B.`.`.{ K m J V v l l ",
"B B H.oX X' J D S  .7X. p.b.l.  ;X&Xt.>.7.r.y.y.y.n.,X1Xn.v.y.0.:X~.1.y.0.u + G.`.c.{ K B B B D 3 l ",
"M R %.'.`.{ ` K J V.7X. i.d.8.  ;X&Xt.>.7.t.y.d.*X,X1Xn.v.y.y.t.:X~.1.y.0.u $ I.[.+XG.~ _ E R b l l ",
"E E / c.x.$.$.` V ] 7X. 6.d.8.  ;X&Xt.>.7.r.d.b.,X1X=Xd.y.y.y.y.>X~.1.t.0.u $ I.@X%X].$.{ ! E m l l ",
"V M _ $.{ _ ( W M ( $X. 6.y.8.  ;X&Xt.>.7.t.b.2X2X=Xd.y.y.y.y.y.>X^.1.y.0.u % K.+X%XJ._ ( m m n b N ",
"V K V A W V B A E E oX$ 6.y.u.  ;X&Xy.t.1.3.g.2Xn.d.y.y.r.t.v.,Xs.q.t.d.0.u 4 I oX#XL.V J l l v V V ",
"m V V A A V V A E ! OXT.d ;.u.t s z.t.y.1.2.t.*Xf.y.y.y.t.y.v.1Xq.2.f.*Xp s K Y  X+XF.m N l 3 v J V ",
"B V B K V { { _ V V H.@X< t d.d.# y r.f.4.3.7.y.y.y.y.y.y.d.b.>Xq.9.n.,X* m.N V `._.{ M M k 3 v B V ",
"B V B V V { { ( K V c.c.< t u.d.# r t.2X2Xk.5.0.t.d.d.y.y.&X>X5.w.&X:Xw.: ] B V c.c./ E M k 3 v J V ",
"H.H.' V ! { $._ V K ].].T.4X+ >.,.w * 2Xb.d.e.>.7.b.2X2X2Xk.2.d.:X=X:.+ K.K K V x.x.` M M v v m B V ",
"OXXXL.B V { { _ V K  X|. .M.O >.5.w # j.f.y.t.e.3.q.a.a.a.s.s.*X&Xf.=.= l b B V x.x.[ J B I J V B I ",
"}.}.F.B V { { ` K K }.}.Y z < -.,.e - ,.e.y.y.t.2.1.<.<.<.e.b.,Xf.i.*.4 l b A V &.&.! B K ( A J m I ",
"Y Y I V ! { { _ B K `.`.' m  .= f ,.f   ;.t.t.0.y.d.d.d.d.=X>Xd.w.i q L 3 G I J ) Q V J ] L.S.] B J ",
"J V B B B { { _ B W x.x._ V B o.: e f . =.t.y.t.y.y.y.d.*X&Xv.y.0.*.G G S J Y Y I I J K ] I.J.] N B ",
"B b I ' ( _ _ K B B ` { V V J G Y.2 w ; r :.t.t.y.y.d.n.=Xb.y.t.;.+.K.V v K Y U I I B J ' U.H.] B B ",
"B B ` U.H.I V B K B K _ B K N l  .m.q e ; e -.0.t.y.g.-Xf.t.e.=.h P.I.! R M I Y Y Y I J X.P.G.O.B m ",
"K K X.U.H.K V B B V W I V I N k 8 P V.> e ; ; 7.9.9.9.4.i.9.:.0 $XU.%.W R m K I I ] I J ] U.I.C.I ' ",
"' Y L.oX[.' V J V K B I O.H.O.K J P I V.0 O O @ @ @ @ @ @ * | #X}.%.` b l n J m ) ) ) Y X..X%X[.S.D.",
"' K F.OX}.' V B V V C K S.'.S.B A B Y I V...B.D.B.H G U T Z E.oX}.{ ` x l D Y K E ! ) I o.XX%X].S.&.",
"D v X.[.'.I J B B B _ [ ] [ ] m J ] ] ] B I ` %.#.H H ] S.( o.].[.W V b L L L G M V Y Y o.OXoXL._ ' ",
"l l ( c.&.V V B B K G.H.' V V K V S.G.%.I V V ( P S H Z.G.B. .c.$.V m I ' L l l J J J I O.XX%XL.J N ",
"l l K x.&.K K V V A S.C.( W V B B B.D.B.V V V ( V c 8 A.S.X.Y x.{ J J Y Y G 3 3 N V m J X.|.%XP.K F ",
"N J J R ) V m V E Z F v V R W B V F F N J V B K K b B F F b z I K B K K ' F 3 3 N N B B K '.'.%.N J ",
"K B B J V K m W j E 3 x m j Z B K c 3 x B B B V J B B c c x S J B B J I Y G 8 l N B P Y I x.&.` J K ",
"m K W M E #.S.] I N x c n c B S.S.b 3 b Z E Z B ( S.S.F 8 c 5 P V M M ! ) K H x C.C.B.Y I A W J c c "
};
