/* XPM */
static char *result[] = {
/* columns rows colors chars-per-pixel */
"50 50 243 2 ",
"   c #490509",
".  c #4C0B0B",
"X  c #470408",
"o  c #5C1407",
"O  c #56130A",
"+  c #5B1609",
"@  c #5F190A",
"#  c #4D1419",
"$  c #561A17",
"%  c #530E07",
"&  c #681E06",
"*  c #631C08",
"=  c #621E11",
"-  c #6E2306",
";  c #68220B",
":  c #722606",
">  c #762A06",
",  c #7B2E05",
"<  c #752B0A",
"1  c #7F3106",
"2  c #7D320A",
"3  c #7C3C0C",
"4  c #612216",
"5  c #6D2912",
"6  c #642B1C",
"7  c #67281C",
"8  c #79371F",
"9  c #793718",
"0  c #592728",
"q  c #563338",
"w  c #632B28",
"e  c #763923",
"r  c #683737",
"t  c #723E33",
"y  c #7C440F",
"u  c #7C4426",
"i  c #7E4736",
"p  c #5C4639",
"a  c #5F3C42",
"s  c #653D41",
"d  c #5E4B57",
"f  c #48474C",
"g  c #684745",
"h  c #7C4B42",
"j  c #74494C",
"k  c #764744",
"l  c #77554D",
"z  c #634D58",
"x  c #744D52",
"c  c #68545D",
"v  c #76545A",
"b  c #75625E",
"n  c #6F5B64",
"m  c #6A6B7A",
"M  c #696775",
"N  c #726A74",
"B  c #863604",
"V  c #8D3C03",
"C  c #873A08",
"Z  c #853E13",
"A  c #90360F",
"S  c #89430A",
"D  c #954203",
"F  c #994500",
"G  c #97490B",
"H  c #9A540E",
"J  c #8D4112",
"K  c #864319",
"L  c #944B19",
"P  c #995513",
"I  c #8F530D",
"U  c #A24D09",
"Y  c #A85105",
"T  c #A3570C",
"R  c #B35905",
"E  c #B95E03",
"W  c #A65B15",
"Q  c #BD6304",
"!  c #BB6809",
"~  c #B86818",
"^  c #B0670D",
"/  c #824421",
"(  c #8A572F",
")  c #9B5927",
"_  c #8F5431",
"`  c #A25E27",
"'  c #986B35",
"]  c #AD6A2C",
"[  c #A56527",
"{  c #BD7328",
"}  c #BB773B",
"|  c #AC6E32",
" . c #C26404",
".. c #C66A04",
"X. c #CB6C03",
"o. c #C76B0A",
"O. c #CB7407",
"+. c #D37204",
"@. c #DA7704",
"#. c #D87808",
"$. c #C97318",
"%. c #E27C02",
"&. c #E47416",
"*. c #C77926",
"=. c #EA742B",
"-. c #83534A",
";. c #855A57",
":. c #915D43",
">. c #896458",
",. c #95725A",
"<. c #966955",
"1. c #826464",
"2. c #8A6767",
"3. c #946B62",
"4. c #8C726A",
"5. c #99796B",
"6. c #866C74",
"7. c #997676",
"8. c #9C7876",
"9. c #947778",
"0. c #867576",
"q. c #A17A6C",
"w. c #AD7F5A",
"e. c #C17F40",
"r. c #EB7263",
"t. c #D88707",
"y. c #CB8F16",
"u. c #E48104",
"i. c #EC8603",
"p. c #ED8A02",
"a. c #EA8A08",
"s. c #E28C07",
"d. c #E49503",
"f. c #ED9603",
"g. c #EC9208",
"h. c #E99B09",
"j. c #E49414",
"k. c #EF921A",
"l. c #EFA30C",
"z. c #EDA81B",
"x. c #F2A918",
"c. c #E8B913",
"v. c #F6B917",
"b. c #CC832D",
"n. c #D18424",
"m. c #CA843B",
"M. c #D4922F",
"N. c #EE952B",
"B. c #F09336",
"V. c #F09C34",
"C. c #D5AC33",
"Z. c #EAA52C",
"A. c #E8A025",
"S. c #F2A625",
"D. c #F4B827",
"F. c #EAA635",
"G. c #ECBC37",
"H. c #F1B134",
"J. c #F3B931",
"K. c #F0B02E",
"L. c #DCA713",
"P. c #A8C21C",
"I. c #B3CD1C",
"U. c #90D126",
"Y. c #F8C317",
"T. c #D0CB32",
"R. c #F7C629",
"E. c #F5C63A",
"W. c #F9D636",
"Q. c #EDCE2B",
"!. c #9B8176",
"~. c #A2836F",
"^. c #B4937B",
"/. c #A68472",
"(. c #B6A74B",
"). c #C58141",
"_. c #D39446",
"`. c #D2B74C",
"'. c #EDB557",
"]. c #EBB563",
"[. c #F0BB63",
"{. c #F4B274",
"}. c #E3905A",
"|. c #B2DB5B",
" X c #CACE4A",
".X c #F6C945",
"XX c #F7D34B",
"oX c #E7D759",
"OX c #F0D450",
"+X c #DFE259",
"@X c #F4E85E",
"#X c #F2D366",
"$X c #ECE86D",
"%X c #787986",
"&X c #8D7F86",
"*X c #ED6E94",
"=X c #76CA9C",
"-X c #948488",
";X c #848693",
":X c #8A8B98",
">X c #8F919E",
",X c #999499",
"<X c #908791",
"1X c #A58989",
"2X c #A9999C",
"3X c #AF9594",
"4X c #BDA294",
"5X c #9B9DAA",
"6X c #9898A4",
"7X c #AA9FB9",
"8X c #9FA0AD",
"9X c #A4A4AE",
"0X c #AFA9AE",
"qX c #A8A9B4",
"wX c #B7ACB0",
"eX c #D1AF92",
"rX c #D9B89A",
"tX c #C5A082",
"yX c #DFBFA0",
"uX c #E0BFA1",
"iX c #F4B585",
"pX c #84C384",
"aX c #ADE08C",
"sX c #CDE981",
"dX c #A49FC6",
"fX c #A6A1C6",
"gX c #A9A3C5",
"hX c #AAA5C8",
"jX c #AFA8C5",
"kX c #BBBCC4",
"lX c #C6C6CC",
"zX c #D4D4DA",
"xX c #D5CFCF",
"cX c #E1DBD8",
"vX c #EDE2DB",
"bX c #F1E6DE",
"nX c #DEDDE1",
"mX c #E7E6E8",
"MX c #F2EFED",
"NX c #EEEEF1",
"BX c #F6F6F8",
"VX c #F6F5F6",
"CX c #F5F2EF",
/* pixels */
"dXdXdXdXdXdXdXdXdXdXdXdXdXdXdXdXdXdXdXdXdXdXdXdXdXdXdXdXdXdXdXdXdXdXdXdXdXdXdXdXdXdXdXdXdXdXdXdXdXdX",
"dXdXdXdXdXdXdXdXdXdXdXdXdXdXdXdXdXdXdXdXdXdXdXdXdXdXdXdXdXdXdXdXdXdXdXdXdXdXdXdXdXdXdXdXdXdXdXdXdXdX",
"dXdXdXdXdXdXdXdXdXdXdXdXdXdXdXdXdXdXdXdXdXdXdXdXdXdXdXdXdXdXdXdXdXdXdXdXdXdXdXdXdXdXdXdXdXdXdXdXdXdX",
"dXdXdXdXdXdXdXdXdXdXdXdXdXdXdXdXdXdXdXdXdXdXdXdXdXdXdXdXdXdXdXdXdXdXdXdXdXdXdXdXdXdXdXdXdXdXdXdXdXdX",
"dXdXdXdXdXdXdXdXdXdXdXdXjX&Xs x jXdXdXdXdXdXfXdXdXdXdXdXdXdXdXdXdXdX&Xs x jXdXdXdXdXdXdXdXdXdXdXdXdX",
"dXdXdXdXdXdXdXdXdXdXgX2.j c n c x s 7XfXfXfXfXgXdXdXdXgXhXgXfXfX2.x v n c x x 7XdXdXdXdXdXdXdXdXdXdX",
"dXdXdXdXdXdXdXdXdXdX2.w s N %XM c $ j 3.3.3.3.3.3.3.3.3.3.3.3.-.w a m %XM a 0 -.7XdXdXdXdXdXdXdXdXdX",
"dXdXdXdXdXdXdXdXdX5.L Z 1.:X:X%X&Xe J P P P P P H H H H H H P I / 1.>X;X%X&X/ J <.4XdXdXdXdXdXdXdXdX",
"dXdXdXdXdXdXdXhX3X/ *.*.1X0X>X;X,X] n.N.Z.Z.Z.Z.j.h.d.d.d.d.d.t.{ ^.qX>X;X,X] *.` 3.dXdXdXdXdXdXdXdX",
"dXdXdXdXdXdXdXdX3Xe _.e.eXlX9X9X5X] _.].[.[.[.].F.h.d.s.d.d.d.t.b.eXlX5X9X,X| m.| ;.dXdXdXdXdXdXdXdX",
"dXdXdXdXdXdXdXdX3X= W *.rXxXkXnX9X| ~ ! ~ ~ ~ $.! ! Q Q Q ! Q Q *.eXzXkXnX2X] ^ Z ;.hXdXdXdXdXdXdXdX",
"dXdXdXdXdXdXdX3Xw e _.e.uXmXmXNXcXe._.'.].].].].].].].].'.F.t.t.b.rXNXmXVXxX)._._ w 6.fXdXdXdXdXdXdX",
"dXdXdXdXdXdX3X1.s Z *.*.uXBXBXBXMX).M.K.H.H.H.H.H.H.H.H.Z.z.h.t.b.uXBXBXVXbX).*.` r v 9.fXdXdXdXdXdX",
"dXdXdXdXdXdX&X1.7.< +.*.uXBXBXBXCXm.y.h.l.l.l.l.l.l.l.l.l.l.f.d.b.uXBXBXVXbX).&.U j 1Xs dXdXdXdXdXdX",
"dXdXdXdXdXdX9.b &X< +.*.rXmXMXmXCX).t.g.f.f.f.f.f.f.f.f.f.f.f.t.*.eXmXNXmXvXe.+.U ;.2Xr dXdXdXdXdXdX",
"dXdXdXdXdXdX9.x 2.< +.$.1XxXxXkXMX).#.i.p.p.p.p.p.p.p.p.p.p.f.u.*.^.lXzXkXvXe.+.U s &X0 dXdXdXdXdXdX",
"dXdXdXdXdXdX9.x v > X.~ /.9XqXqXnXe.O.@.%.%.%.%.%.@.%.%.%.%.@.+.~ ~.qXqXqXvX*.o.G s 6.r dXdXdXdXdXdX",
"dXdXdXdXdXdXfX1.0 O < e 0.5X8X8XwXi 2 2 , B B , , B , B , B B , 8 0.5X5X8XqXi < = # g ,XhXdXdXdXdXdX",
"dXdXdXdXdXdXdXfX;.* G / 5.5X5X5X5X_ G U Y Y Y Y U Y Y Y Y Y U U L 5.5X5X5X,X( G B r 1XhXdXdXdXdXdXdX",
"dXdXdXdXdXdXfXfX1X; R W ~.6X6X>X6X[ o.@.%.@.X.X.X.....X.+.@.@.X.[ ~.5X6X>X,X] R A -.dXdXdXdXdXdXdXdX",
"dXdXdXdXdXdXdXhXq.C  .~ ~.,X>X;X6X] #.i.i.%.+.*.m.m.*.o.@.i.i.%.{ ~.>X>X%X-X] Q T :.fXfXdXdXdXdXdXdX",
"dXdXdXdXdXdXgX4X' ! O.~ ,.:X;X%X>X] +.%.%.@.X.^.tX^.w.} X.%.%.%.~ ,.;X;Xm 0.[ O.! [ 3.dXdXdXdXdXdXdX",
"dXdXdXdXdXdXfX~.S t.! W b N %X%X&X` !  .X. .~ 4X,X<X8.| E  .X. .W >.%X%Xm N ) ! O.R t dXdXdXdXdXdXdX",
"dXdXdXdXdXfXfX!.< W C y l M M m M e C B B B Z 8.f f b _ B B B B y l m m m N u C G I r qXdXdXdXdXdXdX",
"dXdXdXdXdXdXfX3Xk t . # q z z z z #         $ N f f c a X X   X # q d d d d # . w h 2.dXdXdXdXdXdXdX",
"dXdXdXdXdXdXdXfXdXdX$ $ $ 4 4 4 4 + * + + + = 2.p p l u O + + + + = 6 4 4 4 O O 2.dXdXdXdXdXdXdXdXdX",
"dXdXdXdXdXdXdXdXdXdX7 B F V A B C C B B B V L ] [ [ ] ` D B B B B B B y B D D 5 7.dXdXdXdXdXdXdXdXdX",
"dXdXdXdXdXdXdXdXdXdXe R E V : : : & < 2 2 L C.j.C.C.C.L.^ 3 Z 3 > - - - 1 R ..Z 8.dXdXdXdXdXdXdXdXdX",
"dXdXdXdXdXdXdXdXdXfX8 Q Q 1 . X . . 3 A A } oXJ.I. XT.Q.y.' ' i 6 O . X o R +.J 8.dXdXdXdXdXdXdXdXdX",
"dXdXdXdXdXdXdXdXdXfX8 Q Q 1 . O 3 y $.&.=..X#XJ.I.U.I.T.W.+XsX X' u 6 . * R +.J 8.dXdXdXdXdXdXdXdXdX",
"dXdXdXdXdXdXdXdXdXfX9 Q Q 1 + y L.C.Q.Y.S.V.N.v.Y.I.U.+X$XaX=XoXOX#X(.7 9 R +.J 8.hXdXdXdXdXdXdXdXdX",
"dXdXdXdXdXdXdXdXfXfX8 Q Q 1 y L.L.=X|.+X@X#X*X}.K.Q.+X+XOX.X$XOXE.OX#XoX`.! @.A 8.dXdXdXdXdXdXdXdXdX",
"dXdXdXdXdXdXdXdXdXfX8 Q Q S I c.x.`.pXaXoX.X{.*X}.V.E.XXE.S.N.=.N..XXXK.N.! +.J 8.gXdXdXdXdXdXdXdXdX",
"dXdXdXdXdXdXdXdXdXfX8  ...! y.x..XS.(. XG.J.@XiX[.H.E..X.X&.=.B.K.R.R.x.j. .+.S 8.fXdXdXdXdXdXdXdXdX",
"dXdXdXdXdXdXdXdXdXdXe Q ..t.x.v..Xr.F.D.D.E.XXXX XT.G.XXXXV.B.XXR.R.R.v.j.E #.J 8.fXfXdXdXdXdXdXdXdX",
"dXdXdXdXdXdXdXdXdXfX8 Q ..t.x.Y.K.r.B.v.R.E.Q.Y.P.P.T.E.XXE.J.W.W.W.W.v.j. .+.J 8.fXdXdXdXdXdXdXdXdX",
"dXdXdXdXdXdXdXdXdXdXe  .O.#.x.v.v.N.k.k.x.x.v.v.c.Y.v.x.S.x.x.x.Y.Y.Y.v.s. .@.A 8.fXdXdXdXdXdXdXdXdX",
"dXdXdXdXdXdXdXdXdXdXe  .%.u.a.f.a.a.a.a.a.p.g.a.d.d.a.a.a.a.a.a.g.f.g.a.i.%.@.Z 8.fXdXdXdXdXdXdXdXdX",
"dXdXdXdXdXdXdXdXdXdX4 : 1 1 1 1 B , , B B 1 B 2 , 1 1 B 1 1 , 2 B B 1 B 1 B > 4 7.fXdXdXdXdXdXdXdXdX",
"dXdXdXdXdXdXdXdXdXdXw : < , , , , + & > , < 2 h 0 q p 8 , , , : * & < , < , > = 7.fXdXdXdXdXdXdXdXdX",
"dXdXdXdXdXdXdXdXdXdXw B V V V V V % > B V V G 4.n M 2._ V V V B * : V V V V B 5 7.hXdXdXdXdXdXdXdXdX",
"dXdXdXdXdXdXdXdXdXdX7 B V U F F D o , D F F F ,.4.4.<.) U F V B & , F F U F V 5 7.fXdXdXdXdXdXdXdXdX",
"dXdXdXdXdXdXdXdXdXdX7 B F F F F F o , D F F F ) ) ) ) G V U U B & , F F F F V < 7.hXdXdXdXdXdXdXdXdX",
"dXdXdXdXdXdXdXdXdXdX7 V F F F F D o , D F F F F F D F F F F V B & , F F F F V 5 7.fXdXdXdXdXdXdXdXdX",
"dXdXdXdXdXdXdXdXdXdXw B V V F F D o , V F F F F F F F F V U V B & > F F V U V ; 7.fXdXdXdXdXdXdXdXdX",
"dXdXdXdXdXdXdXdXdXdX;.Z B B > B , % & > , , , , 1 , , , , : B : o & , , , , B -.qXdXdXdXdXdXdXdXdXdX",
"dXdXdXdXdXdXdXdXdXdXdX>.-.k -.i h k k h h h -.i h h h h k _ -.h k k h h -.h -.dXdXdXdXdXdXdXdXdXdXdX",
"dXdXdXdXdXdXdXdXdXdXdXdXdXdXdXdXdXdXdXdXdXdXdXdXdXdXdXfXdXdXdXdXdXdXdXdXdXdXdXdXdXdXdXdXdXdXdXdXdXdX",
"dXdXdXdXdXdXdXdXdXdXdXdXdXdXdXdXdXdXdXdXdXdXdXdXdXdXdXdXdXdXdXdXdXdXdXdXdXdXdXdXdXdXdXdXdXdXdXdXdXdX",
"dXdXdXdXdXdXdXdXdXdXdXdXdXdXdXdXdXdXdXdXdXdXdXdXdXdXdXdXdXdXdXdXdXdXdXdXdXdXdXdXdXdXdXdXdXdXdXdXdXdX"
};
