/* XPM */
static char *result[] = {
/* columns rows colors chars-per-pixel */
"50 50 200 2 ",
"   c #363639",
".  c #151517",
"X  c #440108",
"o  c #4F0C08",
"O  c #470A0E",
"+  c #561207",
"@  c #5D1606",
"#  c #561108",
"$  c #591409",
"%  c #5D1908",
"&  c #480D13",
"*  c #4A1219",
"=  c #4D181F",
"-  c #4B1116",
";  c #54191D",
":  c #500E0B",
">  c #611906",
",  c #6A1F05",
"<  c #641C08",
"1  c #6C2206",
"2  c #662407",
"3  c #742705",
"4  c #752A05",
"5  c #7D2F05",
"6  c #742B09",
"7  c #7F3406",
"8  c #763419",
"9  c #4D1D24",
"0  c #541C21",
"q  c #51212A",
"w  c #5B252A",
"e  c #532D35",
"r  c #5C2F36",
"t  c #5F3136",
"y  c #54323B",
"u  c #4F212B",
"i  c #602B2E",
"p  c #642F33",
"a  c #653336",
"s  c #653339",
"d  c #6B3A3B",
"f  c #7F493A",
"g  c #7C503E",
"h  c #573941",
"j  c #693D42",
"k  c #51484F",
"l  c #694348",
"z  c #714244",
"x  c #75494B",
"c  c #6A4D55",
"v  c #7B5254",
"b  c #7D555A",
"n  c #7F585B",
"m  c #755557",
"M  c #675157",
"N  c #7B675E",
"B  c #645863",
"V  c #725660",
"C  c #7F6666",
"Z  c #6B6C7B",
"A  c #6F707F",
"S  c #7C6F79",
"D  c #843404",
"F  c #863E06",
"G  c #8B3C06",
"H  c #8E3E08",
"J  c #913D03",
"K  c #823D15",
"L  c #854106",
"P  c #8F4406",
"I  c #964305",
"U  c #994501",
"Y  c #954F06",
"T  c #994309",
"R  c #9C591B",
"E  c #AA5307",
"W  c #A55D06",
"Q  c #A35005",
"!  c #B55B04",
"~  c #B95E04",
"^  c #B15A07",
"/  c #A55C1C",
"(  c #BE6403",
")  c #BB6409",
"_  c #BE6815",
"`  c #BA750D",
"'  c #96572C",
"]  c #9A6437",
"[  c #C36605",
"{  c #C46904",
"}  c #C96C07",
"|  c #CA7503",
" . c #D77503",
".. c #C3741E",
"X. c #C97815",
"o. c #C46C10",
"O. c #C47521",
"+. c #C77B26",
"@. c #895B47",
"#. c #815A5C",
"$. c #815759",
"%. c #976847",
"&. c #856959",
"*. c #A46F48",
"=. c #AD7749",
"-. c #835E60",
";. c #896968",
":. c #907065",
">. c #916F71",
",. c #837175",
"<. c #9C7C7D",
"1. c #937976",
"2. c #8A6E72",
"3. c #A57D62",
"4. c #DC8D06",
"5. c #D78504",
"6. c #D7801C",
"7. c #D58A08",
"8. c #ED9E02",
"9. c #E79702",
"0. c #E09112",
"q. c #EEA002",
"w. c #EEA20B",
"e. c #CC8128",
"r. c #DB953D",
"t. c #CF8935",
"y. c #EFAD2B",
"u. c #F2AF2A",
"i. c #F3B02F",
"p. c #ECAD34",
"a. c #9F8476",
"s. c #A18575",
"d. c #B78E70",
"f. c #DC9C49",
"g. c #CD9953",
"h. c #C08B4C",
"j. c #CE9764",
"k. c #C38D60",
"l. c #CFA465",
"z. c #E9B161",
"x. c #ECB448",
"c. c #FBC96A",
"v. c #F9C562",
"b. c #FACC74",
"n. c #7A7C8B",
"m. c #757584",
"M. c #8B7C85",
"N. c #7F818E",
"B. c #998686",
"V. c #8B8C9A",
"C. c #868793",
"Z. c #8C909D",
"A. c #96939F",
"S. c #81848E",
"D. c #A28C87",
"F. c #AC9B9B",
"G. c #9495A2",
"H. c #9799A4",
"J. c #9A9BA7",
"K. c #9B9DAA",
"L. c #AA9AAA",
"P. c #A499B5",
"I. c #9EA1AD",
"U. c #A1A3AF",
"Y. c #ACADAF",
"T. c #A4A5B2",
"R. c #A9ACB6",
"E. c #ABAEB8",
"W. c #ACA5B8",
"Q. c #B0A5B9",
"!. c #B4ABB1",
"~. c #D9B18E",
"^. c #CEA889",
"/. c #D7BAA1",
"(. c #FDD280",
"). c #DDC7B5",
"_. c #E1C4A8",
"`. c #E8D1BF",
"'. c #A49FC6",
"]. c #A5A0C6",
"[. c #AAA3C2",
"{. c #AEA9CB",
"}. c #B0A9C4",
"|. c #B6B7C1",
" X c #BDBFC6",
".X c #BEC0C7",
"XX c #C9C6CC",
"oX c #CBCCD3",
"OX c #D6D6DA",
"+X c #D4D3D6",
"@X c #D2CDCF",
"#X c #E8D2C0",
"$X c #E2D6C7",
"%X c #E1DAD9",
"&X c #DEDEE2",
"*X c #E5E5E9",
"=X c #F2F2F4",
"-X c #F7F8F9",
";X c #F8F8FA",
":X c #EEEEF1",
/* pixels */
"'.'.'.'.'.'.'.'.'.'.'.'.'.'.'.'.'.'.'.'.'.'.'.'.'.'.'.'.'.'.'.'.'.'.'.'.'.'.'.'.'.'.'.'.'.'.'.'.'.'.",
"'.'.'.'.'.'.'.'.'.'.'.'.'.'.'.'.'.'.'.'.'.'.'.'.'.'.'.'.'.'.'.'.'.'.'.'.'.'.'.'.'.'.'.'.'.'.'.'.'.'.",
"'.'.'.'.'.'.'.'.'.'.'.'.'.'.'.'.'.'.'.'.'.'.'.'.'.'.'.'.'.'.'.'.'.'.'.'.'.'.'.'.'.'.'.'.'.'.'.'.'.'.",
"'.'.'.'.'.'.'.'.'.'.'.'.'.'.'.'.'.'.'.'.'.'.'.'.'.'.'.'.'.'.'.'.'.'.'.'.'.'.'.'.'.'.'.'.'.'.'.'.'.'.",
"'.'.'.'.'.'.'.'.'.'.'.'.'.'.'.'.'.'.'.'.'.'.'.'.'.'.'.'.'.'.'.'.'.'.'.'.'.'.'.'.'.'.'.'.'.'.'.'.'.'.",
"'.'.'.'.'.'.'.'.'.'.'.'.'.'.'.'.'.'.'.'.'.'.'.'.'.'.'.'.'.'.'.'.'.'.'.'.'.'.'.'.'.'.'.'.'.'.'.'.'.'.",
"'.'.'.'.'.'.'.'.'.'.'.'.'.'.'.'.'.'.'.'.'.'.'.'.'.'.'.'.'.'.'.'.'.'.'.'.'.'.'.'.'.'.'.'.'.'.'.'.'.'.",
"'.'.'.'.'.'.'.'.'.'.'.'.'.'.'.'.'.'.'.'.'.'.'.'.'.'.'.'.'.'.'.'.'.'.'.'.'.'.'.'.'.'.'.'.'.'.'.'.'.'.",
"'.'.'.'.'.'.'.'.'.'.'.'.'.'.'.'.'.'.'.'.'.'.'.'.'.'.'.'.'.'.'.'.'.'.'.'.'.'.'.'.'.'.'.'.'.'.'.'.'.'.",
"'.'.'.'.'.'.'.'.'.'.'.'.'.'.'.'.'.'.'.'.'.'.'.'.'.'.'.'.'.'.'.'.'.'.'.'.'.'.'.'.'.'.'.'.'.'.'.'.'.'.",
"'.'.'.'.'.'.'.'.'.'.'.'.'.'.'.'.'.'.'.'.'.'.'.'.'.'.'.'.'.'.'.'.'.'.'.'.'.'.'.'.'.'.'.'.'.'.'.'.'.'.",
"'.'.'.'.'.'.'.'.'.'.'.'.'.'.'.'.'.'.'.'.'.'.'.'.'.'.'.'.'.'.'.'.'.'.'.'.'.'.'.'.'.'.'.'.'.'.'.'.'.'.",
"'.'.'.'.'.'.'.'.'.'.'.'.'.'.'.'.'.'.'.'.'.'.'.'.'.'.'.'.'.'.'.'.'.'.'.'.'.'.'.'.'.'.'.'.'.'.'.'.'.'.",
"'.'.'.'.'.'.'.'.'.'.'.'.'.'.'.'.'.'.'.'.'.'.'.'.'.'.'.'.'.'.'.'.'.'.'.'.'.'.'.'.'.'.'.'.'.'.'.'.'.'.",
"'.'.'.'.'.'.'.'.'.'.'.'.'.'.'.'.'.'.'.'.'.'.'.'.'.'.'.'.'.'.'.'.'.'.'.'.'.'.'.'.'.'.'.'.'.'.'.'.'.'.",
"'.'.].'.'.'.'.'.'.'.'.'.'.D.b L.'.'.'.'.'.'.'.'.'.'.'.'.'.'.'.'.'.'.<.x [.'.'.'.'.'.'.'.'.'.'.'.'.'.",
"'.'.'.'.'.'.'.'.'.'.P.n #.c M M b L.'.'.'.'.'.'.'.'.'.'.'.'.'.1.1.v c M c v Q.Q.].'.'.'.'.'.'.'.'.'.",
"'.'.'.'.'.'.'.'.'.B.0 y y m.m.B e 0 #.#.-.-.-.#.-.#.-.#.#.-.#.; = h m.m.B 0 s s Q.'.'.'.'.'.'.'.'.'.",
"'.'.'.'.'.'.'.'.'.' D C C G.N.m.N D Y Y Y Y Y Y Y Y Y Y Y Y Y 5 7 S G.n.n.x G G %.Q.'.'.'.'.'.'.'.'.",
"'.'.'.'.'.'.'.'.p J G 1.1.K.V.Z.:.I W W W W W W W W W W W W W G F B.K.C.Z.@.U I 6 >.'.'.'.'.'.'.'.'.",
"'.'.'.'.'.'.'.'.p H G 1.1.K.V.Z.:.P W W W W W W W W W W W W W G L B.K.V.A.@.I T 6 >.'.'.'.'.'.'.'.'.",
"'.'.'.'.'.'.'.'.s 5 6 D.D.R.I.K.;.4 L L F L F L L L L L L L L 6 6 F.T.I.I.v 5 7 < >.'.'.'.'.'.'.'.'.",
"'.'.'.'.'.'.'.'.s +.o._._..XE.R.3.X.u.i.i.i.i.u.q.8.8.8.q.q.8.( ( #X|.E.T.=.6.6.R >.'.'.'.'.'.'.'.'.",
"'.'.'.'.'.'.'.'.s l.+._._.oX&XOXd.t.b.(.(.(.(.b.u.i.i.u.u.w.q.( ( #XoX&XoXh.f.f.%.>.'.'.'.'.'.'.'.'.",
"'.'.'.'.'.'.'.}.i h..._._.;X;X;X~.+.z.z.z.z.z.z.z.z.z.z.z.0.4.( ( #X;X;X;Xj.t.t.' v {.'.'.'.'.'.'.'.",
"'.'.'.'.'.'.'.j & / ~ _._.;X;X;X~.) O.O.O.O.O.........{ { ( { ! ! `.;X;X;Xj._ _ K * $.[.'.'.'.'.'.'.",
"'.'.'.'.'.'.0 L.w g.O._._.;X;X;X~.e.c.c.c.c.c.c.c.v.v.w.q.q.q.( ( `.;X;X;Xj.r.r.] V M.z '.'.'.'.'.'.",
"'.'.'.'.'.[.; A.w g..._._.;X;X;X~.e.c.c.c.c.c.c.c.v.v.w.q.q.q.( { `.;X;X;Xj.r.r.] m M.z '.'.'.'.'.'.",
"'.'.'.'.'.'.0 XXa { [ /./.=X:X=X~.| q.q.q.q.w.i.y.y.y.w.q.q.q.( ( ).-X=X=Xj.}  .T >.L.z '.'.'.'.'.'.",
"'.'.'.'.'.'.0 B.q { [ s.s.oX.XoX~.} q.9.9.0.x.OXOX$X$Xp.4.9.q.( { D.OXE.OXj. . .T c 2.z '.'.'.'.'.'.",
"'.'.'.'.'.'.d M.0 ) ^ a.a.I.K.XX^.(  . .) x @Xq 0 a t $Xa }  .) ^ B.K.K.+Xk.[ [ P l ,.$.'.'.'.'.'.'.",
"'.'.'.'.'.'.'.l & $ $ ,.,.K.K.K.C $ $ % p Y.@XA.A.J.J.+XI.0 $ + # M.K.K.I.x $ $ : - #.'.'.'.'.'.'.'.",
"'.'.'.'.'.'.'.{.p ~ ! s.s.K.K.J.3.~ E E a S.  T.T.H.H.  V.= [ ! ! D.J.J.K.*.{ { G ;.{.'.'.'.'.'.'.'.",
"'.'.'.'.'.'.'.{.p ~ ! s.s.K.J.J.3.~ E E a S.k T.T.J.J.  V.0 [ ! ! D.K.J.K.*.{ { J ;.{.'.'.'.'.'.'.'.",
"'.'.'.'.'.'.'.'.d Q ~ s.a.K.C.C.s.! I I l *X+X*X*X&X&XZ.H.= E ! ! B.J.n.V.*.! ( D >.'.].'.'.'.'.'.'.",
"'.'.'.'.'.'.'.v ` 4.[ &.&.Z.N.N.3.[ ^ ^ s E.R.E.E.R.R.I.m.- } ( ( ;.Z.n.m.] | | 5./ ;.].'.'.'.'.'.'.",
"'.'.'.'.'.'.'.i 5.| ( &.&.m.m.Z %.^ T T e K.K.V.  I.K.J.m.& E ! ! N m.m.Z ' ( ( 5.W x '.'.'.'.'.'.'.",
"'.'.'.'.'.'.'.i 2 > $ M M A Z Z l @ $ $ r I.K.N.. K.I.H.m.* $ % > B Z m.Z y % > 1 % v '.'.'.'.'.'.'.",
"'.'.'.'.'.'.'.].W.w X = = u u u = X X X r K.K.I.Y.K.K.J.Z * X X X 9 9 9 u & X X b W.].'.'.'.'.'.'.'.",
"'.'.'.'.'.'.'.'.].j 1 5 5 5 5 4 < # 1 1 r K.K.I.|.J.J.N.Z * 1 o o 3 5 D 5 5 @ @ M.'.'.'.'.'.'.'.'.'.",
"'.'.'.'.'.'.'.'.'.j 1 5 5 5 5 5 < + 1 1 t K.K.I.|.J.J.n.Z * 3 o o 3 5 D D D > > <.'.'.'.'.'.'.'.'.'.",
"'.'.'.'.'.'.'.'.].d D U U U U U 4 < G J 8 m K.H.N.n.n.Z y 6 I # # D J U J J , , <.'.'.'.'.'.'.'.'.'.",
"'.'.'.'.'.'.'.'.].j D U U U U U 3 > U U G 8 j j e e e e 6 I U # # D U U U U , , <.'.'.'.'.'.'.'.'.'.",
"'.'.'.'.'.'.'.'.].j D U U U U U 4 > U U U J 3 3 3 3 3 3 I U U # # D U U U U < < <.'.'.'.'.'.'.'.'.'.",
"'.'.'.'.'.'.'.'.'.P.8 3 3 4 4 4 % $ 4 4 4 4 4 4 4 4 4 4 3 3 5 o o , 4 4 3 6 ' f }.'.'.'.'.'.'.[.'.'.",
"'.'.'.'.'.'.'.'.'.].D.$.n n n $.b b b b b n b n n n n n n #.n n $.#.$.#.$.#.'.'.'.'.'.'.'.'.'.[.'.'.",
"'.'.'.'.'.'.'.'.'.'.'.'.'.'.].'.'.'.'.].].].'.'.'.'.].].'.'.'.'.'.'.'.'.'.'.'.'.'.'.'.'.'.'.'.'.'.'.",
"'.'.'.'.'.'.'.'.'.'.'.'.'.'.'.'.'.'.'.].].].'.'.'.'.'.'.'.'.'.'.'.'.'.'.'.'.'.'.'.'.'.'.'.'.'.'.'.'.",
"'.'.'.'.'.'.'.'.'.'.'.'.'.'.'.'.'.'.'.'.'.'.'.'.'.'.'.'.'.'.'.'.'.'.'.'.'.'.'.'.'.'.'.'.'.'.'.'.'.'.",
"'.'.'.'.'.'.'.'.'.'.'.'.'.'.'.'.'.'.'.'.'.'.'.'.'.'.'.'.'.'.'.'.'.'.'.'.'.'.'.'.'.'.'.'.'.'.'.'.'.'."
};
