/* XPM */
static char *result[] = {
/* columns rows colors chars-per-pixel */
"50 50 216 2 ",
"   c #020101",
".  c #0B0303",
"X  c #080807",
"o  c #0B0B0B",
"O  c #140504",
"+  c #1C0504",
"@  c #1A0B09",
"#  c #0F100D",
"$  c #12140F",
"%  c #131312",
"&  c #171914",
"*  c #1A1B15",
"=  c #1C1D19",
"-  c #1B1310",
";  c #240505",
":  c #2B0605",
">  c #340605",
",  c #3C0706",
"<  c #3F0807",
"1  c #231712",
"2  c #1D2117",
"3  c #1E2119",
"4  c #22261A",
"5  c #24291D",
"6  c #262921",
"7  c #292C23",
"8  c #2D3324",
"9  c #2F3229",
"0  c #313626",
"q  c #313629",
"w  c #343B2B",
"e  c #353C2A",
"r  c #393D31",
"t  c #430706",
"y  c #4B0706",
"u  c #490808",
"i  c #530706",
"p  c #5A0707",
"a  c #540807",
"s  c #5D0807",
"d  c #5D0908",
"f  c #570808",
"g  c #620807",
"h  c #6D0807",
"j  c #630A09",
"k  c #6D0A09",
"l  c #720A09",
"z  c #7C0C0A",
"x  c #3A432D",
"c  c #3B452C",
"v  c #3D4432",
"b  c #3F4932",
"n  c #424D33",
"m  c #464E39",
"M  c #414735",
"N  c #465335",
"B  c #4A543A",
"V  c #4E5A3B",
"C  c #4C5936",
"Z  c #515E3E",
"A  c #5D7E2B",
"S  c #56702F",
"D  c #54633E",
"F  c #59683F",
"G  c #5E7D33",
"H  c #607E28",
"J  c #4E5741",
"K  c #525C42",
"L  c #566441",
"P  c #596644",
"I  c #5B6B44",
"U  c #5D694A",
"Y  c #5F7145",
"T  c #616F4B",
"R  c #617545",
"E  c #667B45",
"W  c #64754B",
"Q  c #66794A",
"!  c #697D4B",
"~  c #687E47",
"^  c #677552",
"/  c #830D0C",
"(  c #8A0C0B",
")  c #930F0E",
"_  c #9C0E0D",
"`  c #92110F",
"'  c #941210",
"]  c #9E1210",
"[  c #8A100E",
"{  c #A1110F",
"}  c #A31513",
"|  c #A91413",
" . c #AD1816",
".. c #B41614",
"X. c #B31816",
"o. c #BB1A18",
"O. c #A90F0E",
"+. c #C41B19",
"@. c #CC1D1B",
"#. c #D21F1D",
"$. c #D3211F",
"%. c #72A41F",
"&. c #5E812B",
"*. c #5D8226",
"=. c #5F8032",
"-. c #618727",
";. c #61852C",
":. c #658C2C",
">. c #688E2F",
",. c #638B26",
"<. c #6A9426",
"1. c #6E9D26",
"2. c #67902B",
"3. c #6B952D",
"4. c #6D992C",
"5. c #669027",
"6. c #719E25",
"7. c #719E2D",
"8. c #638332",
"9. c #678D30",
"0. c #6A8E34",
"q. c #668639",
"w. c #6B8D39",
"e. c #68863D",
"r. c #6C9531",
"t. c #6E9931",
"y. c #6E923A",
"u. c #709735",
"i. c #729D33",
"p. c #72963C",
"a. c #749C3A",
"s. c #799D3E",
"d. c #6FA024",
"f. c #72A323",
"g. c #77AC26",
"h. c #74A32D",
"j. c #78A92D",
"k. c #75A332",
"l. c #79A534",
"z. c #77A832",
"x. c #77A13A",
"c. c #7AA43C",
"v. c #7DAA3C",
"b. c #7BAC33",
"n. c #7EB234",
"m. c #7DB22C",
"M. c #6A8344",
"N. c #6E8944",
"B. c #6C844A",
"V. c #6F894A",
"C. c #718F44",
"Z. c #728C4B",
"A. c #749444",
"S. c #769942",
"D. c #799D44",
"F. c #749249",
"G. c #7C9C4C",
"H. c #79954D",
"J. c #758D52",
"K. c #758858",
"L. c #779152",
"P. c #7A9552",
"I. c #7E9C52",
"U. c #7E945B",
"Y. c #6E8153",
"T. c #7CA442",
"R. c #7EA14A",
"E. c #7FA942",
"W. c #748061",
"Q. c #81AD3C",
"!. c #85B839",
"~. c #89C236",
"^. c #8CC33A",
"/. c #839D5C",
"(. c #819E56",
"). c #82AB44",
"_. c #81A44D",
"`. c #86AC4B",
"'. c #88AF4C",
"]. c #86B343",
"[. c #8AB545",
"{. c #87B049",
"}. c #8AB44B",
"|. c #8EBA4C",
" X c #8BBA45",
".X c #91BC4D",
"XX c #82A253",
"oX c #89AC54",
"OX c #87A558",
"+X c #8DB451",
"@X c #8FB459",
"#X c #8FB854",
"$X c #93BC54",
"%X c #95BC59",
"&X c #92B45D",
"*X c #849864",
"=X c #8FAC62",
"-X c #8BA463",
";X c #92AA6C",
":X c #99B868",
">X c #9DB774",
",X c #90A272",
"<X c #A0BC73",
"1X c #93C549",
"2X c #99C557",
"3X c #8FC341",
"4X c #A2CE5F",
"5X c #9EC462",
"6X c #9EC06A",
"7X c #A1C763",
"8X c #A4C66C",
"9X c #A5CC6A",
"0X c #A4CB68",
"qX c #A9D06C",
"wX c #A6C774",
"eX c #ACD073",
/* pixels */
":X6X`.1.3.5.r._.6X:X8.&.>.>.p.`.{.3.>.>.>.>.;.S q.`.'.a.:.>./.:X%X9.9.<.4.5.9.>.>.>.9.9.9.A S &.9.p.",
"0XeX[.f.f.4.4.{.eX0X;.&.5.r.i..X.Xc.4.3.4.3.:.;.u.>X:X7.<.3.=XeX5X4.1.f.f.1.4.r.3.4.4.4.5.;.;.>.3.i.",
"2X2X!.h.1.5.>._.0X9X9.>.4.1.d.).Q.h.1.7.c.c.:.A w.L.oX`.}.v._.2X$X4.4.1.1.k.b.v.`.{.x.3.4.5.5.<.4.i.",
"^.^.v.4.r.&.&.T.qX0Xi.4.h.d.1.4.4.f.f.b. X}.r.;.w.L Z.:XeX$Xc.^.!.i.u.u.i.E.|..X0X0X{.t.4.6.%.1.4.4.",
"~.~.b.3.2.&.A T.0X5Xi.1.d.f.1.4.r.z.S.G.%X.Xy.0.V.9 V *X<X%Xa.~.n.D.C.Z.C.`.[. X5X8X{.t.1.h.f.4.4.4.",
"j.g.3.;.&.&.A a.1X3Xb.b.i.4.a.t.t.D.Y P *X>X_.p.V.3 7 J ,X&Xq.k.i.D.L V.H.a.i.a.T.c.b.b.b.4.4.4.3.<.",
"d.f.2.&.&.&.&.i.~.~.!.!.h.t.F.S.4.R.b 6 v K.OXk.N.2 o & W.%X8.<.1.A.x M.u.3.4.4.4.4.z.n.n.4.4.3.4.4.",
"m.g.4.*.*.,.2.4.!. X|. Xh.A.B.I.l.XXB x $ B /.s.V.2     W #X=.a.p.M.5 J.`.i.:.y.T.D.)..X[.7.<.i.4.4.",
"^.^.k.;.;.6.f.4.4.Q K =Xc.F.q OX.Xk.3.v.N n I.p.V.2     U !.,.S.E b $ B U.R.A J.M w =XqX5Xx.4.3.4.h.",
"!.!.h.;.:.j.j.i.2.^ K -XT.B.5 U.%Xl.3.k.N b I.v.V.*     D Q.;.V.F e # v Y.R.A L.r 7 oX2X.Xc.k.i.t.4.",
"f.g.6.<.i.[.|.x.;.Z.;X*XP q o v ^ Y.4.i.N 4 W XXP $     4 I K q 4 & X * w U.;.F.W I c.g.f.n.n.z.3.4.",
"f.f.7.<.i.[..Xs.G q.<XU.X         x p.A.c & v Y q X       X             X K.e.N.V.M.h.f.f.n.n.z.4.3.",
"1.4.6.1.l.$X5XOXe.M.P.I           3 E F 4 o 5 x =                         V E M.B.B.r.:.,.7.7.h.1.1.",
"<.4.6.f.j.4XeX*XW R F r                                                       0 Q V.y.H ;.>.4.1.f.f.",
"4.4.1.6.j.2X8X`.w.T w *                                   X       .   .       b C.C.y.;.>.7.4.1.f.1.",
"f.f.1.7.7.[..XQ.i.I # X                           . . . . . O + + + + . .   . C 8.8.A.a.z.n.!.z.4.4.",
"d.d.1.T.I.=X;XoXG.N                       . . O ; + + O O + : , y y > + .     0 R W V Z R L.(./.H.S.",
"1.4.x.OXY.B B V.B.e                     . + : , , , : ; ; > y g l l p : + .   o = = % % 3 8 e e Y Z.",
"4.t.E.=XW 6 & P D 4                   O ; > u d g g y : : y l ) { _ l t + .     .     X & 6 6 6 R (.",
"4.4.E.$X=XN   o o X                 . + > y j / ( / g , > f / X.+...( i ; .           & J W.U.K.[.!.",
"t.4.}.9X>XV o X X                   . ; , s / | ..} z t > i z  .o.} z a : .     . X . & L U.-XU.p.4.",
"t.3.{.qX6XY.L L B 3     .           . ; , h ' o.+.| z y > t j [ [ l a > + .           8 J.8XwX+Xi.4.",
"4.4.v.1X1XR.H.V.Y e     . . . . . . . ; , p / } | ` k t : : < u t > : + .             0 V.`.oXE.h.1.",
"4.r.b.^.3X[.{.G.M.b   . ; ; : : ; ; + + > t s l l d u > + + + @ O O O .               7 W V.V.Y l.f.",
"r.3.b.1X3X].].a.e.n . ; > < t t t , : ; ; : > t < > : + O . X . .                     & N L v 2 A.i.",
"4.t.+X9X:XJ.~ Y V 1 ; , y f s s d f t : + + + + + + @ O X .   .                       # 7 m I W M.q.",
"A.V.U.,X^ 9 & & @ ; > t f l z / z l s t ; @ + @ @ O . .                                 X 0 B.y.M.! ",
"k.a.J.P 9 #     O : , f l ' | X.] ( l i : ; ; ; ; ; ; + O .                         . o 5 Z C.N.q.e.",
"f.h.F.e # X     + : , p z } +.@..._ l y : , , t y t y > ; O .                         & m E M.B.q.&.",
"4.7.XXB.C c 4   O : t s z o.#.$.o._ l t , i g h h h h p t ; O .                       % v Z D Z C.3.",
"4.t.4.h.v.C.P o O ; > y k ' | ..{ / s t t j z ) _ _ ( h i ; O . .                       X o X o M.a.",
"3.4.4.i.a.A.I o . O ; < d k / ( / g y , y h )  .+..._ z p : O . .                   o o % % # o ! a.",
"a.J.Z.J.V.F.R o X . O ; > t y d f y > , y l } +.$.+.O./ p : O . .                 o D M.A.N.R I ! V.",
"u.F.Z.C.V.G.Z.= % 3 4 * @ ; : , , > : > y h ' X.+.X._ z p ; O .                   o E A.a.;.q.B.Z.C.",
"#X&XXXD.E.}.+XZ J W U.Y.M = @ + + + + ; , f z ` { ` / l i ; O .                   # Q A.a.>.w.a.D.D.",
"8X0X}.3.4.n.Q.G.F.p.5X>X^ w o   @ o O + + > < y s g g i > + .                     o I Z.s.i.t.3.3.i.",
"2X7X`.3.4.n.n.v.a.t.6X;Xv = X       . . . O + ; : , , > ; O           .           . w I F.c.7.r.3.r.",
"s.a.i.4.h.n.n.z.4.t.|.P.X               X . O O O + + + .             X             X 5 I -X{.v.3.r.",
"r.4.3.3.4.n.n.z.3.I.J.Y b b b 6 X             X * 0 e e 0           X o q v b 7 X o I ! Y.*X&Xc.5.3.",
"3.2.i.c.z.z.z.t.3.! e V Y Y I v %             o r F R R N .         o 0 P I W B % * F.A.P.OX@Xc.3.3.",
"3.3.b.$X[.i.4.3.t.V.I Z.H.P.F.^ L B e 9 0 5 & # m R V.A.E X     X 3 n Q G.G.P.U.^ ^ G.A.R.=X$XE.3.<.",
"t.t.T.$X}.t.4.3.3.t.k.7.4.i.5.*.A A.R R R I v % m W A.h.S.o     % m L.c.1.<.4.t.t.x.P.F.G.%X%X`.i.c.",
"v.a.#X0X2Xa.4.r.4.r.4.i.).|.).r.r.a.~ R M.R N = J R N.3.S.o   & 6 V Z.w.&.:.r.<.k.l.R.P.`.7XeX2X].[.",
"x.r.`.0X5Xc.4.3.4.4.3.t.].1X].4.4.G.w 7 F.S.R.V._.q.;.<._.% % >X:XW x ~ 8.>.a.t.f.j.E.x._.0XeX2X].!.",
"9.>.T.2X1Xk.3.3.3.3.l.v.v.Q.x.<.r.oXr 9 H.t.T.R.T.&.H i.@XD P 5X%XV.q W A.y.y.y.1.4.a.x.R.9X9X+Xz.c.",
"&.&.i.~.!.4.4.3.3.u.|. Xx.4.3.t.4.@X^ R R.4.a.T.p.&.&.).$X&X*X1X!.H.K B.P.A.8.&.r.r.t.t.T.0XeX+Xr.2.",
"&.&.t.~.!.i.t.4.4.7.].`.k.7.4.3.3.`.OX(.x.4.4.k.4.;.&.T.].T.a.~.n.S.Z.J.J.F.=.A 5.4.<.r.E.6XeX#Xt.>.",
"5.r.3.h.k.4.<.4.f.6.9.:.7.f.7.3.3.r.w.r.3.4.3.t.t.5.3.9.w.>.G i.t.r.a.a.T.y.A A 2.2.3.3.t.1X2XQ.2.r.",
"t.3.3.r.7.t.<.7.%.1.A -.<.%.6.3.i.;.H ;.3.3.3.4.r.4.3.;.;.-.8.r.3.3.r.t.x.y.A A 5.3.u.a.i.~.!.n.3.t.",
"<.t.7.6.f.Q.].v.i.<.-.;.,.;.2.].].>.H :.6.f.7.3.k.].].9.H ;.G t.4.1.1.j.k.u.q.;.`.{.).a.i.7.h.r.;.;."
};
