/* XPM */
static char *result[] = {
/* columns rows colors chars-per-pixel */
"50 50 213 2 ",
"   c #010101",
".  c #0B0303",
"X  c #080807",
"o  c #0B0B0B",
"O  c #140504",
"+  c #1A0504",
"@  c #1A0B09",
"#  c #0F100D",
"$  c #12140F",
"%  c #131312",
"&  c #171914",
"*  c #1A1B16",
"=  c #1C1D19",
"-  c #1B1310",
";  c #230505",
":  c #2A0605",
">  c #330606",
",  c #3C0706",
"<  c #3F0807",
"1  c #231712",
"2  c #1D2117",
"3  c #1E211A",
"4  c #22251B",
"5  c #24291D",
"6  c #262921",
"7  c #282C23",
"8  c #2E3325",
"9  c #2F3229",
"0  c #313626",
"q  c #313629",
"w  c #343B2B",
"e  c #343C29",
"r  c #393D31",
"t  c #440706",
"y  c #4B0706",
"u  c #4E0908",
"i  c #520706",
"p  c #5A0707",
"a  c #5C0807",
"s  c #5C0908",
"d  c #550807",
"f  c #620807",
"g  c #6D0807",
"h  c #6E0A09",
"j  c #620A09",
"k  c #710A09",
"l  c #7C0C0A",
"z  c #3A422C",
"x  c #3B452C",
"c  c #3D4432",
"v  c #3F4932",
"b  c #424C33",
"n  c #464E39",
"m  c #414735",
"M  c #465335",
"N  c #4A543A",
"B  c #4E5A3B",
"V  c #4C5A37",
"C  c #515E3E",
"Z  c #5D7E2B",
"A  c #56702F",
"S  c #54633D",
"D  c #59683F",
"F  c #5E7D33",
"G  c #607E28",
"H  c #4E5741",
"J  c #525C42",
"K  c #566441",
"L  c #596644",
"P  c #5B6B44",
"I  c #5D694A",
"U  c #5F7145",
"Y  c #616F4B",
"T  c #617545",
"R  c #667B45",
"E  c #64754B",
"W  c #66794A",
"Q  c #697D4B",
"!  c #687E47",
"~  c #677552",
"^  c #820C0B",
"/  c #8A0C0B",
"(  c #930F0E",
")  c #9C0E0D",
"_  c #91110F",
"`  c #971210",
"'  c #A0110F",
"]  c #A51513",
"[  c #B51614",
"{  c #B81917",
"}  c #A90F0E",
"|  c #C31B19",
" . c #CC1D1B",
".. c #D21F1D",
"X. c #D3211F",
"o. c #72A41F",
"O. c #5E812B",
"+. c #5D8226",
"@. c #5F8032",
"#. c #618727",
"$. c #61852C",
"%. c #658C2C",
"&. c #688E2F",
"*. c #638B26",
"=. c #6A9426",
"-. c #6E9D26",
";. c #67902B",
":. c #6B952D",
">. c #6D992C",
",. c #669027",
"<. c #719E25",
"1. c #719E2D",
"2. c #638332",
"3. c #678D30",
"4. c #6A8E34",
"5. c #668639",
"6. c #6B8D39",
"7. c #68863D",
"8. c #6C9531",
"9. c #6E9931",
"0. c #6E923A",
"q. c #709735",
"w. c #729D33",
"e. c #72963C",
"r. c #749C3A",
"t. c #799D3E",
"y. c #6FA024",
"u. c #72A323",
"i. c #77AC26",
"p. c #74A32D",
"a. c #78A92D",
"s. c #75A332",
"d. c #79A534",
"f. c #77A832",
"g. c #7BAC33",
"h. c #77A13A",
"j. c #7AA43C",
"k. c #7DAA3C",
"l. c #7EB234",
"z. c #7DB22C",
"x. c #6A8344",
"c. c #6E8944",
"v. c #6C844A",
"b. c #6F894A",
"n. c #718F44",
"m. c #728C4B",
"M. c #749444",
"N. c #769942",
"B. c #799D44",
"V. c #749249",
"C. c #7C9C4C",
"Z. c #79954D",
"A. c #718552",
"S. c #758D52",
"D. c #788A5C",
"F. c #779152",
"G. c #7A9552",
"H. c #7E9C52",
"J. c #7E945B",
"K. c #6E8153",
"L. c #7CA442",
"P. c #7EA14A",
"I. c #7FA942",
"U. c #748061",
"Y. c #81AD3D",
"T. c #80AF37",
"R. c #85B839",
"E. c #89C236",
"W. c #8CC33A",
"Q. c #819E56",
"!. c #839D5C",
"~. c #82AB44",
"^. c #81A44D",
"/. c #86AC4B",
"(. c #88AF4C",
"). c #86B343",
"_. c #8AB545",
"`. c #8BBA45",
"'. c #87B049",
"]. c #8AB44B",
"[. c #8EBA4C",
"{. c #91BC4D",
"}. c #82A253",
"|. c #89AC54",
" X c #87A558",
".X c #8DB451",
"XX c #8FB459",
"oX c #8FB854",
"OX c #93BC54",
"+X c #95BC59",
"@X c #92B45D",
"#X c #819562",
"$X c #869B66",
"%X c #8FAC62",
"&X c #8BA463",
"*X c #92AA6C",
"=X c #99B868",
"-X c #9DB774",
";X c #90A272",
":X c #A0BC73",
">X c #93C549",
",X c #99C557",
"<X c #8FC341",
"1X c #A2CE5F",
"2X c #9EC462",
"3X c #9EC06A",
"4X c #A1C763",
"5X c #A4C66C",
"6X c #A5CC6A",
"7X c #A4CB68",
"8X c #A9D06C",
"9X c #A6C774",
"0X c #ACD073",
/* pixels */
"=X3X/.-.:.,.8.^.3X=X2.O.3.3.e.(.'.8.8.&.&.%.$.A 5./.(.r.%.&.!.=XOX3.3.=.>.,.3.&.&.&.3.3.3.Z A O.8.e.",
"7X0X_.u.u.>.>.'.8X6X$.O.,.8.w.{.[.h.>.:.1.:.%.$.q.-X=X1.=.:.%X0X2X>.-.u.u.-.>.8.:.>.>.>.,.$.$.&.=.w.",
",X,XR.p.-.,.&.^.7X6X4.%.>.-.y.~.Y.p.-.>.j.j.%.Z 6.F.|./.].k.^.,X+X>.>.1.1.s.g.k.(.'.h.:.>.,.,.=.>.w.",
"W.W.k.>.8.O.O.L.8X6Xw.>.p.u.-.>.>.u.u.g.`.].:.F 6.K m.=X0XOXj.W.R.>.w.q.w.k.[.{.7X7X'.9.>.<.o.-.>.>.",
"E.E.g.:.;.O.Z L.7X2Xs.-.-.u.-.>.8.f.N.C.+X{.0.4.v.0 J #X:X+Xe.W.T.h.n.m.n./._.`.2X5X'.9.-.p.u.>.>.9.",
"a.i.:.$.O.O.Z r.>X<Xg.g.1.>.r.9.w.B.U L $X-X/.q.b.3 7 H ;X@X5.s.w.B.L v.V.r.w.r.L.r.g.g.g.>.>.>.:.=.",
"y.u.;.O.O.O.O.w.E.E.R.R.p.8.V.B.>.P.c 6 z D. Xr.c.2 o & U.+X$.=.>.M.z v.r.:.>.>.>.:.d.l.l.>.>.:.>.>.",
"z.i.>.+.+.*.;.>.R._.[._.s.N.v.H.d.^.N c $ N !.r.b.2     E oX2.r.r.x.5 m./.q.%.0.L.L.~.{._.1.=.w.>.>.",
"W.W.s.$.#.<.u.>.>.Q J %Xj.V.q  X{.s.>.j.M b }.e.b.2     I R.#.B.x.v $ N J.P.Z S.m w XX0X2Xh.>.:.>.>.",
"R.R.p.$.%.a.a.w.;.~ H &XL.v.5 J.+Xd.:.s.M c H.k.b.2     K T.$.b.K e # c K.P.Z G.r 7  X,X{.j.s.w.9.>.",
"u.i.<.=.w._.[.r.G m.*X$XL q # c ~ A.9.9.M 5 E }.K %     4 P H w 5 & X * w !.@.V.E P j.i.u.l.l.f.:.>.",
"u.u.1.=.w._.{.L.2.5.:XJ.X         z e.N.x $ c U q X       X           X   D.5.c.b.x.p.u.u.l.l.f.>.:.",
"-.>.<.-.d.OX2X Xx.x.J.P           4 T T 5 X 6 z =                         B R x.v.v.8.%.%.1.1.p.-.-.",
"=.>.<.u.a.1X0X#XT T L z                                                       8 W b.0.Z $.3.>.-.u.u.",
">.>.-.<.a.,X5X/.6.P w *                                                     . b n.e.6.%.&.-.>.-.u.y.",
"u.u.-.1.1._.{.Y.w.P % X                             X                         C 2.F M.r.p.R.R.f.>.>.",
"y.y.-.B.H.%X*X|.B.N                                                           0 T E N S R S.Q.Q.F.B.",
"y.>.s. XK.N N b.v.e                                                           o 3 6 % % = 8 q r U m.",
">.9.I.%XW 6 * K S 5                                                                   X % 6 6 5 T H.",
">.9.I.OX%XM   o o X                                                                   % H D.#XD._.R.",
"9.>.].6X-XN o o X                                                                     3 S #X$XJ.r.>.",
"9.:.'.8X3XA.K S N 3       .                                                           e m.5X9X.Xq.>.",
">.>.k.>X>X}.Z.b.E q     . . O . .                                                     q m./.|.~.p.y.",
">.9.g.E.<X_.'.B.x.m   . ; ; ; : ; ; + O .                                             7 E n.v.T j.u.",
"8.8.g.>X>XY.).r.7.b . ; > t t t t < > ; + . . X   . .                                 & n L c 2 M.1.",
">.8.].6X=XS.! T C 1 ; , y d p j p p y , ; + O . X .                                   o 7 M L E x.5.",
"N.v.J.;X~ 8 & & @ + > t p k l ^ l k f t : ; + O O O .                                 . X 0 v.e.x.! ",
"w.t.F.P q #     + ; < d k _ ] { ' / k u > ; : : : : ; + O .                           o 5 S c.c.7.7.",
"u.p.V.w o X     + : < p l ] {  .[ ) k y : , < t y y t , ; O .                         % n T c.c.5.Z ",
">.p.H.v.B x 3 . + : t p ^ { X.X.{ ' k t , i f g g g g p t ; O .                       % c C S C c.8.",
">.9.>.p.k.n.K o O ; > u h ` } { ' ^ a t t f l ( ) ( / g i ; O . . .                   X X o X X x.r.",
":.>.>.>.L.n.P # . O ; < d h l ( ^ f y , y h ( [ | [ ) l p : O . .                   o o % % % o v.e.",
"r.S.m.S.b.V.U o   X O ; > t u s s y > , i h ] | X.| } ^ p ; O O   .               X D ! M.x.R L ! b.",
"q.V.b.n.b.C.F.= % 3 3 - @ ; : , < > : > y g _ { | { ) l p ; O .                 X o R M.r.$.7.c.m.n.",
".X@X}.L.I.]..XC B E J.K.m = O @ @ + @ ; , s l _ ' ( ^ h i ; . .                   o W M.h.&.4.t.N.B.",
"6X7X.X:.>.l.Y.C.V.N.7X-XY q o . O O O O + > , u s f f i , + .                     o P m.e.w.8.:.:.w.",
",X4X'.:.>.l.l.k.9.9.3X*Xc = X     . . . O O + ; : , t > ; . .                     X e L Z.h.w.9.:.w.",
"r.e.w.>.p.l.l.f.8.9.OXG.o                 . O O O + + + O           . X             X 6 P &X].j.:.8.",
"8.>.:.:.>.l.l.f.:.H.m.U b v v 6 o             X * 0 e e 0       .   . o q c v 7 X o L ! Q &XOXj.,.:.",
":.;.w.j.f.f.f.9.>.Q z N U U P c %         X   o r L T T M .         # q K T E N % * V.Z.G.!.XXj.:.:.",
":.:.g.OX_.w.>.:.9.b.P A.C.G.V.W K N q 8 0 5 & # n T b.M.R X     X = n ! C.B.G.J.~ ~ C.N.H.%XOXI.:.=.",
"9.>.L.+X].9.>.:.8.9.s.1.>.w.;.O.Z N.R T T P z % n E M.p.N.o     % n F.h.-.=.9.w.w.h.Z.m.C.+X+X/.w.h.",
"j.r..X6X,Xh.>.:.>.8.>.w.~.[.~.8.8.e.R W v.U N 2 B E c.:.N.o   & 7 B m.6.Z &.8.=.d.d.H.C./.4X0X,X)._.",
"h.w./.6X2Xh.>.:.>.>.=.9.).>X).>.>.C.w 7 V.N.P.b.P.5.2.=.}.% % -X*XE x R 2.&.r.9.u.a.k.r.^.7X0X,X_.R.",
"&.%.L.,X>Xr.>.:.:.:.d.k.j.Y.h.=.8.|.r 9 Z.9.L.P.L.Z G w.@XD I 2X,Xv.w W M.e.0.6.-.>.r.r.P.6X6X.Xf.h.",
"O.O.w.E.R.>.>.:.:.w.[.`.h.>.:.9.:..X~ T ^.9.w.L.r.Z O.~.+X X!.<XR.Z.S Q G.M.$.Z 8.8.8.w.I.7X0X.X8.%.",
"O.O.9.W.R.w.9.>.>.>.)./.s.1.>.:.:.(. XQ.r.>.>.s.>.$.O.L._.k.r.E.l.N.m.S.S.V.@.Z ,.>.=.8.I.=X0X.X9.8.",
",.:.:.p.s.>.=.>.u.u.&.%.1.u.1.:.>.4.6.8.>.>.:.9.9.;.:.3.6.&.F w.9.8.r.r.L.0.Z O.;.;.:.:.9.>X,XR.;.8.",
"9.:.:.8.1.9.=.1.o.u.Z #.=.o.u.:.>.$.Z $.=.:.:.>.8.>.:.$.$.#.F 8.:.:.8.9.h.0.Z Z ,.:.q.h.w.E.R.g.:.9.",
"=.9.1.<.u.Y.).j.w.=.$.$.#.$.:.).'.3.#.%.<.u.1.:.s.).).3.G $.F w.>.-.-.a.d.8.5.$././.~.r.w.1.p.8.$.$."
};
