/* XPM */
static char *result[] = {
/* columns rows colors chars-per-pixel */
"50 50 179 2 ",
"   c #0D4D12",
".  c #0F5113",
"X  c #125615",
"o  c #145A16",
"O  c #14650F",
"+  c #1D7D0E",
"@  c #1A641A",
"#  c #1E6B1C",
"$  c #236F1F",
"%  c #227D16",
"&  c #25741F",
"*  c #264F28",
"=  c #234233",
"-  c #345737",
";  c #267820",
":  c #2A7D22",
">  c #257720",
",  c #33124B",
"<  c #361C4B",
"1  c #311B46",
"2  c #361451",
"3  c #381554",
"4  c #3E175D",
"5  c #3F185F",
"6  c #391A51",
"7  c #38254B",
"8  c #3B2E4B",
"9  c #302043",
"0  c #3D334D",
"q  c #3E3A4B",
"w  c #3C2552",
"e  c #3F1860",
"r  c #482E5D",
"t  c #413652",
"y  c #411964",
"u  c #461C6C",
"i  c #481C6F",
"p  c #491D72",
"a  c #4C2969",
"s  c #4E2770",
"d  c #512B72",
"f  c #503373",
"g  c #374041",
"h  c #3F6740",
"j  c #424C4B",
"k  c #44514B",
"l  c #455B51",
"z  c #4A694B",
"x  c #416044",
"c  c #4D754A",
"v  c #4F7C4A",
"b  c #667E71",
"n  c #68677C",
"m  c #1F8010",
"M  c #238413",
"N  c #278A16",
"B  c #29811D",
"V  c #2A8D19",
"C  c #258019",
"Z  c #2E931C",
"A  c #339B1F",
"S  c #31961F",
"D  c #2C8423",
"F  c #318426",
"G  c #308A26",
"H  c #388A2E",
"J  c #35872B",
"K  c #349C20",
"L  c #36942A",
"P  c #38972A",
"I  c #3A9A2B",
"U  c #389E25",
"Y  c #3D8C33",
"T  c #36A122",
"R  c #39A524",
"E  c #3CAB26",
"W  c #3EA32E",
"Q  c #438C3B",
"!  c #48933E",
"~  c #40A52F",
"^  c #41B02A",
"/  c #43AA31",
"(  c #46B432",
")  c #4BB935",
"_  c #4DC433",
"`  c #51C538",
"'  c #54CA39",
"]  c #52C737",
"[  c #5BD53D",
"{  c #5DDA3E",
"}  c #57D13A",
"|  c #4D894A",
" . c #50854A",
".. c #538F4A",
"X. c #4E9242",
"o. c #509747",
"O. c #53944B",
"+. c #56994B",
"@. c #558B5A",
"#. c #5C9A56",
"$. c #599559",
"%. c #58AF47",
"&. c #57A249",
"*. c #5AA44C",
"=. c #5CB34C",
"-. c #5DBA49",
";. c #5FA559",
":. c #62AE59",
">. c #60A65A",
",. c #66B25D",
"<. c #62B756",
"1. c #5E9363",
"2. c #649967",
"3. c #698A73",
"4. c #6C9175",
"5. c #6D9778",
"6. c #719078",
"7. c #66A861",
"8. c #74AA6D",
"9. c #7FAC7F",
"0. c #78AD71",
"q. c #5FC149",
"w. c #5DD440",
"e. c #5FDE40",
"r. c #61CB49",
"t. c #60DF40",
"y. c #64D24D",
"u. c #65DA4A",
"i. c #62D746",
"p. c #63C254",
"a. c #67D450",
"s. c #5FE141",
"d. c #62E342",
"f. c #65EC44",
"g. c #68EE47",
"h. c #67E34A",
"j. c #68E34C",
"k. c #67E848",
"l. c #69ED48",
"z. c #67F045",
"x. c #6AF647",
"c. c #6BF548",
"v. c #5C3182",
"b. c #664686",
"n. c #69438A",
"m. c #6A458B",
"M. c #6C5788",
"N. c #6B4A93",
"B. c #6F5197",
"V. c #755796",
"C. c #7D6C93",
"Z. c #7E7B97",
"A. c #757589",
"S. c #82649D",
"D. c #8567A0",
"F. c #866AA1",
"G. c #8A74AA",
"H. c #8E7BAB",
"J. c #8E7AA6",
"K. c #7B988D",
"L. c #83A789",
"P. c #94AC9E",
"I. c #9483AE",
"U. c #949DAE",
"Y. c #9584B3",
"T. c #9A8AB5",
"R. c #9D92BC",
"E. c #A28DB5",
"W. c #A0B5AB",
"Q. c #A4A9BC",
"!. c #A2A7BA",
"~. c #A49FC6",
"^. c #A99FC3",
"/. c #A6A1C6",
"(. c #A8A4C7",
"). c #AAACC3",
"_. c #A7A3C8",
"`. c #A9A5C9",
"'. c #ADA9CB",
/* pixels */
"~.~.~.~.~.~.~.~.~.~.~.~.~.~.~.~.~.~.~.~.~.~.~.~.~.~.~.~.~.~.~.~.~.~.~.~.~.~.~.~.~.~.~.~.~.~.~.~.~.~.",
"~.~.~.~.~.~.~.~.~.~.~.~.~.~.~.~.~.~.~.~.~.~.~.~.~.~.~.~.~.~.~.~.~.~.~.~.~.~.~.~.~.~.~.~.~.~.~.~.~.~.",
"~.~.~.~.~.~.~.~.~.~.~.~.~.~.~.~.~.~.~.~.~.~.~.~.~.~.~.~.~.~.~.~.~.~.~.~.~.~.~.~.~.~.~.~.~.~.~.~.~.~.",
"~.~.~.~.~.~.~.~.~.~.~.~.~.~.~.~.~.~.~.~.~.~.~.~.~.~.~.~.~.~.~.~.~.~.~.~.~.~.~.~.~.~.~.~.~.~.~.~.~.~.",
"~.~.~.~.~.~.~.~.~.~.~.~.~.~.~.~.~.~.~.~.~.~.~.~.~.~.~./.~.~.~.~.~.~.~.~.~.~.~.~.~.~.~.~.~.~.~.~.~.~.",
"~.~.~.~.~.~.~.~.~.~.~.~.~.~.~.~.~.~.~.~.~.~.~./.~.~./._.~.~.~.~.~.~.~.~.~.~.~.~.~.~.~.~.~.~.~.~.~.~.",
"~.~.~.~.~.~.~.~.~.~.~.~.~.~.~.~.~.~.~.~.~./.U.K.5.1.1.| @././.~.~.~.~.~.~.~.~.~.~.~.~.~.~.~.~.~.~.~.",
"~.~.~.~.~.~.~.~.~.~.~.~.~.~.~.~.~.~.~.~.`.o.N [ x.x.x.S V C 3./.~.~.~.~.~.~.~.~.~.~.~.~.~.~.~.~.~.~.",
"~.~.~.~.~.~.~.~.~.~.~.~.~.~.~.~.~.~./.(.#.V { x.x.x.f.f.c.K m @././.~.~.~.~.~.~.~.~.~.~.~.~.~.~.~.~.",
"~.~.~.~.~.~.~.~.~.~.~.~.~.~.~.~.~.~.~.9.Z { x.x.f.f.e.w.d.x.E m J ).~.~.~.~.~.~.~.~.~.~.~.~.~.~.~.~.",
"~.~.~.~.~.~.~.~.~.~.~.~.~.~.~.~.~.~./.8._ x.x.f.w.e.z.s.[ d.c.R m | /.~.~.~.~.~.~.~.~.~.~.~.~.~.~.~.",
"~.~.~.~.~.~.~.~.~.~.~.~.~.~.~.~.~.~.).+._ x.f.{ e.z.x.x.s.[ x.d.N B (.~.~.~.~.~.~.~.~.~.~.~.~.~.~.~.",
"~.~.~.~.~.~.~.~.~.~.~.~.~.~.~.~.~.~.9.+ _ x.{ { z.c.x.x.c.s.x.%.U m 1./.~.~.~.~.~.~.~.~.~.~.~.~.~.~.",
"~.~.~.~.~.~.~.~.~.~.~.~.~.~.~.~.~./.8.+ _ f.d.z.x.q.k.x.c.x.x.0 X.% J /.~.~.~.~.~.~.~.~.~.~.~.~.~.~.",
"~.~.~.~.~.~.~.~.~.~.~.~.~.~.~.~.~./.8.+ R ' f.x.=.q c g.c.z.&.< 1 * x /.~.~.~.~.~.~.~.~.~.~.~.~.~.~.",
"~.~.~.~.~.~.~.~.~.~.~.~.~.~.~.~.~./.0.+ m ( f.x.j , , v k.g.0 < z 7 r /.~.~.~.~.~.~.~.~.~.~.~.~.~.~.",
"~.~.~.~.~.~.~.~.~.~.~.~.~.~.~.~.~.~.8.+ T ' f.x.j , , < i.x.O.8 r.| x `./.~.~.~.~.~.~.~.~.~.~.~.~.~.",
"~.~.~.~.~.~.~.~.~.~.~.~.~.~.~.~.~.).! + _ { f.x.j , , < i.x.x.+.i.| - P.~.~.~.~.~.~.~.~.~.~.~.~.~.~.",
"~.~.~.~.~.~.~.~.~.~.~.~.~.~.~.~.~.L.+ A } [ f.x.&.0 , v k... . .c < 9 F _.~.~.~.~.~.~.~.~.~.~.~.~.~.",
"~.~.~.~.~.~.~.~.~.~.~.~.~.~.~.~./.O.+ _ e.d.z.x.x.&. .k.O.< , 5 e e < l `.~.~.~.~.~.~.~.~.~.~.~.~.~.",
"~.~.~.~.~.~.~.~.~.~.~.~.~.~.~.~.L.+ T } d.x.x.x.x.x.x.g.8 , 5 p i e s ^.~.~.~.~.~.~.~.~.~.~.~.~.~.~.",
"~.~.~.~.~.~.~.~.~.~.~.~.~.~.~.).L O ( z.z.x.x.x.x.x.x.z < y i p e s /./.~.~.~.~.~.~.~.~.~.~.~.~.~.~.",
"~.~.~.~.~.~.~.~.~.~.~.~.~.~.(.Q + o # ] x.x.x.x.x.x.x.t , i p 5 d /.~.~.~.~.~.~.~.~.~.~.~.~.~.~.~.~.",
"~.~.~.~.~.~.~.~.~.~.~.~.~.~.O.+ E _ & # D D D { x.x. .< y p 4 s ~.~.~.~.~.~.~.~.~.~.~.~.~.~.~.~.~.~.",
"~.~.~.~.~.~.~.~.~.~.~.~.~.!.% R [ t.} ) ) ) ) f.x. .7 y i p 2 a ~.~.~.~.~.~.~.~.~.~.~.~.~.~.~.~.~.~.",
"~.~.~.~.~.~.~.~.~.~.~.~.~.O.+ ^ [ t.x.x.x.x.x.x. .7 , i p 4 , 6 Y.~.~.~.~.~.~.~.~.~.~.~.~.~.~.~.~.~.",
"~.~.~.~.~.~.~.~.~.~.~./.!.+ A ] t.z.x.x.x.x.x.x.j , , i i u , *.M.`._.~.~.~.~.~.~.~.~.~.~.~.~.~.~.~.",
"~.~.~.~.~.~.~.~.~.~.~./.F A ' d.x.x.x.x.x.x.x.x.j , , u p p 2 i.F Y Y O./.~.~.~.~.~.~.~.~.~.~.~.~.~.",
"~.~.~.~.~.~.~.~.~.~.~.J + R t.z.~ ) x.x.x.x.x.z < , , 3 i p i t g w.e.e.$./.~.~.~.~.~.~.~.~.~.~.~.~.",
"~.~.~.~.~.~.~.~.~.~.W.+ A } x.~ X / x.x.x.x.x.j , , , , 3 3 u u u 0 g c.w.Y.~./.~.~.~.~.~.~.~.~.~.~.",
"~.~.~.~.~.~.~.~.(.$.G A ' t.x.P I f.x.x.x.x.x.j , , , , , , 2 i s i 8 c.a.b._./.~.~.~.~.~.~.~.~.~.~.",
"~.~.~.~.~.~.~./.Q m M R t.z.x.P W g.x.x.x.x.x.i.i.r.k 7 7 7 , 3 w 0 y.c.c.p.J./.~.~.~.~.~.~.~.~.~.~.",
"~.~.~.~./.~.~.).+ K [ ] d.x.x.L o ) c.x.x.x.c.c.x.x.u.i.w.r.w 7 -.u.c.x.x.c.,.Y._./.~.~.~.~.~.~.~.~.",
"~.~.~.~./././.% K x.d.e.x.x.x.x.I o X   ~ f.: ' x.c.x.x.x.x.x.c.x.x.x.d.d.x.=.M._./.~.~.~.~.~.~.~.~.",
"~.~.~.~.(.Y D + K f.w.s.x.x.x.x.z.d.f.G . o _ z.x.x.x.x.x.x.x.c.x.x.s.o # w.o = v.H._.~.~.~.~.~.~.~.",
"~.~././.C M M T c.d.s.c.x.x.x.x.x.x.x.x.c.c.c.c.x.x.x.x.x.x.x.x.x.x.c.f.o X : z.x.p.f I.~.~.~.~.~.~.",
"~.~.~.4.Z d.f.f.f.[ d.x.x.x.x.x.x.x.x.x.x.x.x.x.x.x.x.x.x.x.x.x.x.x.x.x.d.d.z.x.x.c.j.,.Y._././.~.~.",
"~.~.~.#.x.x.x.x.z.d.d.d.x.x.x.x.x.x.x.x.x.x.x.x.x.x.{ { x.x.x.x.x.x.{ w.x.x.x.x.x.x.x.x.;.Y.~.~.~.~.",
"~.~.~.$.z.x.x.x.c.c.( G d.x.x.x.x.x.x.x.x.x.x.x.c.z.L @ ] c.c.x.z.' o : x.x.x.x.x.x.x.x.>.G./.~.~.~.",
"~.~.~.Z.a.x.x.x.x.c.) o D e.d.x.x.x.d.{ z.x.x.c.x.x.c.&   ] { [ ] X : z.x.x.x.x.x.x.x.l.2.T./.~.~.~.",
"~.~.~./.A.a.y.j.x.x.x.( @ o G w.[ { D o ) c.x.x.x.x.x.z.> # @ # @ & x.x.c.c.x.x.x.x.l.7.E.`.~.~.~.~.",
"~.~.~.~./.V.m.M.a.y.y.a.j.) @ @ @ @ @ ) x.x.x.x.x.x.x.x.x.x.x.x.x.x.x.x.x.c.c.a.y.a.,.I.`.~.~.~.~.~.",
"~.~.~.~.~.~.~.`.G.m.n.n.b a.j.x.x.x.c.c.x.x.x.x.x.x.x.x.x.x.x.x.x.x.x.x.x.a.7.b.m.N.Y.`.~.~.~.~.~.~.",
"~.~.~.~.~.~.~.~./.~./.~.~.V.3.p.p.p.j.c.x.c.x.x.x.x.x.x.x.x.x.x.x.c.<.p.<.V.E.~./.~./.~.~.~.~.~.~.~.",
"~.~.~.~.~.~.~.~.~.~.~.~.~.~.~.H.C.C.K.y.x.x.x.x.x.x.x.x.x.x.<.;.:.7.F.G.R.^.~.~.~.~.~.~.~.~.~.~.~.~.",
"~.~.~.~.~.~.~.~.~.~.~.~.~.~.~.~./._.~.3.:.:.:.:.<.:.:.:.:.7.C.F.D.R././.~.~.~.~.~.~.~.~.~.~.~.~.~.~.",
"~.~.~.~.~.~.~.~.~.~.~.~.~.~.~.~.~.~.~.R.B.N.N.N.N.N.N.N.V.Y.~.~.~.~./.~.~.~.~.~.~.~.~.~.~.~.~.~.~.~.",
"~.~.~.~.~.~.~.~.~.~.~.~.~.~.~.~.~.~.~.~.~.~.~.~.~.~.~.~.~.~.~.~.~.~.~.~.~.~.~.~.~.~.~.~.~.~.~.~.~.~.",
"~.~.~.~.~.~.~.~.~.~.~.~.~.~.~.~.~.~.~.~.~.~.~.~.~.~.~.~.~.~.~.~.~.~.~.~.~.~.~.~.~.~.~.~.~.~.~.~.~.~.",
"~.~.~.~.~.~.~.~.~.~.~.~.~.~.~.~.~.~.~.~.~.~.~.~.~.~.~.~.~.~.~.~.~.~.~.~.~.~.~.~.~.~.~.~.~.~.~.~.~.~."
};
