/* XPM */
static char *result[] = {
/* columns rows colors chars-per-pixel */
"50 50 196 2 ",
"   c #000000",
".  c #080807",
"X  c #0B0B0A",
"o  c #070806",
"O  c #0F100D",
"+  c #12140F",
"@  c #131412",
"#  c #171914",
"$  c #191B16",
"%  c #1C1D19",
"&  c #1D2117",
"*  c #1E211A",
"=  c #21251B",
"-  c #24291E",
";  c #262921",
":  c #282C23",
">  c #2E3425",
",  c #2F3229",
"<  c #313726",
"1  c #323926",
"2  c #31352A",
"3  c #343A2B",
"4  c #383F2E",
"5  c #393D31",
"6  c #3A432D",
"7  c #3B452C",
"8  c #3D4432",
"9  c #3F4932",
"0  c #424C33",
"q  c #464E39",
"w  c #465335",
"e  c #495536",
"r  c #4F5E37",
"t  c #4A543A",
"y  c #4E5A3B",
"u  c #525F3E",
"i  c #56702F",
"p  c #5D7E2B",
"a  c #54633D",
"s  c #59683F",
"d  c #5E7D33",
"f  c #607E28",
"g  c #4E5741",
"h  c #525C42",
"j  c #566341",
"k  c #586644",
"l  c #5B6B44",
"z  c #5D694A",
"x  c #5F7145",
"c  c #616F4B",
"v  c #617545",
"b  c #667B45",
"n  c #64754B",
"m  c #66794A",
"M  c #697D4B",
"N  c #687E47",
"B  c #667451",
"V  c #6A7855",
"C  c #72A41F",
"Z  c #5D8226",
"A  c #5E812B",
"S  c #5F8032",
"D  c #618727",
"F  c #638B26",
"G  c #61852C",
"H  c #658C2C",
"J  c #688E2F",
"K  c #6A9426",
"L  c #6E9D26",
"P  c #67902B",
"I  c #6B952D",
"U  c #6D992C",
"Y  c #669027",
"T  c #719E25",
"R  c #719E2D",
"E  c #638332",
"W  c #678D30",
"Q  c #6A8E34",
"!  c #668639",
"~  c #68863D",
"^  c #6B8D39",
"/  c #6C9531",
"(  c #6E9931",
")  c #6E923A",
"_  c #709735",
"`  c #729D33",
"'  c #72963C",
"]  c #749C3A",
"[  c #799D3E",
"{  c #6FA024",
"}  c #72A323",
"|  c #77AC26",
" . c #74A32D",
".. c #79A72E",
"X. c #76A92B",
"o. c #7AAC2E",
"O. c #7DB22C",
"+. c #75A332",
"@. c #79A534",
"#. c #77A832",
"$. c #7BAC33",
"%. c #77A13A",
"&. c #7AA43C",
"*. c #7DAA3C",
"=. c #7EB234",
"-. c #6A8344",
";. c #6E8944",
":. c #6C844A",
">. c #6F894A",
",. c #718F44",
"<. c #728C4B",
"1. c #749444",
"2. c #769942",
"3. c #799D44",
"4. c #749249",
"5. c #79954D",
"6. c #7C9C4C",
"7. c #6E8153",
"8. c #718552",
"9. c #758D52",
"0. c #7B8D5F",
"q. c #76885A",
"w. c #779152",
"e. c #7A9552",
"r. c #7E9C52",
"t. c #7E945B",
"y. c #7CA442",
"u. c #7FA942",
"i. c #7EA14A",
"p. c #748061",
"a. c #81AD3D",
"s. c #80AF37",
"d. c #81B535",
"f. c #84BA35",
"g. c #84B43D",
"h. c #86BB39",
"j. c #88BD3C",
"k. c #88BF35",
"l. c #89C236",
"z. c #8CC33A",
"x. c #819E56",
"c. c #839D5C",
"v. c #82AB44",
"b. c #81A44D",
"n. c #86AC4B",
"m. c #88AF4C",
"M. c #86B343",
"N. c #8AB545",
"B. c #8BBA45",
"V. c #87B049",
"C. c #8AB44B",
"Z. c #8EBA4C",
"A. c #91BC4D",
"S. c #82A253",
"D. c #89AC54",
"F. c #86A358",
"G. c #89A758",
"H. c #8DB451",
"J. c #8FB854",
"K. c #8FB459",
"L. c #93BC54",
"P. c #95BC59",
"I. c #92B45D",
"U. c #819562",
"Y. c #849A63",
"T. c #889D68",
"R. c #8AA563",
"E. c #8FAC62",
"W. c #8BA465",
"Q. c #92AA6C",
"!. c #9EBD6E",
"~. c #97B766",
"^. c #90A272",
"/. c #9FBA73",
"(. c #9BB475",
"). c #A0BF6D",
"_. c #A0B979",
"`. c #8FC341",
"'. c #91C445",
"]. c #93C44B",
"[. c #96C84D",
"{. c #99C655",
"}. c #9AC35C",
"|. c #99C853",
" X c #A2CE5F",
".X c #9EC462",
"XX c #9EC06A",
"oX c #A1C763",
"OX c #A1CA65",
"+X c #A4C66C",
"@X c #A5CC6A",
"#X c #A9CE6D",
"$X c #AAD06E",
"%X c #A6D067",
"&X c #A6C774",
"*X c #ACD073",
/* pixels */
"~.XXm.L I P / i.XX~.E p Q Q ' m.V.I Q H Q P D i ! n.n.' H J c.!.K./ Q K U H H J J J Q Q H A i G / ' ",
"@X*XN.} } U U V.$X@XD Z P / ` A.A.%.U I U I H G ' /..X` K / G.$X.XU L } } L U / I U U U P A A H K ` ",
"|.|.g. .T H J b.%X+XQ H U L { u.a. .{ R &.&.H f Q w.D.m.C.v.S.|.L.U U T L +.$.*.m.V.%.K U K P K U ` ",
"z.z.*.U / Z Z b.$X@X` U  .} L U U } } $.B.C./ d ! j <.~.*XL.&.z.h.` _ ` ` *.Z.A..X@XV.( U T C L U U ",
"l.l.$./ P A p y.OXoX` L { } L U / #.3.6.L.A.) Q :.< h U._.P.' l.d.3.<.<.;.n.N.Z..X+XV.( L  .} U U ( ",
"X.| I G Z A p ] [.'.$.$.R U ] _ ( 3.x k Y./.n._ >.& : g ^.L.! +.` 3.a -.4.] ` ] y.y.$.$.$.U U U I K ",
"{ } P Z A A A ` l.l.f.d. ./ 4.3.U b.8 ; 8 q.F.] ;.& X $ p.P.E K U 1.6 ;.] I U U U I #.=.=.U U I U U ",
"O.| U Z Z F P U f.B.H.B. .2.M S.@.S.t 6 + t c.] >.&     n J.S ] ] -.- <.b.` P ) y.y.u.A.N.R K ` U U ",
"z.z.%.G D T } U U M h E.&.4.< F.A.+.U &.w w r.] >.&     z g.F 3.N 0 + t c.3.f 9.0 3 I.$X.X%.U I U R ",
"f.f.R G H ....` P B h W.y.:.- t.P.@.I +.w 8 r.&.>.&     j s.G <.s 3 X 8 V b.p w.5 : D.}.A.&.+.` ( U ",
"} | T K ` N.Z.%.Z <.Q.T.z 2 X 8 B 8.( ( 0 - m x.j @     = l g 3 - # o # 3 c.f 1.n l &.| } =.=.#.I U ",
"} } R K ` N.A.&.d ! XX0.  o   o   4 2.] 7 @ 9 x 2 .       o           o o q.~ >.-.:.R } } =.=.#.U I ",
"R U T L @.L..XF.-.;.r.z           = b v - . ; 6 % o                       u b N :.:./ H H R R  .L L ",
"K U T } o. X*XU.m x j 4                                                       < n >.) G D J U L } } ",
"U U L T ..}.oXm.! z 3 %                                     o   o           o 0 ,.' Q H H R U L } { ",
"} } L R R N.A.a.+.l + o                                                       u E d ,.[ @.d.f.+.I U ",
"{ } L y.r.E.Q.D.3.t                                                           1 n n y u b w.x.x.5.2.",
"L I +.F.7.t t >.:.3                                                           X & = @ # % > 2 4 l <.",
"I ( v.E.M ; # j a -                                                                   o # - ; - m r.",
"U U u.L.E.0 o X X o                                                                   # y p.U.q.B.g.",
"( U C.@X/.t X . . o                                                                   & j U.T.t.' U ",
"( I V.$X/.:.j a t *                                                                   < <.+X&XH.` U ",
"U U *.[.{.i.5.:.v 2                                                                   3 <.n.D.v. .L ",
"U / $.l.z.B.V.6.-.0                                                                   : m <.:.v @.} ",
"/ I $.].].g.M.' ~ q                                                                   # q j 0 & 2.` ",
"U ( C.@X!.<.b v k :                                                                   O : q k m -.! ",
"1.:.t.^.V < # # @ .                                                                     . < :.^ -.N ",
"+.[ w.k > O                                                                         o X - u ,.,.! ~ ",
"}  .<.6 X o                                                                           # q b -.-.! p ",
"U T S.:.r 6 * o                                                                       @ 5 u a u ,./ ",
"U ( U  .&.4.j X                                                                       o o X . X -.' ",
"K U U U &.4.l X o                                                                   X X @ @ @ X N ] ",
"] 9.<.9.<.4.x X o                                                                 . s N 2.-.b l N >.",
"' 4.>.<.,.6.9.% @ % ; & O . o                                                     + v 1.] G ~ -.<.<.",
"C.I.b.y.u.V.D.u y n t.7.9 ; .                                                     X m 1.%.H Q [ 3.3.",
"+X@XH.I U =.g.6.4.2..X(.c 2 X                                                   o X l <.2._ ` P I ` ",
"}.OXC.I U =.=.*.] ( XXQ.8 % o                                                     . 4 j 4.&.R ( K ( ",
"] ] ` U  .=.=.#.I U J.e.X                                                           . ; l R.C.&.I / ",
"/ U I I U =.=.#.I i.<.x 0 9 9 ; .             . % 6 8 7 >           o % 4 8 8 : . O l m :.W.P.%.P I ",
"I P ` %.#.#.#.( / M 6 t x x z 8 @   o         X 5 l x x t o         X 3 j n n t @ # 4.1.e.Y.K.&.I I ",
"I I #.L.N.` U I ( >.l <.5.e.4.B j e 2 < < - # O q n >.1.b .     . & 0 b 6.6.e.t.B B 6.2.x.E.L.v.I K ",
"` U y.L.C.( U I / ( +.` U ` P Z A 1.N x v k 6 + q m 1.R 2..   o @ q w.y.{ K U ` ` ] 5.4.6.L.P.n.` %.",
"&.] H.@X}.%.U / U / U ` v.B.v.( / ' b m :.x t & y n ;.R 3.X o @ : g 4.^ A H / K @.@.x.5.b.oX*X{.M.N.",
"%.( C.@XoX%.U I U U K ( M.].M.U U i.3 : 4.2.i.>.6.! G K b.@ @ (.(.v 7 b E Q ] ( } X.a.] b.@X*X|.M.j.",
"H H y.|.].` I I I I +.*.&.a.%.K / G.8 , 5._ y.i.y.f f ` I.a z .X}.:.2 m 1.' ) ^ L U ] ] b.+X@XH.#.&.",
"A A ` z.j.U U I I / Z.B.%.U I ( I H.B x i.U ` y.' Z Z n.L.E.c.'.f.4.h :.e.1.G p / / / ` &.@X*XH./ P ",
"A A ( l.f.` ( U U R M.m.+.R U I I m.F.S.%.U U +.U A A y.M.y.] l.=.2.<.w.9.4.E p P U K / y.XX*XL.( P ",
"P / I  .+.U K U } T Q H R }  .I I / ^ / / U I ( ( P I Q ^ P S ` ( ( ` ' y.^ p Z P P I I ( ].[.g.P / ",
"( I I / R ( K R C T p D K C T I ( G f G I I I U / U I G G F d / I I / ` ] ^ p p H K _ ] ` l.j.#.I ( ",
"K ( R T } a.M.&.` K F G F G I M.M.H f H T } R I +.M.M.Q f G d ( U U { X.@.` ! D m.m.v.[ +.U  ./ G G "
};
