/* XPM */
static char *result[] = {
/* columns rows colors chars-per-pixel */
"50 50 247 2 ",
"   c #0C0205",
".  c #150301",
"X  c #19160D",
"o  c #28160A",
"O  c #361908",
"+  c #281C17",
"@  c #351A15",
"#  c #300D06",
"$  c #272116",
"%  c #35261A",
"&  c #2A270D",
"*  c #241926",
"=  c #2D2626",
"-  c #372A27",
";  c #373336",
":  c #30253C",
">  c #4A1708",
",  c #58180B",
"<  c #471918",
"1  c #541E19",
"2  c #570902",
"3  c #6B1705",
"4  c #751905",
"5  c #6B140C",
"6  c #49290B",
"7  c #57270B",
"8  c #45261A",
"9  c #592616",
"0  c #772514",
"q  c #6E2A0F",
"w  c #482A26",
"e  c #562A27",
"r  c #47342C",
"t  c #563628",
"y  c #463A38",
"u  c #583736",
"i  c #4C2637",
"p  c #673928",
"a  c #663A35",
"s  c #73312C",
"d  c #411D23",
"f  c #3B4721",
"g  c #54462D",
"h  c #4A463A",
"j  c #594439",
"k  c #514E2A",
"l  c #66483A",
"z  c #764638",
"x  c #675739",
"c  c #775538",
"v  c #72472D",
"b  c #5D7E2B",
"n  c #56702F",
"m  c #5C6F31",
"M  c #607E28",
"N  c #637635",
"B  c #6D6B3C",
"V  c #7D511D",
"C  c #4A3843",
"Z  c #583B45",
"A  c #413852",
"S  c #663D40",
"D  c #4E4148",
"F  c #56464A",
"G  c #4B4356",
"H  c #585857",
"J  c #5B4F4E",
"K  c #694B43",
"L  c #754A43",
"P  c #695447",
"I  c #76564B",
"U  c #6C5953",
"Y  c #7B5658",
"T  c #6D4756",
"R  c #5B6654",
"E  c #5A694C",
"W  c #76654B",
"Q  c #676A58",
"!  c #786654",
"~  c #75745B",
"^  c #697B52",
"/  c #575C65",
"(  c #72596D",
")  c #726B63",
"_  c #5A6262",
"`  c #920E01",
"'  c #892809",
"]  c #9A3308",
"[  c #97341C",
"{  c #8D2A15",
"}  c #A92D08",
"|  c #B72506",
" . c #A53418",
".. c #B2340D",
"X. c #853A25",
"o. c #903928",
"O. c #C43308",
"+. c #944A17",
"@. c #AC4A18",
"#. c #87573C",
"$. c #8C4D31",
"%. c #AC452A",
"&. c #916228",
"*. c #86643A",
"=. c #D04F12",
"-. c #EA5D08",
";. c #FC5A00",
":. c #F25D15",
">. c #EA5B18",
",. c #D86805",
"<. c #D9671A",
"1. c #D56C15",
"2. c #E96404",
"3. c #E46A03",
"4. c #E4640B",
"5. c #E96707",
"6. c #F26304",
"7. c #E86417",
"8. c #F66316",
"9. c #EC760F",
"0. c #D65723",
"q. c #C35732",
"w. c #E65D24",
"e. c #E85B34",
"r. c #D96826",
"t. c #CA7030",
"y. c #E56125",
"u. c #F26221",
"i. c #875746",
"p. c #835E53",
"a. c #885C58",
"s. c #8F544B",
"d. c #98644B",
"f. c #886359",
"g. c #9C645C",
"h. c #9C6C5C",
"j. c #956957",
"k. c #99715C",
"l. c #817658",
"z. c #A7644C",
"x. c #A56656",
"c. c #A4655B",
"v. c #AB645B",
"b. c #A46A5C",
"n. c #AA6A5B",
"m. c #A56A55",
"M. c #A77559",
"N. c #B56C58",
"B. c #835B69",
"V. c #B25D65",
"C. c #AD5960",
"Z. c #9C6C63",
"A. c #996C66",
"S. c #997265",
"D. c #8A746C",
"F. c #A36A62",
"G. c #AB6A61",
"H. c #AB6561",
"J. c #AA7069",
"K. c #72A41F",
"L. c #5E812B",
"P. c #5D8226",
"I. c #5F8032",
"U. c #618727",
"Y. c #61852C",
"T. c #658C2C",
"R. c #688E2F",
"E. c #638B26",
"W. c #6A9426",
"Q. c #6E9D26",
"!. c #67902B",
"~. c #6B952D",
"^. c #6D992C",
"/. c #669027",
"(. c #719E25",
"). c #719E2D",
"_. c #678D30",
"`. c #698D32",
"'. c #678736",
"]. c #6C9531",
"[. c #6E9931",
"{. c #6E9238",
"}. c #709734",
"|. c #729D33",
" X c #73973C",
".X c #759D3A",
"XX c #799E3E",
"oX c #748C3C",
"OX c #6FA024",
"+X c #72A323",
"@X c #79A72D",
"#X c #75A62B",
"$X c #7DB22C",
"%X c #75A332",
"&X c #79A534",
"*X c #77A832",
"=X c #7BAC33",
"-X c #77A13A",
";X c #7AA43B",
":X c #7DAA3C",
">X c #7EB234",
",X c #74874C",
"<X c #789648",
"1X c #778654",
"2X c #6E8A4E",
"3X c #7DA542",
"4X c #7FA545",
"5X c #81AD3D",
"6X c #81B535",
"7X c #85B939",
"8X c #89C236",
"9X c #8CC33A",
"0X c #829957",
"qX c #878D53",
"wX c #86AD4B",
"eX c #88AE4D",
"rX c #82A946",
"tX c #86B343",
"yX c #8AB545",
"uX c #87B049",
"iX c #8BB34B",
"pX c #8EBA4B",
"aX c #8CBB45",
"sX c #91BC4D",
"dX c #89AA54",
"fX c #8DB553",
"gX c #94BC55",
"hX c #92A35A",
"jX c #988977",
"kX c #92936A",
"lX c #9BBA67",
"zX c #95AE6B",
"xX c #8EC242",
"cX c #93C549",
"vX c #97C850",
"bX c #9AC657",
"nX c #A2CE5F",
"mX c #9EC562",
"MX c #9EC467",
"NX c #A1C763",
"BX c #A5CC6A",
"VX c #A5CA69",
"CX c #AAD06E",
"ZX c #A6D067",
"AX c #ACD072",
"SX c #AACF70",
"DX c #99A88B",
/* pixels */
"lXMXwXQ.~.!.].4XlXlX'.P._._. XwXuX].!._._.R.U.n '.wXwX XT.R.0XMXfX`._.W.^.!._.R.R.R._._._.b n U.`. X",
"VXAXyX+X+X^.^.wXAXVXL.L.!.].|.sXsX-X^.~.^.~.T.Y.].sXpX|.W.].zXAXNX^.).+X+XQ.^.~.~.^.^.^.T.Y.Y.T.W.|.",
"bXvX7X%XQ.!.R.rXZXVX`.T.^.Q.Q.rX5X#XQ.).;X;XR.2X<XiXiXwXiX;X4XbXgX^.~.(.Q.%X=X:XwXuX-X~.^./.!.W.^.|.",
"9X9X:X~.].Y.Y.<XSXBX|.^.#X+XQ.^.^.+X+X=XcXdX~ S.D.D.D.jXkXkXzXcX7X^.^.^.^.:XpXsXNXBXuX[.^.+X+XQ.^.^.",
"8X8X=X~.!.L.b 3XZXbX|.Q.Q.+XQ.^.].+XiXkXjXj I I I P I I P K D.jXlX|.^.~.~.:XyXpXNXVXuX[.Q.%X+X^.^.[.",
"@X#X~.Y.L.L.b .XvXxX=X=X).^.^.W..X0XjXK f.a.A.Z.F.S.A.Z.A.f.p.I S.kX&X^.~.[.|..X:X<X=X=X=X^.^.^.~.W.",
"OX+X!.L.L.L.L.|.8X8X7X6X#X~.~..XqXl ! Z.h.F.F.F.H.H.g.F.F.F.b.F.a.L ! hX|.~.^.^.^.^.*X>X>X^.^.~.^.^.",
"$X$X^.P.P.E.!.^.7X>X7X5X#X]..XqXK Y j.Z.h.b.H.H.H.H.c.H.c.v.c.F.F.a.L a.zX|.T.T.^.^.:XsXyXOXW.|.^.^.",
"8X8X&XY.U.(.+X^.^.^.aXpX|.).qXl f.k.b.F.c.v.v.H.c.v.v.v.v.v.v.v.n.F.a.L l.dXM b W.!.fXCXmX-X^.].^.).",
"6X7X#XY.T.@X=X|.!.~.sXsX.XY.x f.S.b.F.b.b.v.n.G.v.v.v.v.v.v.v.v.v.G.F.j.K W Y.Y.~.#XrXbXsX;X%X|.[.^.",
"+X#XQ.W.|.yXpX-XL.Y.MXNX Xm f.h.g.x.b.n.c.b.b.F.F.c.c.m.c.N.n.z.x.v.F.F.f.K N Y.~.~.#X#X+X>X>X*X~.^.",
"+X+X).W.|.iXsX.Xb '.NXNX<XW A.g.b.x.b.n.n.b.b.h.g.h.b.b.n.x.n.v.x.c.c.h.S.p.U <X~.~.Q.+X+X>X>X%X^.~.",
"OX^.(.Q.&XgXbX4Xb Y.rXrXx d.b.b.G.n.v.m.m.b.k.k.k.j.k.h.k.d.d.v.n.c.b.h.A.f.l W [.^./.T.E.OX%X#XQ.Q.",
"W.^.(.+X@XZXAXdXL.L.R.'.f.A.F.m.x.n.n.x.x.h.k.k.k.k.h.b.M.i.i.x.c.c.b.b.Z.A.f.j m |.T.M L.T.~.Q.+X+X",
"^.^.Q.(.@XbXVXwXY.Y.].g K f.j.z.N.V.C.V.H.M.d.J.S.n.z.x.b.i.z s.g.c.v.v.H.g.p.t g  XT.U.!.%X~.Q.+XOX",
"+X+XQ.).OXyXsX5X).~.`.- 8 6 p #.n.V.V.G.n.d.d.k.h.z.N.x.#.s v z s.c.c.g.s 9 8 8 % '.W.K.+X>X7X*X^.^.",
"OX+XQ.^.|.yXsX3X~.).iXQ % % O % t a.A.F.g.m.M.g.F.j.k.k.i.z l L L P l w & $ = f <XL.W.OX+X=X7X*X~.^.",
"Q.^.%XrX5X;X-X[.^.~.^.).,XX o o O < u s.F.M.M.g.b.k.d.j.i.z L z a 8 O o & o k 4XP.P.T.OX&XgXbXaX6X>X",
"^.[.:XpXaX|.W.~.^.].!.Q.K.2XX & + = * w l p b.J.g.j.S.j.L z a 1 < @ o & & n @X(.L.L._.~.&XNXCXvX8X8X",
"^.^.5XgXpX|.[.].!.!.].^.^.OX2X  * F y @ @ 7 p z F.h.j.L s 1 < < e l r   n [.K.+XT.P.!.~.%XNXBXbX7X7X",
"[.^.iXBXmX|.^.T.P.Y.~.].^.W.).qX$ - _ F # > , 8 a I u w d o @ r P h + F '.!.+X(.^.~.OXOX=XbXBXfX^.^.",
"[.~.uXCXmX-X^.T.Y.b ~.~.^.[.].<X$ X = w w t t w < w % d i u r - % + X Q {.T.+XK.^.~.OXOX=XMXBXyX[.^.",
"^.^.:XvXxX6X=X~.b Y.:XrX|.~.%Xi.8 o @ t Y d.i.j w e 1 u I a.Y l < # < s ,XT.(.Q.^.W.^.OX).rXuX=XQ.Q.",
"^.~.=X8X9X7X6X|.b Y.yXpX%X3X*.$.$.< a p.S.j.#.u @ s.s s L j.S.j.z , q X.z oX}.~.~.^.[.^.].~.~.OX+X+X",
"].~.=XcXxX>X>X~.b b iXgX3XqX{ %.%.7 s *.#.X.q < O s 5 1 9 v c #.v 3 q o.0 i.rX).^.|.^.^.~.~.~.^.(.Q.",
"^.~.iXVXmX-X^.T.M Y.NXNXrX*. .e.%.4 4 q 0 3 3 7 7 0 3 7 9 7 7 7 q q { [ { X.hX+X9X8X=X[.W.].^.T.L.L.",
"~.~.iXSXmX-X~.T.Y.Y.NXBX5X+.q.w.0.@.[ 0 ' ] @.&.$.@.@.@.+.+.V q 4 '  .[ [ { a @X9X9X=X^.~.~.~._.b L.",
"Q.+X7XcXcX>X=X[.T.].NXBXuX&.r.:.>.1.1.1.7.7.7.t.t.<.>.y.r.<.<.y.0.| | |  .{ a eXvXZXaX=X*X+X+XT.L.L.",
"+X+X$X9X8X>X7X#X^.|.NXCXpX&.y.:.7.1.1.1.1.;.8.r.r.7.7.,.1.<.7.y.w.=.O.| { [ a gXZXCXcX6X>X#X+XW.L.L.",
"^.Q.*X6X>X=X*X#X(.#XNXBXtX&.=.-.2.,.,.3.2.;.;.4.4.2.3.5.2.2.2.8.8.u.0.} [ o.! %XNXCXpX*X%XW.W.T.T.T.",
"^.[.^.).#X^.~.^.+X+XNXVX0XkX} >.9.,.,.3.3.;.6.6.3.5.3.2.2.2.-.-.:.>.=.} ' $.dX[.BXSXiX^.].L.P.T.^.^.",
"W.^.~.#X^.^.~.#X+X@XNXNX<Xk.9 %.q.r.1.,.,.3.,.3.5.4.4.4.4.5.2.2.7.>.@.] 0 z ~.-XmXZXuX~.!.L.b T.].^.",
"~.~.~.[.~.>X>X*X^.^.aX9X].N 9 3 4 } r.3.,.9.2.-.5.4.,.-.2.5.7.-.4.=.' 2 , B ).^.xXxX>X+XQ.P.b T.~.^.",
"~.).~.^.^.>X6X%X[.^.8X8X].b 2XX % , , } 0.8.u.w.0.-.2.8.7.0.0.%.5 > < @ E =X^.^.9X9X$X+XQ.P.b T.].^.",
"iXiX-X^.#X>X6X*X^.[.vXvX<Xb '.DX  # 2 ` ` O.:.0.y.2.2.5.-.=.` 4 3 2 . U dX].[.^.8X8X=XQ.Q.T.T.W.~.^.",
"VXVXfX~.^.>X>X*X^.[.mXMX<XM N * = - F C - 2 0 O.e.w.u.@.' 2 > r C : : : H _.~.^.8X8X:X].~.|.[.~.].|.",
"bXMXwX].^.>X>X=X[.[.mXmX{.<XDX  : F C Z Z 5 2 ` | w...` 3 9 8 w C A G A * R &X^.7X7X#X].[.-X^.[.W.].",
".X.X|.^.#X>X>X*X~.[.xXcX-X<X: : G G ( Z i a a 7 > 9 < 1 a a u i C F G C ; h dX].*X@X^.[.-XfXtX;X~.].",
"].^.~.~.^.>X>X*X~.#X8X8X>X1X* F ( ( ( T i S I x g 8 8 e u T Y T C y C F ; = ,X.X|.|.].].;XgXsX;X!.~.",
"~.!.|.-X%X*X*X[.~.~.>X>X[.k r P B.B.B.Y Z Y Q E E y - Z Z T f.Y a i u j r + m {.%X|.].].;XsXiX;X~.~.",
"~.~.=XgXyX|.^.~.[.~.].%X].k j l p.B.a.Y Y U U Q R H ; y J Y ) f.K e t j j $ N -X.X.X|.].3XfXpX3X].W.",
"[.[.3XgXiX[.^.~.~.~.#X%X2X@ l c c I I P ) ( Q f.! W I g P I ! W K t t K w r <X).|.-X|.].3XgXgXwX|.-X",
";X.XfXBXbX-X^.].~.[.^.[.zXJ 8 v *.c x ; J ! D.c.d.d.*.c c x x j j K u i y 0X<XW.&X&X&X.X3XNXAXvXtXaX",
"-X[.uXBXMX-X~.~.^.^.W.[.fXNXx % t g x c I I K T u t 8 8 t l l K j y = y 1X'..X].+X#X&X|.rXCXAXbXtX7X",
"T.T.3XbXcX%X~.~.~.].&X:X;XtX3X1XH + r #.z p O *       . # w a t % D ~ {.{.{.{.{.OX~..X.X4XVXBXfX*X-X",
"L.L.|.8X7X^.^.~.~.[.pXaX;X~.R.].4X~ H O O o .             X o D ) 4X[.|.-X{.L.L.].].].|.3XVXAXfX].!.",
"L.L.[.8X7X|.[.^.^.).tXwX%XQ.~.[.~.rXgX^ E R R U / / / / / R R lX3X].]..X.X{.b L.!.~.W.].3XlXAXfX[._.",
"!.].~.#X%X^.W.^.+X(.R.!.^.OX%X~.)._.R.!.~.).[.|.zXzXAXDXzX XI.|.%X].[.[..X{.b P.!.!.].].[.cXvXtX!.[.",
"[.~.~.].).[.W.).+X(.b U.W.K.(.~.[.Y.M U.~.~.~.~.].^.~.Y.Y.U.I.[.~.~.].|..X{.b b !.].[..X|.8X7X=X].[.",
"W.[.).(.+X5XtX;X|.W.U.Y.E.Y.~.tXtXT.Y.T.(.+X).~.%XtXtX_.M Y.N [.^.OXOX#X*X[.'.L.wXeX4X-X%X^.#X].Y.L."
};
