/* XPM */
static char *result[] = {
/* columns rows colors chars-per-pixel */
"50 50 16 1 ",
"  c #A49FC6",
". c #383766",
"X c #5A5788",
"o c #706F9B",
"O c #312239",
"+ c #BEBDD3",
"@ c #5A416D",
"# c #AC7A8B",
"$ c #C9919B",
"% c #AC6096",
"& c #86596F",
"* c #AC9EC4",
"= c #984040",
"- c #6F3748",
"; c #B97777",
": c #DDC5C5",
/* pixels */
"                                                  ",
"                                                  ",
"                                                  ",
"                   ...........                    ",
"                  ..XXooooooX..                   ",
"                  OXoooX+XXooXO                   ",
"                  OoooooooooooO                   ",
"                  OoooooooooooO                   ",
"                  OoooooooooooO                   ",
"                 @OX.........XO@@                 ",
"                @#O...........O##@                ",
"              @@#$O....%%%%...O$$#@               ",
"              @@#$O....%%%%...O$$#@               ",
"              @@$$OO.........OO$$$@               ",
"             @&&$$OOOOOOOOOOOOO$$$&@              ",
"             @&&$$OOOOOOOOOOOOO$$$&@              ",
"             @&&$$OO..XX*XXX.OO$$$&@              ",
"             @&&#$&OOOOOOOOOOO&$$#&@              ",
"             @&&#$&OOOOOOOOOOO&$$#&@              ",
"           ...&&O#$&&&&&&&&&&&$##O&....           ",
"           O=O$$&OOOOOO&=&&OOOOOO&$O==O           ",
"           O=O$$$&OO&&-=;==-&OO&&$$O==O           ",
"         ..O=O$$$$$#$$O====O$#$$$$$O==O.          ",
"         ..O=O$$$$$#$$O====O$#$$$$$O==O.          ",
"        .XXoOO##$$#$$$-OOOO-$$#$$$#OOOo..         ",
"       .XXX++O&&$$$$$$&&&&&&$$$$$$&O+++.X.        ",
"       .+XXo+O##$#&$$$#&&&&#$$&##$#O++o.X.        ",
"      .X.XX.OO##$O$$$$$$#$$$$$$OO$#OOO.XXX..      ",
"      OXXXXX.O##$O$O&&&&&&&&&O$OO$#O..XXXXOO      ",
"      OXXXXX.O##$O$O&&&&&&&&&O$OO$#O..XXXXOO      ",
"      O.O...OOOO#&#$$$$$:$$$$$#&&#OOOO..O.OO      ",
"      OXooo#$&..OOOOXXXOOOOXXOOOOO.#$$#ooXOO      ",
"      Oo+oo$$$##.XXo+++OOOO++oXXX.#$$$$o+oOO      ",
"      OX.oo$$$&&.oXo+++XOXX++oXoo.&$$$$o.XOO      ",
"      OX.oo$$$&&.oXo+++XOXX++oXoo.&$$$$o.XOO      ",
"      O....$$$##.o.ooo+OOOO+oo.++.#$$$$...OO      ",
"      OO...&##&&Ooo.oooOOOOoo.o..O&###&..OOO      ",
"       OOOOOOOOOXooo...OOOO..ooooXOOOOOOOO        ",
"           OO....XXXXXX.O..XXXXXX...OOO           ",
"            OO.....................OOO            ",
"            OO.....................OOO            ",
"             OOOOOOOOOOOOOOOOOOOOOOO              ",
"              OOOOOOOOOOOOOOOOOOOOO               ",
"                 OOOOOO    OOOOOO                 ",
"                  O+XXO     OX+OO                 ",
"                  O+XXO     OX+OO                 ",
"                  OOOO       OOOO                 ",
"                                                  ",
"                                                  ",
"                                                  "
};
