/* XPM */
static char *result[] = {
/* columns rows colors chars-per-pixel */
"50 50 13 1 ",
"  c #A49FC6",
". c #312239",
"X c #383766",
"o c #5A5788",
"O c #706F9B",
"+ c #5A416D",
"@ c #AC7A8B",
"# c #BEBDD3",
"$ c #C9919B",
"% c #86596F",
"& c #984040",
"* c #6F3748",
"= c #DDC5C5",
/* pixels */
"                                                  ",
"                                                  ",
"                                                  ",
"                     ........                     ",
"                    X........XX                   ",
"                  XXXoOOOOOOoXXX                  ",
"                  ..oOOOOOOOOoo.                  ",
"                  ..oOOOOOOOOoo.                  ",
"                 +..OOOOOOOOOOO.+                 ",
"                +@..OOOoo#oOOOO.@+                ",
"               +@$..OOOOOOOOOOO.$@++              ",
"               +$$..oOOOOOOOOoo.$$++              ",
"               +$$..oOOOOOOOOoo.$$++              ",
"              +@$$..XXXXXXXXXXX.$$@@+             ",
"              +$$$..XXXXX%XXXXX.$$$$+             ",
"              +$$$%%XXX%%$%XXXX%$$$$+             ",
"              +$$$@@XXXXXXXXXXX@$$$$+             ",
"            XXX@$$$$@%%%%%%%%@@$$$@@XX            ",
"            XXX@$$$$@%%%%%%%%@@$$$@@XX            ",
"           X&&*@$$$$$$$$$$$$$$$$$$@@*&X           ",
"           .&&*@@$$$$$$$$$$$$$$$$@@@*&.           ",
"           .&&*@@$$$$$$$$=$$$$$$$@@@*&.           ",
"            ...@@@$$$$$$$$$$$$$$@@@@..            ",
"            ...@@@$$$$$$$$$$$$$$@@@@..            ",
"           XXX.%@@@@$@%%%%%%@$$@@@%%XXX           ",
"          XXXXXXo%@@@@@@@=@@@@@@%oXXXXXX          ",
"         .O###OXXooooooooooooooooXXXO##O..        ",
"       XX.####OXoXXXXXXXX.XXXXXXXoXXO###..X       ",
"       XX.O#OOoXoooooooooXooooooooXXoO#O..X       ",
"       XX.O#OOoXoooooooooXooooooooXXoO#O..X       ",
"       XXX....XXoooooooooXooooooooXXX...XXX       ",
"       XXoooXX.ooooooooooXoooooooooo.XooooX       ",
"       ..ooX..XooooooooooXooooooooooX.Xooo.       ",
"       ..XXX..XXoooooooooXooooooooXXX.XXXX.       ",
"       ..XXX..XXoooooooooXooooooooXXX.XXXX.       ",
"       ..XXX..XXXXoooooooXooooooXXXXX.XXXX.       ",
"       ...XX..XXXXXXXXXXX.XXXXXXXXXXX.XX...       ",
"         .....XXXXXXXXXXX.XXXXXXXXXXX.....        ",
"           ...XXXXXXXXXXX.XXXXXXXXXXX..           ",
"            ...XXXXXXXXXX.XXXXXXXXXX..            ",
"            ...XXXXXXXXXX.XXXXXXXXXX..            ",
"              ...XXXXXXXX.XXXXXXX....             ",
"               .....................              ",
"                ......      ......                ",
"                .....        ....                 ",
"                .....        ....                 ",
"                 ...                              ",
"                                                  ",
"                                                  ",
"                                                  "
};
