/* XPM */
static char *result[] = {
/* columns rows colors chars-per-pixel */
"50 50 180 2 ",
"   c #32233A",
".  c #3A293F",
"X  c #3C273D",
"o  c #502B3B",
"O  c #64313C",
"+  c #76363E",
"@  c #332642",
"#  c #342845",
"$  c #392A44",
"%  c #342A4A",
"&  c #3B2E49",
"*  c #3F314B",
"=  c #352E52",
"-  c #363057",
";  c #3C3254",
":  c #36325C",
">  c #373460",
",  c #383766",
"<  c #3B3966",
"1  c #3C3A69",
"2  c #452E45",
"3  c #41344D",
"4  c #4E364C",
"5  c #45384F",
"6  c #443046",
"7  c #50374D",
"8  c #53394F",
"9  c #5F394B",
"0  c #433453",
"q  c #4A3456",
"w  c #453952",
"e  c #4A3D55",
"r  c #41375B",
"t  c #433B5E",
"y  c #4B3E59",
"u  c #4A3659",
"i  c #563C51",
"p  c #583E53",
"a  c #693848",
"s  c #70384A",
"d  c #683C57",
"f  c #433C66",
"g  c #403E6B",
"h  c #4E3F64",
"j  c #4E425D",
"k  c #5E4056",
"l  c #50435F",
"z  c #604457",
"x  c #62455A",
"c  c #6B4A5F",
"v  c #6A475D",
"b  c #7B4757",
"n  c #43416E",
"m  c #4D446C",
"M  c #4C486E",
"N  c #564A66",
"B  c #52456D",
"V  c #5B426C",
"C  c #54486F",
"Z  c #5B4D6C",
"A  c #584665",
"S  c #5F546B",
"D  c #464473",
"F  c #4A4776",
"G  c #4C4874",
"H  c #4E4B7B",
"J  c #534770",
"K  c #5B4C72",
"L  c #514D7B",
"P  c #534976",
"I  c #52507F",
"U  c #6D4D62",
"Y  c #694668",
"T  c #6B4C6D",
"R  c #674468",
"E  c #734F63",
"W  c #785167",
"Q  c #74506D",
"!  c #7B536C",
"~  c #715162",
"^  c #604874",
"/  c #605573",
"(  c #6B5E7C",
")  c #66537B",
"_  c #705176",
"`  c #795778",
"'  c #72577D",
"]  c #6D647C",
"[  c #8C3D3F",
"{  c #853F47",
"}  c #8B3D43",
"|  c #953F40",
" . c #8A4149",
".. c #93474D",
"X. c #964244",
"o. c #874B58",
"O. c #8D4F5C",
"+. c #80576C",
"@. c #84596E",
"#. c #945865",
"$. c #845B74",
"%. c #8A5D73",
"&. c #8C6375",
"*. c #8E677F",
"=. c #8D687C",
"-. c #946276",
";. c #946679",
":. c #966B7A",
">. c #9A6B7D",
",. c #555282",
"<. c #595686",
"1. c #5B5987",
"2. c #5A5788",
"3. c #5D5A8A",
"4. c #6B5782",
"5. c #605C87",
"6. c #615E8E",
"7. c #705D87",
"8. c #725F89",
"9. c #6D6383",
"0. c #65628D",
"q. c #716887",
"w. c #78658E",
"e. c #736B8C",
"r. c #656390",
"t. c #686694",
"y. c #6B6A97",
"u. c #6D6C99",
"i. c #706F9B",
"p. c #7C7394",
"a. c #76739D",
"s. c #7976A0",
"d. c #7D79A3",
"f. c #876582",
"g. c #886781",
"h. c #9D6F82",
"j. c #946B84",
"k. c #8D728F",
"l. c #9F7184",
"z. c #837097",
"x. c #837B9D",
"c. c #A06F80",
"v. c #A47383",
"b. c #A97885",
"n. c #A47589",
"m. c #A97788",
"M. c #AC7A8B",
"N. c #AD7380",
"B. c #B07D8D",
"V. c #B37C87",
"C. c #847FA3",
"Z. c #B4808F",
"A. c #B68392",
"S. c #BA8592",
"D. c #BE8995",
"F. c #8982A5",
"G. c #8A86AB",
"H. c #8D89AD",
"J. c #8684A6",
"K. c #9582A2",
"L. c #918BAF",
"P. c #9A8CAF",
"I. c #9995AB",
"U. c #948CB3",
"Y. c #9591B4",
"T. c #9B95BC",
"R. c #9D98BD",
"E. c #A199BF",
"W. c #A6A4BC",
"Q. c #C18B96",
"!. c #C48E99",
"~. c #C7909A",
"^. c #C9919B",
"/. c #CD9BA3",
"(. c #D4AEB3",
"). c #9F99C0",
"_. c #A49FC6",
"`. c #ABAAC6",
"'. c #B5B4CC",
"]. c #BEBDD3",
/* pixels */
"_._._._._._._._._._._._._._._._._._._._._._._._._._._._._._._._._._._._._._._._._._._._._._._._._._.",
"_._._._._._._._._._._._._._._._._._._._._._._._._._._._._._._._._._._._._._._._._._._._._._._._._._.",
"_._._._._._._._._._._._._._._._._.`._._.`._._._._._._._._._._._._._._._._._._._._._._._._._._._._._.",
"_._._._._._._._._._._._._._._._.).d.a.a.a.a.a.a.d.)._._._._._._._._._._._._._._._._._._._._._._._._.",
"_._._._._._._._._._._._._._._.d.D 1 F 0.r.r.r.2.1 F s._._._._._._._._._._._._._._._._._._._._._._._.",
"_._._._._._._._._._._._._._._.e.: g <.i.i.i.i.t.1 D 2.s.)._._._._._._._._._._._._._._._._._._._._._.",
"_._._._._._._._._._._._._._._.9.$ ,.t.i.i.i.i.i.g 2.L L C.T._._._._._._._._._._._._._._._._._._._._.",
"_._.`._._._._._._._._._._._._.9.& 0.i.i.i.i.i.i.2.t.6.L & p._._._._._._._._._._._._._._._._._._._._.",
"_._._._._._._._._._._._.q./ / q & r.i.r.H.H.6.u.3.u.r.H @ e.`._._._._._._._._._._._._._._._._._._._.",
"_._._._._._._._._._.C.          & r.i.i.i.i.i.i.3.u.r.P @ u _._._._._._._._._._._._._._._._._._._._.",
"_._._._._._._._._._.x.          & 0.i.i.i.i.i.i.3.y.0.L . Y 7.U._._._._._._._._._._._._._._._._._._.",
"_._._._._._._._._._.x.          & 5.y.i.i.i.i.y.G 6.1.m   @.` z.U._._._._._._._._._._._._._._._._._.",
"_._._._._._._._._._.x.          $ I 0.u.u.u.u.3.# H F :   &.M.` w.)._._._._._._._._._._._._._._._._.",
"_._._._._._._._._._.C.          @ < n n D D n n   < 1 : @ &.~.n.f.8.U._._._._._._._._._._._._._._._.",
"_._._._._._._._._._.x.  #         : , , , , , ,   > , : - =.^.D.j.^ U._._._._._._._._._._._._._._._.",
"_._._._._._._._._._.x.    , G t @ , , , , , , , > < , m j.A.^.^.S.h.4._._._._._._._._._._._._._._._.",
"_._._._._._._._._._.U.q.w = ; *   # - , 1 , , , , , K f.A.!.^.^.!.A._ _._._._._._._._._._._._._._._.",
"_._._._._._._._._._._._.( & 6 4 j k N K K K J m K K f.S.!./.^.^.^.D.T G.E._._._._._._._._._._._._._.",
"_._._._._._._._._._._._.).V W >.D.D.D.!.Q.S.n.%.Q.Q.!.^.^.(.^.^.^.D.i y U.`._._._._._._._._._._._._.",
"_._._._._._._._._._._._.k.d R $.b.!.^.^.^.!.Q.-.^.^.^.^.^./.^.^.^.D.A m Z x._._._._._._._._._._._._.",
"_._._._._._._._._._.K.s [ X.R q         c %.%.v.!.B.>.@.@.M.^.^.^.D.P 2.2.F ,.T.)._._._._._._._._._.",
"_._._._._._._._._._.K.s X.X.-.@.z .   c >.V.c.S.Q.>.#.....#.^.^.Q.M.J 2.2.,.H ,.G._._._._._._._._._.",
"_._._._._._._._._._.K.s [  .>.M.:.c c >.S.!.S.!.B.E a + | O.^.^.D.n.m ,.<.<.,., d._._._._._._._._._.",
"_._._._._._._._._._.K.b  .s S.^.~.Z.Q.^.^.!.Q.Q.c.7 X o [ o.^.^.S.c.G 1 ,.<.,.1 s._._._._._._._._._.",
"_._._._._._._._._._.E.P.x 2 b.^.^.!.!.^.S.n.-.:.n.+.b } [ a !.S.n.%.h ,.1 H <.,.L _._._._._._._._._.",
"_._._._._._._._._._._._.z.$ n.^.^.^.^.^.b.>.>.>.S.c.b O O a S.B.g.V G ,.H F H 2.f _._._._._._._._._.",
"_._._._._._._._._._._._.`.$ ;.S.^.^.^.^.Z.c.&.Z.~.~.c.%.>.n.M.;.T 1 ,.2.2.D 1 1 % _._._._._._._._._.",
"_._._._._._._._._._._._.).  i @.v.c.v.~ v.>.k >.~.^.N.%.m.M.:.T G H ,.2.2.,.D , % _._._._._._._._._.",
"_._._._._._._._._._._._._.A $ p -.:.>.z v.:.. &.Q.!.:.W h.-.Q B H 2.2.2.<.<.,.1 % _._._._._._._._._.",
"_._._._._._._._._._._._._.T.y U M.!.~.~.^.:.  &.M.M.c 2 ! 8 < H 2.2.2.2.<.<.,.< % _._._._._._._._._.",
"_._._._._._._._._._._._._._.F.( p z z x x 8   4 i p 6 # h f H <.2.2.2.2.2.H 1 < # _._._._._._._._._.",
"_._._._._._._._._._._._._.T.4.V R ! T , % % 1 0.].].T.i.2.D 2.2.2.2.2.2.<.D , , % _._._._._._._._._.",
"_._._._._._._._._._._._._.).4.R Q B P # = f ,.Y.].].'.T.0.D <.2.2.2.2.<.D , , , % `._._._._._._._._.",
"_._._._._._._._._._._._._.).4.T ! f F = g H 2.G.].].`.H.0.n 2.2.2.<.H D < , , , % )._._._._._._._._.",
"_._._._._._._._._._._._._.).4.R Q f F H ,.,.2.r.W.W.J.r.1.; ,.,.,.,.1 , , , , > : _._._._._._._._._.",
"_._._._._._._._._._._._._.T.h q V < 1 W.0.D 2.D 5 j : F <.r 1 1 1 1 < , , , :   e._._._._._._._._._.",
"_._._._._._._._._._._._._._.p.Z 0 , , ] G 1 D 1 % = : < D ; , , , , , , , , -   p._._._._._._._._._.",
"_._._._._._._.`._._._._._._._._.G.3 = , , , , , , , , , , % , , , , , , , = m Y._._._._._._._._._._.",
"_._._._._._._._._._._._._._._._.L.3 @ , , , , , , , , : % = , , , , , > % @ j R._._._._._._._._._._.",
"_._._._._._._._._._._._._._._._.L.3   = - - = = - - - - % : , , , , : = @ w 9.)._._._._._._._._._._.",
"_._._._._._._._._._._._._._._._.U.w                   @ > , , > 1 > @   . e._._._._._._._._._._._._.",
"_._._._._._._._._._._._._._._._.).F.N                   @ @ @ @ @ @   3 e.Y._._._._._._._._._._._._.",
"_._._._._._._._._._._._._._._._._._._.w & $                     @ & & _.`._._._._._._._._._._._._._.",
"_._._._._._._._._._._._._._._._._._._.H.H.q.                    A L.G._._._._._._._._._._._._._._._.",
"_._._._._._._._._._._._._._._._._._._._._.H.9.9.            7.] x._._._._._._._._._._._._._._._._._.",
"_._._._._._._._._._._._._._._._._._._._._._._._.  0 3 #     _._._._._._._._._._._._._._._._._._._._.",
"_._._._._._._._._._._._._._._._._._._._._._._._.* I.J.G @   _._._._._._._._._._._._._._._._._._._._.",
"_._._._._._._._._._._._._._._._._._._._._._.).`.# S N *   N _._._._._._._._._._._._._._._._._._._._.",
"_._._._._._._._._._._._._._._._._._._._._._._._._._._._._._._._._._._._._._._._._._._._._._._._._._.",
"_._._._._._._._._._._._._._._._._._._._._._._._._._._._._._._._._._._._._._._._._._._._._._._._._._."
};
