/* XPM */
static char *result[] = {
/* columns rows colors chars-per-pixel */
"50 50 243 2 ",
"   c #0D0302",
".  c #170704",
"X  c #181403",
"o  c #1C1113",
"O  c #280705",
"+  c #2C1A16",
"@  c #271718",
"#  c #341E19",
"$  c #2D110B",
"%  c #2C251B",
"&  c #38231C",
"*  c #2D2C0B",
"=  c #351D23",
"-  c #3B2523",
";  c #362725",
":  c #3B2E32",
">  c #3C3535",
",  c #373424",
"<  c #460804",
"1  c #4C1916",
"2  c #53150D",
"3  c #6A0B05",
"4  c #661707",
"5  c #77190A",
"6  c #6A1915",
"7  c #78130F",
"8  c #48261B",
"9  c #5B2516",
"0  c #7A2718",
"q  c #6B2712",
"w  c #6E1E22",
"e  c #422D2C",
"r  c #462C25",
"t  c #5A2C29",
"y  c #4B342B",
"u  c #463429",
"i  c #56362B",
"p  c #453C3B",
"a  c #4C3C3B",
"s  c #483635",
"d  c #553D38",
"f  c #4F2E35",
"g  c #643927",
"h  c #76322D",
"j  c #571821",
"k  c #3C4523",
"l  c #54423B",
"z  c #5B453C",
"x  c #594437",
"c  c #515032",
"v  c #65483A",
"b  c #734738",
"n  c #78553B",
"m  c #6A5237",
"M  c #5D7E2B",
"N  c #56702F",
"B  c #546D2B",
"V  c #607E28",
"C  c #697E2E",
"Z  c #657A3B",
"A  c #6A652F",
"S  c #47421F",
"D  c #4E3D43",
"F  c #464643",
"G  c #584745",
"H  c #575547",
"J  c #5D5454",
"K  c #664B45",
"L  c #754C46",
"P  c #69544A",
"I  c #7B554B",
"U  c #725A4D",
"Y  c #73534A",
"T  c #6B5957",
"R  c #745D54",
"E  c #795C55",
"W  c #77674E",
"Q  c #7A6255",
"!  c #7B635B",
"~  c #776559",
"^  c #747959",
"/  c #6A6D4C",
"(  c #796967",
")  c #7C7465",
"_  c #6B7368",
"`  c #8D1613",
"'  c #932818",
"]  c #873617",
"[  c #8A2C0D",
"{  c #AA390D",
"}  c #AC3713",
"|  c #863828",
" . c #8B3328",
".. c #93282E",
"X. c #C03C04",
"o. c #AD4A16",
"O. c #8A4F36",
"+. c #B0522A",
"@. c #BC622B",
"#. c #CA5012",
"$. c #E96604",
"%. c #EB640E",
"&. c #CC5A28",
"*. c #CE672D",
"=. c #CF650C",
"-. c #85534C",
";. c #874953",
":. c #865A56",
">. c #8B514F",
",. c #86655A",
"<. c #95665C",
"1. c #8D7253",
"2. c #8B6B64",
"3. c #866D62",
"4. c #9A6C65",
"5. c #956965",
"6. c #877667",
"7. c #96766A",
"8. c #8A7B74",
"9. c #997973",
"0. c #AA736A",
"q. c #A96456",
"w. c #72A41F",
"e. c #5E812B",
"r. c #5D8226",
"t. c #5F8032",
"y. c #618727",
"u. c #61852C",
"i. c #658C2C",
"p. c #688E2F",
"a. c #668926",
"s. c #6A9426",
"d. c #6E9D26",
"f. c #67902B",
"g. c #6B952D",
"h. c #6D992C",
"j. c #669027",
"k. c #719E25",
"l. c #719E2D",
"z. c #678D30",
"x. c #698E32",
"c. c #6C8D3A",
"v. c #658436",
"b. c #6C9531",
"n. c #6E9931",
"m. c #6E9238",
"M. c #709734",
"N. c #729D33",
"B. c #73963C",
"V. c #759D3A",
"C. c #799E3E",
"Z. c #758B35",
"A. c #6FA024",
"S. c #72A323",
"D. c #76A72C",
"F. c #7DB22C",
"G. c #75A332",
"H. c #79A534",
"J. c #77A832",
"K. c #7BAC33",
"L. c #77A13A",
"P. c #7CA73C",
"I. c #7EB234",
"U. c #779446",
"Y. c #74884E",
"T. c #7DA542",
"R. c #7FA645",
"E. c #7B8163",
"W. c #81AD3D",
"Q. c #81B535",
"!. c #85B939",
"~. c #89C236",
"^. c #8CC33A",
"/. c #8D985B",
"(. c #A88759",
"). c #86AD4B",
"_. c #83AA47",
"`. c #86B343",
"'. c #8AB545",
"]. c #87B049",
"[. c #8EBA4B",
"{. c #8BB649",
"}. c #91BC4D",
"|. c #89A754",
" X c #8DB553",
".X c #94BC55",
"XX c #91AA5E",
"oX c #978678",
"OX c #8E8D6E",
"+X c #AB9075",
"@X c #96AE66",
"#X c #CD927A",
"$X c #DBAA7A",
"%X c #8EC242",
"&X c #93C549",
"*X c #99C655",
"=X c #A2CE5F",
"-X c #9EC562",
";X c #9EC467",
":X c #A1C763",
">X c #A5CC6A",
",X c #A5CB6A",
"<X c #AAD16E",
"1X c #A6D067",
"2X c #A9CB73",
"3X c #ACD072",
"4X c #939889",
"5X c #A69585",
"6X c #B1968D",
"7X c #BDA49A",
"8X c #ABB496",
"9X c #B6AFA3",
"0X c #CC9587",
"qX c #D6AB8A",
"wX c #DAB58C",
"eX c #C6AB9B",
"rX c #D4AD9A",
"tX c #D9B899",
"yX c #C8AA8C",
"uX c #E7B699",
"iX c #EBB48D",
"pX c #CBB6AA",
"aX c #D3B9B0",
"sX c #EDB6A4",
"dX c #BFD098",
"fX c #D2C495",
"gX c #F5C59C",
"hX c #F6D799",
"jX c #E8C991",
"kX c #CBC9B8",
"lX c #FCCAA8",
"zX c #FAD8A8",
"xX c #F9D7B5",
"cX c #EFCCB0",
"vX c #F9E1A7",
"bX c #D5D4C8",
"nX c #EAD4CD",
"mX c #DDEBD7",
"MX c #E1E2D4",
"NX c #FBE8CC",
"BX c #EAF5E8",
"VX c #F4FEF4",
"CX c #F1EFE8",
/* pixels */
"@X:X).A.g.f.b.R.@X;Xv.e.x.p.B.).].b.x.x.p.i.u.B v.).).B.p.x./.;X Xx.x.s.h.f.x.f.x.x.p.x.p.M N e.b.B.",
">X3X'.S.S.h.h.).3X>Xu.e.f.b.G.}.[.L.h.g.l.g.i.u.b.}.}.N.s.b.XX>X-Xh.h.A.S.A.h.n.g.h.h.h.f.e.u.p.s.N.",
"*X*X!.D.d.f.x.R.1X:Xx.i.h.d.A._.P.D.d.G.H.L.z.Z x._.].).].T.R.-X&Xn.h.h.d.G.K.P._.].L.g.h.j.i.g.h.N.",
"^.^.T.h.b.t.M R.<X>XN.h.A.S.d.h.h.S.S.D..X|.^ 9.5.2.5.7.6.OX|.^.!.h.h.h.h.P.[.}.:X>X].n.h.S.w.d.h.h.",
"~.~.K.g.f.e.M R.1X:XN.d.d.S.d.h.n.S.K./.oXv ;.;.;.I >.-.I L 2.OX`.h.n.b.h.P.'.[.-X,X].n.d.D.S.h.h.n.",
"D.D.h.u.e.e.M V.&X%XK.K.l.h.h.g.n.B.OXY :.:.0.4.0.4.4.4.5.:.,.I 1.V.A.h.g.h.N.V.T.T.K.I.K.h.h.h.g.s.",
"A.S.f.e.e.e.e.N.~.~.!.Q.G.g.n.N.B.m ~ 2.9.5.:.;.;.L m I :.<.4.4.5.n Z.l.n.g.h.h.h.h.G.I.I.h.h.g.h.h.",
"F.F.h.r.r.y.f.h.!.Q.!.`.A.g.L.Y.K ! 6.3.,.R 9.9.2.( 6.6.! :.I <.0.:.L W XXn.i.i.h.h.P.[.`.n.s.G.h.h.",
"~.^.J.u.y.k.S.l.h.h.[.[.G.n.U.b :.5.:.,.3.( bXbXkXkXbXbX8X6.E I -.5.<.L E OXu.M g.g. X3X:XL.h.b.h.h.",
"Q.Q.G.u.i.J.D.N.f.b..X}.L.c.m 2.<.E ,.Q pXbXnXVXBXmXmXBXkX9XoXI b -.>.<.I W v.e.g.d._.*X}.L.G.N.n.h.",
"w.D.d.s.N.'.[.C.e.v.*X:XU.v ,.<.,.7.aX6XpXMXnXVXVXBXBXMXkX9X5X9.7.I b 5.5.K / r.g.g.D.D.S.I.I.J.g.h.",
"S.S.l.s.N.'.[.C.e.v.-XfX6.Y 5.I :.cXnXaX8.kXCXCXVXmXBXbX9XoX7.oXeX6X:.I ,.:.Y Y.g.g.d.S.S.I.I.G.h.g.",
"A.h.k.d.H..X*X_.e.e.@X) G ~ U x T pXNXMX3.5XpXnXCXCXbXaX9X8.( 5XeX5XR y P ! G A N.h.f.i.y.A.l.D.d.d.",
"s.h.k.S.D.=X3X|.e.e.Y.l H p , r x 5XpXeXE eXeX7XaXkX6X6XpX7X2.8.5X6./ H u y G G c N.i.V u.i.h.d.S.S.",
"h.h.k.d.D.*X:X).e.r.E.s e e > H 4X8X~ >.0XsXxXlXnXxXlXlXzXgXqX<.Y ( _ H y y j t D f.i.y.i.G.h.d.S.A.",
"S.S.d.G.G.'.}.W.G.g./ + - @ % H 4X8XoX#XsXcXNXqXiXsXiXgXlXzXuX0X4XE.E.H 8 $ j j @ M s.w.S.Q.!.J.h.h.",
"A.S.d.n.N.'.&XT.h.h.J.~ + & + # l 4X6X#XsXvXvXjXvXxXfXzXvXvXjXqX+X6.T % X * , , x.e.s.A.S.K.I.J.g.h.",
"d.h.G.`.W.L.L.n.h.b.n..X^ O + $ ; OXaX0X< $ % hXhXxXNXzXm $ $ ,.6X/.c   * X B ].r.e.i.A.K..X*X[.Q.I.",
"h.n.P.[.[.N.s.g.h.b.f.d.G.^   . m 8X+XqX<.  . qXgXwX$XjXt O n yX#X+X7.. X F I.A.e.e.f.g.H.-X1X*X^.~.",
"h.h.P..X[.N.n.b.f.f.g.h.h.G.) . u +X1.qXwXS S uXtXiX$XgX>.g +XtX(.(.:.. F J.w.A.i.r.f.h.G.-X<X*X!.!.",
"n.h.{.>X-XN.h.i.e.e.n.b.k.s.h.OX+ u ~ rXkXA A $XiXiXiXsX4.b 6XqX7.b 2 v @Xj.k.k.g.g.A.A.K.*X>X Xg.h.",
"n.g.].>X-XP.h.i.e.e.g.h.g.M.b.OX@ o l 6XtXyX8XgXlXsXlXcXuXrXaXyXn 2 < ,.M p.w.w.h.g.A.A.K.:X>X'.n.h.",
"h.h.P.*X%XI.K.g.e.u.P.R.l.g.W.-.9 < 2 b yXjXjXlXlXzXvXjXzXcXyX,.1 < 6 h OXu.k.k.h.s.h.d.N._.).K.d.d.",
"h.n.K.~.^.!.I.N.e.u.'.[.D./.>.h | O.6 < b m yXiXiXjXjXwXqX1.x 1 j  ... .L p.l.s.g.h.n.h.b.g.h.d.S.S.",
"b.g.K.%X%XI.I.h.e.M {..XR.0.` { #.*.o.] 4 < b O.O.O.O.n b 2 2 [ o.#.&.} ` v.s.s.h.N.h.h.g.g.g.h.k.d.",
"h.g.{.,X-XL.h.p.M v.-X:XXX+.[ o.%.%.%.&.o.0 q < < O O O 2 ] o.=.$.$.$.$.[ O.w.w.^.^.K.h.s.g.h.i.e.e.",
"g.g.{.2X-XL.g.x.e.u.-X3X0.` } { o.{ #.@.*.q.] 0 < < < 4  .@.*.=.X.#.{ { } ' a.Q.^.^.I.h.g.g.h.x.M e.",
"d.S.!.&X%XI.K.b.f.n.-X3X0.` ' 0 3 ` [ [ +.@.] ] 5 3 7 { @.@.+.' ` ` ` 7 ' ' A Q.*X=X'.J.J.S.S.i.e.e.",
"S.S.F.^.~.Q.Q.D.h.n.:X<X+X` w 8 q 5 3 2 5 0 [ ]  .5  .@.+.[ q 4 6 6 w w 6  .b J.:X<X&XQ.I.D.S.s.e.e.",
"h.d.J.Q.Q.J.J.D.A.D.:X1X_.;.f > a f t t 9 4 4 0 0 3 ` 0 4 9 9 y a F F D r d 6.G.1X<X[.J.G.s.s.i.p.f.",
"h.n.h.d.G.h.b.G.S.S.:X>XU.) = > D f K :.>.h 2 0 | 5  .| q q n ,.J p F p r P h.n.>X3X{.h.b.e.e.i.h.h.",
"s.h.h.G.h.h.h.d.A.K.-X-XU.u.% : D K ( :.n g g #XxXO.tXtXO.t m I E P a s = J h.V.-X1X].g.i.e.M i.g.h.",
"g.g.g.n.h.I.I.J.h.h.'.~.n.M B o : J T I d g +XxXlX>.uXcX0Xb i K E P s @ @ _ p.h.%X%XI.S.d.r.M p.g.h.",
"g.l.g.h.h.I.I.G.n.h.~.~.g.e.u.k = : D d i 1 d yXrXL 0XrXI r i y d a = = J G.g.h.^.~.F.S.d.r.M i.b.h.",
"].{.L.h.D.I.Q.J.h.n.*X*XB.e.v.U.  . - r - r L b g O i v v i r - & @   J n.b.n.h.~.~.K.d.d.p.i.s.g.h.",
">X>X Xg.h.I.I.J.h.n.-X;XU.e.i.% : e G a -   . y .     r $ . $ r - ; ; = H i.n.h.~.~.P.b.g.n.n.g.g.N.",
"*X:X].g.h.I.I.K.n.n.-X-XB.e.e.o e G D D D : ; ; = - r # & - e - y d e ; ) z.l.h.!.!.D.b.n.L.d.n.s.n.",
"V.U.N.h.D.I.I.J.h.n.%X%XL.s.U.> l K T s e D D p : s a G G y y y y K z e % J n.b.H.D.h.n.L. X`.L.g.b.",
"b.h.g.g.h.I.I.J.h.D.~.~.J.U.u : d G T K f G T T D D G a K G l i y d z G D > L.N.G.N.b.n.L..X}.L.f.g.",
"g.f.N.L.G.J.J.n.g.g.K.I.h.U.+ x G U Y d D ( T ( T F G J T R K r 8 i v z ; p V.U.N.N.h.m.L..X{.P.g.g.",
"g.g.K..X'.N.h.g.n.g.b.G.h.U.+ l K Q Q x z R R ( T T G T T Q v y 8 v Y y % > N.V.C.V.N.b.T. X[.R.g.s.",
"n.n.T..X{.n.h.g.g.h.D.l.h.U.& H P Q P v R T Q ( ~ Q G x Q E v x x x i & . l g.N.N.L.N.b.U.&X.X].n.P.",
"L.V. X3X:XC.h.b.g.b.h.N.R.2X~ ; K ~ m z Q R ! Q ~ R x l R P P v i & o X c g.b.g.G.H.H.V.R.-X3X*X`.'.",
"L.n.).,X-XL.h.g.h.h.s.b.].&X.X/ % p c P ! 6.! U R ~ x v P P z & X X   c e.f.V.n.S.D.H.G._.<X3X*X'.!.",
"p.p.T.*X&XN.g.g.g.g.J.P.L.W.L.g.Y./ % s P ~ W ,.,.! W K d , + .   e 4Xv.m.m.m.c.d.h.V.L.R.,X,X XJ.L.",
"e.e.G.&X*Xg.g.g.g.N.[.'.L.h.g.h.g.{.) T % u i U Q Q U u @ . a E._.V.j.N.L.b.e.e.b.b.b.n.R.,X2X Xb.i.",
"e.e.n.<X<X Xn.h.h.l.`.).G.l.h.g.g._.'.2X/ / + & 8 , % . H Y.|.~.I.b.b.V.V.c.M M f.h.s.b.T.;X2X Xn.p.",
"f.b.g.D.G.h.s.h.S.k.p.p.l.S.l.g.g.x.x.i.f._.Z v.Z / Z v.B.i.t.N.n.g.n.b.L.c.M M f.f.b.b.b.&X*X!.p.b.",
"n.g.g.g.l.n.s.l.w.k.M y.s.w.A.g.n.u.M y.g.g.g.h.g.h.g.u.u.y.Z b.g.g.b.N.V.c.M M i.g.C.L.N.!.!.K.n.N.",
"g.n.l.d.S.W.'.L.N.s.y.u.a.u.g.`.`.p.M p.k.S.l.g.G.`.`.x.V u.M n.h.d.d.D.H.N.v.u.).]._.V.N.D.A.b.u.u."
};
