/* XPM */
static char *result[] = {
/* columns rows colors chars-per-pixel */
"50 50 243 2 ",
"   c #1D1514",
".  c #130F0A",
"X  c #2C0706",
"o  c #380905",
"O  c #271209",
"+  c #341707",
"@  c #261817",
"#  c #381918",
"$  c #270F11",
"%  c #2D271B",
"&  c #392318",
"*  c #373E18",
"=  c #3B2A25",
"-  c #382927",
";  c #3B3329",
":  c #2F3137",
">  c #221F28",
",  c #440601",
"<  c #441305",
"1  c #461C17",
"2  c #56150C",
"3  c #681907",
"4  c #791E0E",
"5  c #47271C",
"6  c #552219",
"7  c #652915",
"8  c #6F2A13",
"9  c #431F2C",
"0  c #442423",
"q  c #432A25",
"w  c #472C28",
"e  c #562C23",
"r  c #4A362B",
"t  c #52332B",
"y  c #593529",
"u  c #4D3A33",
"i  c #483737",
"p  c #563B36",
"a  c #472C37",
"s  c #66392C",
"d  c #753825",
"f  c #643934",
"g  c #3E491F",
"h  c #455522",
"j  c #4B4338",
"k  c #5C443B",
"l  c #5A4439",
"z  c #565534",
"x  c #66463A",
"c  c #74463C",
"v  c #6A513C",
"b  c #774D38",
"n  c #5D7E2B",
"m  c #58712D",
"M  c #597231",
"N  c #607E28",
"B  c #404D1B",
"V  c #523D40",
"C  c #4A4547",
"Z  c #544142",
"A  c #594646",
"S  c #595454",
"D  c #58544F",
"F  c #634B44",
"G  c #684B45",
"H  c #764746",
"J  c #695448",
"K  c #745B4C",
"L  c #7C5C4C",
"P  c #7A5845",
"I  c #685855",
"U  c #795C55",
"Y  c #604D53",
"T  c #7C6457",
"R  c #696E58",
"E  c #5F6864",
"W  c #6A6463",
"Q  c #796967",
"!  c #79756B",
"~  c #7D7A78",
"^  c #605F55",
"/  c #840A04",
"(  c #851204",
")  c #952508",
"_  c #953019",
"`  c #AD300C",
"'  c #8F3728",
"]  c #AC3D23",
"[  c #C33102",
"{  c #AD4513",
"}  c #844839",
"|  c #855538",
" . c #914834",
".. c #BB4E2C",
"X. c #9C733D",
"o. c #D75A0F",
"O. c #E85B12",
"+. c #D56315",
"@. c #EB671B",
"#. c #D2682D",
"$. c #ED6428",
"%. c #DC5530",
"&. c #874B46",
"*. c #84584B",
"=. c #835B53",
"-. c #995C50",
";. c #A8584A",
":. c #85644D",
">. c #9C614A",
",. c #886956",
"<. c #986756",
"1. c #847759",
"2. c #97795A",
"3. c #A2644D",
"4. c #A46955",
"5. c #A4635C",
"6. c #A56C59",
"7. c #AC705A",
"8. c #976A64",
"9. c #887866",
"0. c #987866",
"q. c #8D726F",
"w. c #A76963",
"e. c #A7766A",
"r. c #B0746E",
"t. c #DB5F47",
"y. c #72A41F",
"u. c #5E812B",
"i. c #5D8226",
"p. c #5F8032",
"a. c #618727",
"s. c #61852C",
"d. c #658C2C",
"f. c #688E2F",
"g. c #638B26",
"h. c #6A9426",
"j. c #6E9D26",
"k. c #67902B",
"l. c #6B952D",
"z. c #6D992C",
"x. c #669027",
"c. c #719E25",
"v. c #719E2D",
"b. c #678D30",
"n. c #698D33",
"m. c #678836",
"M. c #6C9531",
"N. c #6E9931",
"B. c #6E9238",
"V. c #709734",
"C. c #729D33",
"Z. c #73963D",
"A. c #759D3A",
"S. c #799C3E",
"D. c #7A8D3D",
"F. c #6FA024",
"G. c #72A323",
"H. c #79A72E",
"J. c #75A62B",
"K. c #7EB22D",
"L. c #75A332",
"P. c #79A534",
"I. c #77A832",
"U. c #7BAC33",
"Y. c #77A13A",
"T. c #7AA33C",
"R. c #7DAA3C",
"E. c #7EB234",
"W. c #748845",
"Q. c #779843",
"!. c #788657",
"~. c #6C8641",
"^. c #7DA442",
"/. c #7FA645",
"(. c #7F807A",
"). c #81AD3D",
"_. c #81B535",
"`. c #85B939",
"'. c #89C236",
"]. c #8CC33A",
"[. c #8A9457",
"{. c #86AD4B",
"}. c #83AA48",
"|. c #86B343",
" X c #8AB545",
".X c #87B049",
"XX c #8EBA4B",
"oX c #8BB748",
"OX c #91BC4D",
"+X c #87A755",
"@X c #8DB553",
"#X c #94BC55",
"$X c #98AC59",
"%X c #95886C",
"&X c #90906F",
"*X c #A79368",
"=X c #B09271",
"-X c #98B465",
";X c #94AA6F",
":X c #A1BB72",
">X c #C89872",
",X c #D4A97C",
"<X c #8EC242",
"1X c #93C549",
"2X c #99C656",
"3X c #A2CE5F",
"4X c #9EC562",
"5X c #9EC467",
"6X c #A1C763",
"7X c #A5CC6A",
"8X c #A5CA69",
"9X c #AAD06E",
"0X c #A6D067",
"qX c #AACE70",
"wX c #ACD072",
"eX c #9A9891",
"rX c #989388",
"tX c #B29288",
"yX c #ACA894",
"uX c #B4B1A7",
"iX c #C5A387",
"pX c #D8B698",
"aX c #D3AD8F",
"sX c #E6B996",
"dX c #E9B789",
"fX c #D9B9A6",
"gX c #C4BCB6",
"hX c #C8B7AE",
"jX c #E8BCAB",
"kX c #C49E86",
"lX c #EAC798",
"zX c #F8CA97",
"xX c #F8D79C",
"cX c #F4C78F",
"vX c #C9C3AF",
"bX c #FAD6A7",
"nX c #FDD7B1",
"mX c #F0C9AF",
"MX c #DDC090",
"NX c #D8D2CB",
"BX c #D7D2CC",
"VX c #F1ECE9",
"CX c #E5DDD2",
/* pixels */
"-X5X{.j.l.f.M./.5X-Xm.n b.b.Z..X.XM.f.f.b.k.s.M m.{.{.Z.f.f.[.5X@Xb.b.h.z.k.f.f.f.f.b.b.b.n m i.n.Z.",
"7XwX XG.G.z.z.{.9X7Xu.u.k.M.C.XXOXY.z.l.z.l.f.i.M.XXOXC.h.M.+XwX6Xl.v.G.G.j.z.N.l.z.z.z.k.s.s.f.h.C.",
"2X2X`.J.j.k.f.}.0X8Xb.f.z.j.j.}.R.J.j.v.T.T.f.n b.}.).{.@X^.+X2X#Xv.l.c.j.L.U.R.{..XY.l.z.x.k.h.z.C.",
"].].R.z.M.u.s.Q.9X7XC.z.J.G.j.z.z.G.G.U.oXoXM.s.b.M.C.#X7X#X^.<X`.z.z.l.z.R.oXOX6X7X{.C.z.c.y.j.z.z.",
"'.'.U.l.k.u.n /.0X6XC.j.j.G.j.z.l.G.G.U.OX:Xy w v y 8 d s c 6 6 %XT.l.l.z.^./.XX4X8X.XN.j.J.G.z.z.N.",
"J.J.l.s.u.u.n A.1X<XU.U.v.z.z.M.N.l.S.+XW.v =.8.<.0.7.4.7.<.2.:.x r D.v.z.N.I.A.^.S.U.U.U.z.z.z.z.h.",
"G.G.k.u.u.u.u.C.'.'.`.E.J.l.M.z.z.Q.p x H 8.w.w.5.w.4.7.>.>.<.<.,.L l !.^.l.z.z.z.z.I.E.E.z.z.l.z.z.",
"K.J.z.i.i.g.k.z.`.E.`.).J.M.C.S.}.k H 8.r.8.-.r.;.w.4.>.6.-.| *.L K T ^ (.N.k.d.z.z.R.OX Xv.h.C.z.z.",
"].'.P.s.a.c.G.z.z.z.XXXXL.z.Y.-XF H w.w.w.r.5.5.w.w.q.Y A ~ gXVXVXBXeXS (.Q.i.u.h.M.@X9X4XY.z.M.z.z.",
"'._.J.s.d.H.H.C.k.M.OXOXY.k.A.t U e.w.w.;.w.5.w.r.' H I W tXgXBXVXVXBXeX: ~.u.s.l.F.}.2XOXT.L.C.N.z.",
"G.J.j.h.C.oXXXA.u.s.4X6XZ.u.[.H -.-.<.6.w.-.0.8.G =.uXNXgXrXuXgXBXVXCXeXE ^ i.s.l.l.J.J.G.E.E.I.l.z.",
"G.G.v.h.C.oXOXA.n m.6X6XQ.n.l P w.e.6.6.7.6.<.c =.iXBXNXhXgXeXyXgXBXgX&XC D i.s.l.l.j.G.G.E.E.L.z.N.",
"F.z.c.j.P.#X2X}.n s.^.}.P.q.f <.<.4.3.4.6.<.l z uXNXlX>XpXaX=Xe.%X%X%Xj S 5Xf.f.l.z.k.d.g.v.v.J.j.j.",
"h.z.c.G.H.0XqX+Xu.u.k.z.#X%Xc e.4.4.>.| 2.<.J J uXCX,XMXmXbXbXlXMXiX1.j S |.M.h.l.z.d.N s.d.l.j.G.G.",
"z.z.j.c.H.2X8X{.s.s.z.j.&XD *.6.7.;. .} <.J j ! &XeX,XxXbXbXzXdX,X,X>XI I I.z.z.h.d.d.g.d.J.z.F.G.F.",
"G.G.j.v.F. XOX).v.l.G.G.!.; :.<.;.&.' &.9.k E yXuX! MXbXnXbXxXzXzXdXaXU I F.G.c.i.n h.y.G._.`.I.z.z.",
"F.G.F.z.C. XOX^.l.v.G.G.W.6 *.<.&.} H H H p 0.tXvX&XfX:.J l iXbXnXsXe.W :XC.y.c.i.n h.G.G.U._.I.l.z.",
"j.z.L.}.).T.Y.N.z.M.l.c.D.s } c s f H G H f =.<.*X*XhXQ   . 0.jXjXaXL W N.z.y.v.u.n d.j.P.#X2XoXE.E.",
"z.N.R.XXXXJ.h.l.z.M.d.J.S.5 5 # $ & p G c e | kX[.*XpXfXz & %XdXsX,Xv E z.G.G.c.s.n b.l.P.6X9X1X].'.",
"z.z.^.#XoXC.N.l.k.d.l.v.S.Q.!.!.C   : p s 6 } bXX.>XdXlX1.z =XdXdX,Xb W k.z.y.c.a.a.k.z.L.6X9X2X_.`.",
"N.z.@X7X4XC.z.d.s.n l.M.N.z.^.C.Z.@ # = w 6 s pXb pXlXlX=X*X,XcXsXdXb W s.k.G.F.l.l.j.F.U.2X7X@Xz.z.",
"N.l..X7X6XY.z.f.a.n l.z.z.N.N.N.!.w + # & O & 1.b fXxXxXxXnXxXxXbXlX,.R m.k.G.y.z.l.F.G.U.6X7X XN.z.",
"z.z.R.1X<X_.U.l.n s.R.}.N.z.z.{.k p 1 # + + + r x iXmXnXnXnXbXbXbX,X,.!.u.f.F.j.z.h.z.j.C.}.{.U.j.j.",
"z.N.U.'.].`._.C.n a. XoXL.z.^.i k t 1 < + + + t c %XtXhXmXjXmXmXyXT &Xb.i.s.N.M.l.z.N.z.M.l.z.j.G.G.",
"M.l.P.1X<XE.E.z.n n .X#XY.h.+XC x x s 6 < o 2 &. .d s :.8.tX>Xe.y 0.-Xs.u.f.F.z.z.C.z.j.l.l.l.z.c.j.",
"z.l.oX8X4XY.z.d.n m.6X6XR.z./.i u # < , ( ` [ $.o.{ 4 2 o X o , 7 7.-XM.N.z.y.y.].].U.M.h.M.z.d.u.u.",
"l.l.oXqX4XY.l.b.i.s.6X7XR.z.A.@ @ # o 3 o.#.[ $.@.+.#.{ 8 o o 3  .' 2.Y.z.j.G.J.].].E.j.l.l.z.b.n u.",
"j.G.`.1X<XE.U.N.k.M.6X7X|.U.R.XXE.=X3 ] $.%.O.$.o.+.@.@.+.{ ) / { ..7 ! }.N.G.H.2X0X XU.I.F.G.d.u.u.",
"G.G.K.].]._._.H.z.C.6X9XoX_.`.G.I.6 ' { ` [ [ [ ` @.O.O.+.#.#.) ) _ 8 q.A.j.G.H.4X9X1X_.E.H.F.h.u.u.",
"z.j.I._._.I.I.J.z.J.6X7X).C.U._.tX4 _ ' 4 3 2 2 # 9 ` ` ..t.t...4 3 2 9.M.z.j.L.0X0XXXI.L.h.h.d.f.k.",
"z.N.z.z.J.z.l.v.G.G.6X8XQ.i.V.$X8 ' _ _ 3 3 6 f a 9 ( / / ` ] ` 4 , q.+XM.j.z.N.7XqX@Xz.M.i.u.g.z.z.",
"h.z.z.L.z.z.z.v.G.J.6X4XQ.n m.$X6 d d 2 6 f p 0 V V &.&.3 3.7.b o *.9.W.N.k.l.Y.4X0X.Xh.f.u.n f.M.z.",
"l.k.l.N.z.E.E.L.z.z.oX'.M.n m.[.e s 1 o y f t 0 A Y U =.7 =XsX>Xs =.,.W XXL.l.z.<X<XE.F.j.i.n d.l.z.",
"l.J.l.z.z.E._.L.N.z.'.].z.n b.&X1 1 X X 1 e A i A W I Q e tXmXpXf G J E `.P.z.z.].].K.G.j.i.i.d.M.z.",
".X@XY.z.J.E._.I.z.N.2X2XZ.u.m.tXo X o X 9 w a V C W Q Y w 0.iX*.& 5 Q yXC.M.N.z.'.'.U.j.j.f.d.h.l.z.",
"8X7X@Xl.z.E.E.I.z.N.2X5XQ.u.W.V 0 # 0 # $ $ a a C Y Y C a F J t 5 5 ^ yXn d.l.z.'.'.R.M.l.C.N.l.M.C.",
"2X6XoXM.l.E.E.U.N.N.4X4XB.m.j - w 0 0 0 # $   @ > > > : C : q 5 t l i Y &Xd.L.z.`.`.H.l.N.A.z.N.h.C.",
"A.Z.C.z.J.E.E.I.z.N.<X<X^.! $ - w # 0 w a 0 - @     > : C C p t t p p i Q Q.C.M.I.H.z.N.Y.@X|.T.l.M.",
"M.z.l.l.l.E.E.I.l.J.'.].+XC @ a u w 0 0 i p V i 9 : C S Y Y I F t y p p I Q.Y.A.C.C.M.N.T.#XOXT.k.l.",
"l.k.C.Y.I.I.I.N.l.l.E. XR @ = i p p w t V G F A : 9 i I Q I =.P p y k A C R Y.Z.C.C.M.M.Y.OXoXT.l.l.",
"l.z.U.#X XC.z.l.M.l.M.R.W @ ; p l r w p v U Q F j q v R T K =.:.c p f F Z W ^.A.Y.A.C.M./.@XXX}.l.h.",
"N.N.^.OXoXN.z.l.l.z.J.^.W   = r u p l x T T U J k r K T L P L :.L G F k a I N.C.C.Y.C.M.A.#X#X{.C.Y.",
"T.A.@X7X2XY.z.M.z.M.z.^.&X% @ % r z k T K I U T l p b b :.1.L 1.,.K j = - ~ V.h.P.I.I.A.^.6XwX2X|. X",
"Y.N.+X7X4XY.z.l.z.z.h.N.oX-X@ O ; r F J F ,.T U k v :.:.,.,.,.T p = - j ~.n.A.N.G.H.P.C.}.7XwX2X X`.",
"b.d.^.2X1XC.M.l.l.l.I.R.T.R./.h % % - j I J J T J 9.,.,.J r r ; z m Z.M.B.B.B.n.j.z.A.A./.8X7X@XI.Y.",
"u.u.C.].`.z.z.l.l.N.XXXXY.z.M.M.Q.m ; % = J D l p F K 5 % # % m `.z.h.C.Y.B.s.p.M.M.M.C./.7XqX@XM.k.",
"u.u.N.'.`.L.N.z.z.N.|..XL.L.N.l.z./.XX-XB     * B h h M m.+X+X].E.M.M.A.A.n.n n k.z.h.M.^.5XqX@XN.k.",
"k.M.l.J.L.z.h.z.G.F.k.u.j.F.L.l.z.n.b.k.z.z.M.C.C.k.z.k.B.f.p.A.N.l.N.N.Y.n.n n k.k.l.l.M.1X2X|.k.M.",
"M.l.l.M.v.N.h.v.y.G.n g.h.G.c.l.N.a.N a.k.l.l.z.M.z.l.s.s.g.n B.l.l.M.C.A.n.N n k.l.N.A.C.'.`.R.z.N.",
"h.N.v.F.G.).|.T.C.h.i.s.g.s.l.|.|.b.n f.c.G.v.l.L. X|.b.N s.n N.z.j.j.J.L.C.m.s..X+X}.A.C.v.F.M.s.s."
};
