/* XPM */
static char *result[] = {
/* columns rows colors chars-per-pixel */
"50 50 13 1 ",
"  c #A49FC6",
". c #383766",
"X c #5A5788",
"o c #706F9B",
"O c #312239",
"+ c #BEBDD3",
"@ c #5A416D",
"# c #AC7A8B",
"$ c #C9919B",
"% c #DDC5C5",
"& c #86596F",
"* c #6F3748",
"= c #984040",
/* pixels */
"                                                  ",
"                                                  ",
"                          .........               ",
"                          .........               ",
"                         ...XooooX..              ",
"                        .X..ooooooXO              ",
"                       OXoXXoooooooO              ",
"                       OXoXXoX+XXooOOOOO          ",
"                       OXoXXoX+XXooOOOOO          ",
"                      @OXoXXoooooooOOOOOO         ",
"                    @@#OXoXXoooooooOOOOOO         ",
"                   @##$O.XOOXoooooXOOOOOO         ",
"                  @#$$$O..OO.......OOOOOO         ",
"                  @#$$$O..OO.......OOOOOO         ",
"                  @$$$$...OO.......OOOO.O         ",
"                 @#$$$$#...........OX..OO         ",
"                 @$$$$$$#.........OOOOOO          ",
"               OOO$$$$%$$$$$&#$$$$$$&@@           ",
"              OXX.$$$$$$$$$$&$$$$$$&@***          ",
"              OXX.$$$$$$$$$$&$$$$$$&@***          ",
"             .XXX.$$$$$&&#$$#&&OOOOO@===*         ",
"            .XXXX.#$$$&==&$$$#$&&OO&#===*         ",
"            .XX...#$$$&=OO##$$$$$$#$$**=*         ",
"           .XX.XX.&#$$O==&##&&#$$$$$$OOO          ",
"           .XX.XX.&#$$O==&##&&#$$$$$$OOO          ",
"           OX.XXXX.###&OO#$$$#&$$$$$$OO           ",
"           O..XXXX.&####&$$$$&#$$$$$#OO           ",
"           O.XXXXXX.&&##&$$$#O$OO&&&OOO           ",
"           O.XXXXXXX..O&O####O$$$$$#O             ",
"           O..XXXXXXXX..OOOOOOOOOOOO              ",
"           O..XXXXXXXX..OOOOOOOOOOOO              ",
"           O..XXXXXXXX.Xo+++o.O..@&@@             ",
"           O...XXXXXXX.X+++++X.OOX.&@             ",
"           O......XXXXOXo+++oXX..X.&@             ",
"            O.........OX.OOO.X.++..@O             ",
"            O.........OX.OOO.X.++..@O             ",
"            O.........O........OO..O              ",
"             O........O...........O               ",
"             OO........O.........OO               ",
"              OOOO......OOOOOOOOOOO               ",
"               OOOOOOOOOOOOOOOOOOO                ",
"               OOOOOOOOOOOOOOOOOOO                ",
"                 OOOOOOOOOOOOOOOO                 ",
"                   OOOOOOOOOOO                    ",
"                      OOOOOO                      ",
"                      OOX+OO                      ",
"                      OOX+OO                      ",
"                       OOOOO                      ",
"                                                  ",
"                                                  "
};
