/* XPM */
static char *result[] = {
/* columns rows colors chars-per-pixel */
"50 50 242 2 ",
"   c #080501",
".  c #140706",
"X  c #1A150B",
"o  c #181110",
"O  c #270806",
"+  c #340B07",
"@  c #27170A",
"#  c #39150A",
"$  c #271816",
"%  c #381916",
"&  c #292516",
"*  c #3A251B",
"=  c #2E3812",
"-  c #321F23",
";  c #392825",
":  c #353232",
">  c #151A24",
",  c #480A02",
"<  c #491B17",
"1  c #531A0C",
"2  c #671708",
"3  c #791906",
"4  c #6E1205",
"5  c #462519",
"6  c #58251A",
"7  c #513D18",
"8  c #78240E",
"9  c #6C2B16",
"0  c #442423",
"q  c #452A27",
"w  c #552C28",
"e  c #473429",
"r  c #563729",
"t  c #493836",
"y  c #5A3D35",
"u  c #533B3D",
"i  c #543833",
"p  c #412D31",
"a  c #632C23",
"s  c #68372B",
"d  c #653B35",
"f  c #7A3229",
"g  c #4A1C21",
"h  c #56442B",
"j  c #494637",
"k  c #56423A",
"l  c #5B433C",
"z  c #5A4738",
"x  c #4B512E",
"c  c #67473B",
"v  c #764A3A",
"b  c #735238",
"n  c #655C31",
"m  c #5D7E2B",
"M  c #56702F",
"N  c #596537",
"B  c #5E7D33",
"V  c #607E28",
"C  c #637F39",
"Z  c #69633C",
"A  c #333944",
"S  c #4C3E43",
"D  c #584845",
"F  c #504D4B",
"G  c #684A45",
"H  c #764B45",
"J  c #6C544B",
"K  c #6B5345",
"L  c #745A4C",
"P  c #7A5648",
"I  c #6A5958",
"U  c #765C54",
"Y  c #6B6159",
"T  c #7A645A",
"R  c #746E4A",
"E  c #675C62",
"W  c #735F60",
"Q  c #6A6667",
"!  c #951504",
"~  c #8C2D10",
"^  c #A63C1D",
"/  c #AF3712",
"(  c #873930",
")  c #9B3222",
"_  c #BD3A2B",
"`  c #CB3B0C",
"'  c #D23B07",
"]  c #B34E12",
"[  c #874436",
"{  c #924A33",
"}  c #B34E31",
"|  c #936A3B",
" . c #D05415",
".. c #EB5D15",
"X. c #DD6612",
"o. c #EB6518",
"O. c #D15A2F",
"+. c #E55C2A",
"@. c #CA642A",
"#. c #E66723",
"$. c #875748",
"%. c #935D47",
"&. c #835B53",
"*. c #94544D",
"=. c #AF5A45",
"-. c #98614A",
";. c #876757",
":. c #97675A",
">. c #88735A",
",. c #8E6A54",
"<. c #A7654E",
"1. c #A46C5B",
"2. c #A56758",
"3. c #AD6E56",
"4. c #866966",
"5. c #9B6663",
"6. c #88746B",
"7. c #967665",
"8. c #857B79",
"9. c #A96B64",
"0. c #A17360",
"q. c #DA6441",
"w. c #72A41F",
"e. c #5E812B",
"r. c #5D8226",
"t. c #5F8032",
"y. c #618727",
"u. c #61852C",
"i. c #658C2C",
"p. c #688E2F",
"a. c #638B26",
"s. c #6A9426",
"d. c #6E9D26",
"f. c #67902B",
"g. c #6B952D",
"h. c #6D992C",
"j. c #669027",
"k. c #719E25",
"l. c #719E2D",
"z. c #648433",
"x. c #678D30",
"c. c #698E32",
"v. c #6C8E3A",
"b. c #678539",
"n. c #6C9531",
"m. c #6E9931",
"M. c #6E9238",
"N. c #709734",
"B. c #729D33",
"V. c #759C3A",
"C. c #74983D",
"Z. c #6FA024",
"A. c #72A323",
"S. c #73A32C",
"D. c #79A72E",
"F. c #77AB2A",
"G. c #7DB22C",
"H. c #75A333",
"J. c #79A534",
"K. c #77A832",
"L. c #7BAC33",
"P. c #77A13A",
"I. c #7AA33B",
"U. c #7DAA3C",
"Y. c #7EB234",
"T. c #779945",
"R. c #7A8E52",
"E. c #7DA543",
"W. c #7FA645",
"Q. c #81AD3D",
"!. c #81B535",
"~. c #85B939",
"^. c #89C236",
"/. c #8CC33A",
"(. c #8B9757",
"). c #81A44B",
"_. c #86AD4B",
"`. c #84AC46",
"'. c #86B343",
"]. c #8AB545",
"[. c #87B049",
"{. c #8EBA4B",
"}. c #8BB649",
"|. c #91BC4D",
" X c #87A654",
".X c #8DB553",
"XX c #93BB55",
"oX c #97AF5B",
"OX c #9A8673",
"+X c #8A8970",
"@X c #A6856E",
"#X c #A68F77",
"$X c #AF9977",
"%X c #91AC66",
"&X c #ACAC78",
"*X c #AB824E",
"=X c #CC9A74",
"-X c #CAA37B",
";X c #D3A476",
":X c #ECB97F",
">X c #8EC342",
",X c #93C449",
"<X c #99C656",
"1X c #A2CE5F",
"2X c #9EC562",
"3X c #9EC467",
"4X c #A1C763",
"5X c #A5CC6A",
"6X c #A5CA69",
"7X c #AAD06E",
"8X c #A6D067",
"9X c #ACD072",
"0X c #AACF70",
"qX c #97958D",
"wX c #8D8B86",
"eX c #A79B96",
"rX c #B29589",
"tX c #B3A696",
"yX c #B8B4AB",
"uX c #B8ADA8",
"iX c #C69D8B",
"pX c #CAA689",
"aX c #DDBA94",
"sX c #D6AF92",
"dX c #E7B88B",
"fX c #E7B58F",
"gX c #DBB9A4",
"hX c #C7BAB2",
"jX c #E3B9AF",
"kX c #E8C398",
"lX c #F9DA9B",
"zX c #F3C790",
"xX c #D2C2B1",
"cX c #F8CDA6",
"vX c #FFD9A9",
"bX c #F2CFB0",
"nX c #FEE3A6",
"mX c #CCC8C4",
"MX c #D8CCC6",
"NX c #EFD9CE",
"BX c #E6E1DE",
"VX c #F3EFEC",
/* pixels */
"oX3X_.d.g.f.n.W.3X%Xb.m p.p.C.`.[.n.p.p.p.s.u.M b.`._.C.p.p.(.3X.Xv.p.s.h.f.p.p.p.p.p.x.p.m M u.c.V.",
"0X9X}.A.Z.h.h.[.0X5Xi.e.f.n.B.|.|.P.h.g.h.g.p.m n.|.|.B.s.n.%X0X2Xh.d.A.A.d.h.n.g.h.h.h.f.u.u.i.s.N.",
"<X<X~.S.d.p.x.).8X4Xc.p.h.d.Z.`.Q.A.d.B.U.U.g.b.M.Q.Q._.}.L.).<XXXh.h.d.d.K.K.U.`.[.P.g.h.i.f.s.h.B.",
"/./.U.h.n.e.e.W.7X5XB.h.S.A.l.h.h.F.oX7 7 b a a 6 7 n n Z tXW./.~.h.h.h.h.U.{.|.4X5X[.m.h.A.w.d.h.h.",
"^.^.L.h.f.e.m E.5X4XB.d.A.S.d.g.T.h c v ,.*.1.-.<.:.;.4.L D z XXY.h.g.n.g.U.].{.3X5X[.m.d.S.A.h.h.m.",
"F.F.g.e.e.e.m V.,X>XL.L.B.h.m.%Xc c ;.:.0.-.-.3.<.9.2.9.:.5.H G I (.A.h.g.m.B.V.E.T.L.L.L.h.h.h.g.s.",
"Z.A.f.e.e.e.e.B.^.^.~.!.S.g.W.Y T G J H v { 9.3.<.9.*.9.9.5.5.:.H G (.g.m.g.h.h.d.h.K.Y.Y.h.h.g.h.h.",
"G.F.h.r.r.a.f.h.~.!.!.~.S.n.%XF R.uXhXMXuX6.L G 7.9.2.2.2.9.9.5.5.P H ).I.m.f.i.h.h.U.|.].l.s.B.h.h.",
"^.^.J.e.y.k.A.h.h.h.{.{.B.m.F Q yXBXVXBXmXeXE J W $.9.9.2.9.2.5.9.5.&.G oXV.e.e.s.g..X7X2XP.h.n.h.S.",
"~.~.S.u.i.K.D.B.s.n.XX|.V.T.A qXmXVXBXmXhXqXeXhXeX&.$.:.9.5.2.2.2.:.:.H >.V.e.u.g.l.`.<X|.I.H.B.h.h.",
"A.F.A.s.B.].{.P.e.z.2X4XC.t.: wXyXBXmXyXeXuXyXxXMXrX&.P :.2.2.2.2.1.0.$.L _.e.e.g.g.S.F.A.Y.Y.K.g.h.",
"A.A.h.s.B.].|.I.m z.4X4XT.v.Y F wXtXeXOXOXsXxXpXjXjXeXU G ;.0.2.2.3.1.,.G R e.e.g.g.d.A.A.Y.Y.J.h.g.",
"S.h.k.d.J.XX<X).m e.E.`.H._.qX; Q $X&X$XaXkXcXsX-XBXxX>.c ;.1.-.%.2.2.1.&.G p.i.g.h.j.i.a.l.l.S.d.d.",
"s.h.k.A.F.1X0X Xe.e.p.h.Y.Y.+Xe OXpXdXcXcXvXlXvX;XhXeXQ D K >.[ { =.<.3.;.c T.g.g.h.i.m u.c.h.d.A.A.",
"h.h.d.k.D.<X4X_.y.u.h.d.L.L..Xy pX:XzX:XzXvXvXnXzXR.qXqXY G ;.$.[ *.=.<.,.r N g.s.f.i.y.i.A.g.k.A.d.",
"A.A.d.l.S.].XXU.S.g.A.A.d.g.H.Y @XdXvXlXzX#XrX#XkX+XyXtX+XG P $.f ( { -.,.h j k.r.m s.w.A.!.!.K.h.h.",
"Z.A.d.h.B.}.|.E.h.h.A.A.m.m.H.%Xe aXbXbXsX    ; hX$XrX@X:.d d H G c c b %.s c k.u.m s.A.A.L.!.K.g.h.",
"d.h.H.`.Q.I.H.m.h.n.h.d.d.Z.Z.E.e =XfXfXpXX X rXhX$X(.0.,.s d G G k * < s r P I.V m i.k.K.XX<X|.!.Y.",
"h.m.U.{.{.B.s.g.h.n.f.d.Z.A.d.N.w =XfXfX=Xx Z bXaX=X*XkX<.a d G t X o : q p 6.[.u.m c.f.K.4X7X<X^./.",
"h.h.U.XX{.B.m.g.f.f.g.h.m.Z.h.T.e =XfXfXdXR Z sXkXdX| sX-.a w 0 ; $ Q W.g.B.F.S.y.u.s.h.H.4X5X<X~.~.",
"m.h.}.5X2XB.h.i.e.e.g.n.h.s.m.T.r zXvXlXzXvXvXlXnXkX:.OXh @ * 5 O % 8.R.e.f.A.Z.g.g.d.Z.L.<X5X.Xg.h.",
"m.g.[.7X2XI.h.p.u.e.g.h.h.m.V.T.h dXvXlXvXvXvXvXlXgXH r * @ @ % 5 i D 8.T.g.A.w.h.g.Z.A.L.4X5X].h.h.",
"h.h.U.,X>XY.L.g.e.u.U.`.B.h.H.~. Xh gXbXbXjXNXNXgXiXH 7 # # # # # < i D C x.Z.d.h.s.h.d.B.`.`.L.d.d.",
"h.n.L.^.^.~.!.B.m u.'.{.H.h.U././.&Xe iXkXjXiXrXL c c b # . + 1 s c G k b.u.m.g.g.h.m.h.n.g.h.d.A.A.",
"n.g.K.>X>XY.Y.h.e.m }.XXP.s.J./.^.&X1 < < < < 1 2 ~ ] X./ ~ ! , , 6 j D B i.d.h.h.B.h.h.g.g.g.h.d.d.",
"h.g..X5X3XP.h.p.m z.4X4XU.h.J.>X6X{ { 2 + O 1 8 } X.X.#. . .] 2 + + & & b.h.w.A./.^.L.m.s.n.h.i.e.e.",
"g.g.}.0X2XP.g.p.e.u.4X5XU.h.S.,Xv ^ } ! 4 ~ ]  .#.X.X.....+.+.^ 2 $.).l.m.d.A.F././.L.d.g.g.h.p.m e.",
"d.A.~.,X>XY.L.n.s.n.4X5X'.L.K.Q.6 ~ ^ 3 ]  .@.....X. .` ' ` ` ^ ( f v.s.m.S.A.D.<X8X{.F.K.Z.A.i.e.e.",
"A.A.G./.^.!.!.D.h.B.4X7X{.!.!.J.6 3 3 ^ O.q.q.` / ( a 8 8 ~ ! ~ ) 8 ;.N.m.d.Z.D.4X7X,X~.Y.D.Z.s.e.e.",
"h.d.K.!.~.K.K.S.d.S.4X5XQ.B.S.}.4., 4 ^ } _ ) ! ! g g a 6 2 2 ~ ) ~ [ +XV.h.Z.K.4X7X{.K.H.s.s.i.p.f.",
"h.m.h.l.S.h.g.A.A.A.4X6XC.m N.<X6.$., 8 =.=.4 f ( w S w w w g 2 f ( f &.E.h.h.n.5X0X{.h.n.e.e.y.h.h.",
"s.h.h.S.h.h.h.B.A.S.4X2XT.m m.].N $X% -.sX=X1 &.&.G S q i d w < < s a U B.j.g.V.2X8X'.g.f.e.e.p.g.h.",
"g.g.g.m.h.Y.Y.K.h.h.{.^.n.m T.n.M 7.0 pXbXsX5 &.U E F u i w w % + < g 4.~.H.g.h.>X>XY.Z.d.r.m p.g.h.",
"g.l.g.h.h.Y.Y.H.m.h.^.^.g.e.v.n.b.z 5 :.gXiX% I E W D S S w g O O + + 4.|.J.h.h././.G.A.d.r.m i.n.h.",
"[.}.P.h.S.Y.!.K.h.m.<X<XC.m b.P.+X% 5 5 >.4.q F E E F S p - g % < % + G %Xg.m.h.^.^.K.k.d.p.i.s.h.h.",
"5X5X.Xg.h.Y.Y.K.h.m.<X3XT.u.p.R.t y r q 0 t : A A p : - - $ . - 0 0 q - j p.g.h.^.^.U.n.g.B.h.g.g.B.",
"<X4X.Xs.g.Y.Y.L.m.m.3X4XM.z.u.x y y y 5 q S F : > . . o o - 0 0 0 0 ; q $ z.h.h.~.~.D.g.m.V.d.m.s.N.",
"V.C.B.h.A.Y.Y.K.g.m.>X>XE.g.R.u S y w y J D D F A - ; p S u i q 0 - e q - j  Xn.K.D.h.m.P..X'.I.g.n.",
"n.h.g.g.m.Y.Y.K.g.S.^.^.K.n.j l u i q c U I Y Q F p : u u S l e q i u t ; - j W.B.B.n.m.I.XX|.I.f.g.",
"n.p.B.P.K.K.K.m.g.g.L.Y.m.C.t G y d d ;.;.L ;.R D : i D U U G d r q y y ; & :  XH.B.n.n.P.XX}.I.g.g.",
"g.g.L.XX].B.h.g.m.g.m.H.m.C.t D G d G P &.K b T 4.e k J T T ;.z r k e k e ; : W.V.V.B.n.E..X{.E.g.s.",
"m.m.E.XX}.m.h.g.g.h.A.S.h.C.$ e l J 7.7.P ;.,.Z b y y L U J L T K z k ; ;   x P.m.P.B.n.I.XXXX[.B.I.",
"I.V..X5X<XI.h.n.h.n.h.B.`.{. XX $ r c >.7.7.7.$.;.z y J T ;.K K K k e * . j C.s.I.J.K.V.E.4X9X<X'.].",
"P.m._.5X4XV.h.g.h.h.s.N.'.,X'.N. XX X e z h L 7.;.>.I L U I I I j ; &   j c.V.m.A.F.J.B.).7X9X<X'.~.",
"c.p.E.<X,XB.g.g.g.g.K.U.P.Q.H.s.g.I. X& . @ e r ;.U D G J I k $ & = b.T.M.n.M.v.d.h.V.V.W.6X5X.XK.P.",
"e.e.B./.~.h.h.g.g.N.{.{.P.h.g.n.h.'.XXQ.V.).@ . @ % @ X $ $ $ R.XXh.g.m.P.M.u.m n.n.n.B.E.5X9X.Xn.i.",
"e.e.h./.~.B.m.h.h.l.'.`.H.l.h.g.g.`.].`.l.h.h.J.h.b.t.W.'.W.T./.Y.n.g.V.V.v.m m f.h.g.g.E.3X9X.Xm.n.",
"f.n.n.A.H.h.s.h.A.k.p.p.l.A.l.g.h.p.p.i.g.h.g.m.m.f.g.x.v.c.u.B.m.g.m.m.P.v.m e.f.f.g.g.m.,X<XQ.f.n.",
"n.g.g.n.l.m.s.l.A.A.m y.s.w.k.g.m.e.V u.g.g.g.h.n.h.g.u.u.y.t.n.g.g.n.B.V.v.V m i.g.m.V.B.^.~.L.g.m.",
"s.m.l.Z.A.Q.'.I.B.s.y.u.a.u.g.'.'.f.m p.k.A.l.g.H.'.'.c.V u.B h.h.d.d.F.J.n.b.u.`..X`.V.B.l.S.g.u.u."
};
