/* XPM */
static char *result[] = {
/* columns rows colors chars-per-pixel */
"50 50 34 1 ",
"  c #453E39",
". c #4C443E",
"X c #54463F",
"o c #58473F",
"O c #4E4641",
"+ c #4F4944",
"@ c #524741",
"# c #584740",
"$ c #544944",
"% c #5B4C44",
"& c #554E49",
"* c #5B4F48",
"= c #56504C",
"- c #5B524C",
"; c #5D5651",
": c #5E5954",
"> c #5F5C58",
", c #624E46",
"< c #645047",
"1 c #6B5347",
"2 c #64534A",
"3 c #6A554C",
"4 c #6C584F",
"5 c #625750",
"6 c #635A54",
"7 c #6A5B54",
"8 c #635E59",
"9 c #6B5F58",
"0 c #705C52",
"q c #66615B",
"w c #6B615B",
"e c #716057",
"r c #71635A",
"t c #6B6761",
/* pixels */
"<<,%o,,#%,15%%%%#%o%#%%2552%,%%25*25q662*--*6-*682",
"2,,,,1,,,,,3%%%%#oX,22%2*2222,22%%*<6*24*%<%2%22*2",
",,%%<31,%2,%%#%%##%32#%2*%%2,%23<<%15*%o*%%%<*<%51",
"3732<<1<3-36356325247*2;;2572222%<%%3**<223%%o<%*q",
"5**2,,,<-8-&&+:$+++&&;8;-----2--%*%%--;5-565%%*-25",
",<%##%<%#:OOO... + OO+-*#%%*%2##o%5%o$#@$X**$X*;2%",
"%%%%##,##:.OOO..O O O&;#%%%%%%##oo:Xo%$#%o*$%$*3%<",
",#,5475,#;.+=O..O+OOO&;$%2,-<-%%$%q*@$%$*-*%*$&;*<",
"5%%,#*#2###-2*,<%,<6-886w>8qw86--68w66>;;88:;;:q;6",
"%%%%%##%##oo*3,o,,31<<<<%8%%%<%oo%o#4**-$X#$$@$@X$",
"*#,%#%%#%o##%-%2,,,<32,%26#%%%%%%%o%%%X@*.X@$$$$@X",
"252242%*,%2%*-,1,,42,3<<46%%%%%%o%%%%$X@$$@O@@@#$*",
"*;**;::;-*-$;:523556&$$-8q;;6-662-w866668-#%%X@&;;",
"$@@@@@*$X#*OX**2*%#@.OOOO++O..$.,%32<<,<12<<*.@@*$",
"@@@@&$-$$@-##$*%*#$-O.O.++OOOO.O<<<4422<<3*<-%$$X$",
"$@@@#*;@X#X#$%*%#$$;+O+OOOO..+O.<<<22<<<3<<26$@XX@",
">&>q8>q>q::q>:68886q6-=@.$==:;;>7ew*32388q86>;qq>8",
"6=@@.O$=.OO$&:3,2,22*<2<22q-&$$$*$X-*$@...$X@@@..$",
"-=O..O$+..OOO=%<<<%,12,<2<6#%$$$*%$$#$$$.$@O@$$..#",
"&$.+OOOO..OOO=22<<2242<<<26X$$%$$*%$$@o$@.$@.@@.@&",
"*$$X#@$;:::;;>:7976-69wwe6>;**-=--68:q6::::;$@XX$*",
"%%*%%%:-&-*@$2&***-:*%$*%&*****q-&$$$$$$OX$=-*%o%%",
"%%<%%%6##%#@$**2*#$*o##*%X%**%%*$@$$$@$X...@-#$%#o",
"%*3<%<-$$*$#$##%%#$*%X$$%oo%%&%%$$$$$$&.@@X$8#%o%%",
"wwwww68XoXo*%$,*$#@#*#%*&**-5-*5=-&--$$%$.@O:66w--",
"%o%ooo,o,%X32<,4<2343226>;===&&&&&&=;-*$#%$XXXXX-5",
"<<1,,%,o,%%2<4<3<2,,22<7;$$$&+$+$$+X-*%o$$o$#&$%$*",
"<%%%%%<1<<%-344324<<,2<6;&+&$+$...+.;%%$%o*$##*%$-",
"527946-<35-63ee70722643>;=-=6;-&+&;=:5555-5*&-5&--",
"=-$=&-:;-=-;-$-=-*=:+O&====&;;=:-:--6;;*-&&;>--$=-",
"O$@OO.=*$o#%@X%##X#=.+.O=O&@$O+=%%%*o***%$o$=.&$O@",
"O@$O#@=$*#*X#%$#*#@&O..$&OO+++.;$o$$o$o*$o$*-.@O.$",
"O$$$*$:-*2%%%#$*##*;+@$@&&&&=$@==*-***#**$&&-@....",
"$t8:66ww6w65w8:66668-;6686:::::q::-:q>;>::;;>;;$..",
".,32<<2<<<<,28<<<<44<34222@&-$$@@*@@@@;OXOO+O....O",
"X<<3<<%12<3,<2<<<1<4,34<32#$$@$#@$@@OO-OO$$$@.....",
"-22443432474,2<<<<<5444<23#$$$*$#$X@@.-$+X$$.+$+=$",
"---;;q6-6w9032,<<,477995342%-26wq85::-:#$.+-=-:;=-",
"##@#o#*$$7442,<,<<,<44<342332<23<<$.@@$*X$$X.X;X@#",
"$@#@X@$$$,3<<,2<1,3,41<422,312<243*.@@@$X$+X$.=$$$",
"$$@@@@@*X,3,<32,<3<<<462,2<222343%*$X$XX+$.X.$-&@#",
";:8866:;88886:99r97968w988899999443;q:>q>qq6q:qq::",
"t&O O. O $$+&62,311<,22<<922222321131;:$oX.$*XXXX#",
";O.OOOOO@@OO&222314<2,<228332222325343;o%$$%*$%*#$",
";+O@OOO+OOO+&52231<<3,%2274742404123476%$$o$**$%-*",
"8$++O.O..OO$;859rr75599w979r9996:wwww6q;666;5--66;",
"$+OO.O.$OOO$&&@O@+&>;&$+&+$&&++;>==$&&=$$+$&>=+.++",
"+O&...O.OO$$@OOO.OO;@@+OOOOO++OO:$+@+..@OO+.:+$.O+",
"&&O O@+.O. @O@OO @@;O@+OO.OOOOOO:O$OO+.O..@+-+.O.O",
"@;;;::;8:8;@@@.&*O.:O......OOOO+;$=-&$--&&-$;=+=$+"
};
